<svg xmlns="http://www.w3.org/2000/svg" width="31" height="31" viewBox="0 0 31 31">
  <g id="add-event" transform="translate(0 -0.878)">
    <path id="Shape" d="M23.9,31a7.085,7.085,0,0,1-5.476-2.583H2.583A2.586,2.586,0,0,1,0,25.834V5.167A2.586,2.586,0,0,1,2.583,2.583H7.75V.646a.646.646,0,1,1,1.292,0V2.583H20.667V.646a.646.646,0,1,1,1.292,0V2.583h3.875a2.586,2.586,0,0,1,2.583,2.584V18.42A7.1,7.1,0,0,1,23.9,31Zm0-12.916A5.812,5.812,0,1,0,29.708,23.9,5.819,5.819,0,0,0,23.9,18.084Zm-22.6-7.75v15.5a1.293,1.293,0,0,0,1.291,1.292H17.576a7.015,7.015,0,0,1-.785-3.229,7.113,7.113,0,0,1,7.1-7.1,7.008,7.008,0,0,1,3.229.785V10.334ZM2.583,3.875A1.293,1.293,0,0,0,1.292,5.167V9.041H27.125V5.167a1.293,1.293,0,0,0-1.292-1.291H21.958V6.458a1.292,1.292,0,1,1-1.292-1.292V3.875H9.041V6.458A1.292,1.292,0,1,1,7.75,5.167V3.875Z" transform="translate(0 0.878)" fill="#a1aab3"/>
    <path id="Path" d="M6.3,2.8H4.2V.7A.7.7,0,1,0,2.8.7V2.8H.7a.7.7,0,0,0,0,1.4H2.8V6.3a.7.7,0,0,0,1.4,0V4.2H6.3a.7.7,0,1,0,0-1.4Z" transform="translate(20 20.878)" fill="#a1aab3"/>
  </g>
</svg>
