<svg id="Group_19" data-name="Group 19" xmlns="http://www.w3.org/2000/svg" width="32" height="35.959" viewBox="0 0 32 35.959">
  <g id="Group_2_Copy_5" data-name="Group 2 Copy 5">
    <circle id="Oval" cx="16" cy="16" r="16" fill="#ff5a00"/>
    <path id="Path_3" data-name="Path 3" d="M0,0,5.959,5.959,11.917,0" transform="translate(10 30)" fill="#ff5a00"/>
  </g>
  <g id="car" transform="translate(6 10)">
    <path id="Shape" d="M14.752,10a2.162,2.162,0,0,1-2.091-1.621H6.121a2.162,2.162,0,0,1-4.186,0H1.686A1.7,1.7,0,0,1,0,6.664V5.554A1.7,1.7,0,0,1,1.246,3.913l2.9-.8L5.887.838A2.15,2.15,0,0,1,7.588,0h5.75a2.111,2.111,0,0,1,1.8,1l1.346,2.151,1.526.7A1.7,1.7,0,0,1,19,5.4V6.664a1.7,1.7,0,0,1-1.686,1.714h-.467A2.167,2.167,0,0,1,14.752,10Zm0-3.554a1.384,1.384,0,1,0,1.382,1.383A1.384,1.384,0,0,0,14.752,6.446Zm-10.726,0A1.384,1.384,0,1,0,5.408,7.829,1.384,1.384,0,0,0,4.026,6.446Zm10.731-.773A2.154,2.154,0,0,1,16.9,7.6h.413a.923.923,0,0,0,.907-.935l0-1.267a.922.922,0,0,0-.534-.841l-1.627-.744a.382.382,0,0,1-.167-.148L14.48,1.411A1.349,1.349,0,0,0,13.338.779H7.588a1.387,1.387,0,0,0-1.086.53L4.688,3.691a.382.382,0,0,1-.207.14l-3.033.83a.924.924,0,0,0-.673.893V6.664a.923.923,0,0,0,.907.935h.194A2.17,2.17,0,0,1,3.788,5.686a2.195,2.195,0,0,1,.242-.013A2.155,2.155,0,0,1,6.175,7.6H12.6a2.166,2.166,0,0,1,2.154-1.927Z" transform="translate(0 0.429)" fill="#fff"/>
  </g>
</svg>
