<svg xmlns="http://www.w3.org/2000/svg" width="19" height="29" viewBox="0 0 19 29">
  <g id="pin" transform="translate(0 -0.481)">
    <path id="Path" d="M9.5,0A9.454,9.454,0,0,0,0,9.386c0,4.628,3.249,10.7,5.975,14.97a.6.6,0,0,0,.824.185.586.586,0,0,0,.187-.814C2.2,16.221,1.195,11.785,1.195,9.386a8.306,8.306,0,0,1,16.611,0c0,7.348-8.69,18.551-8.778,18.663a.585.585,0,0,0,.108.828.6.6,0,0,0,.838-.106C10.341,28.3,19,17.137,19,9.386A9.455,9.455,0,0,0,9.5,0Z" transform="translate(0 0.481)" fill="#a1aab3"/>
    <path id="Path-2" data-name="Path" d="M4,1.131A.566.566,0,1,0,4,0,4,4,0,1,0,7.188,1.583a.566.566,0,0,0-.9.684A2.842,2.842,0,0,1,6.869,4,2.869,2.869,0,1,1,4,1.131Z" transform="translate(6 6.481)" fill="#a1aab3"/>
  </g>
</svg>
