<?xml version="1.0" encoding="UTF-8"?>
<svg width="77px" height="41px" viewBox="0 0 77 41" version="1.1" xmlns="http://www.w3.org/2000/svg" xmlns:xlink="http://www.w3.org/1999/xlink">
    <!-- Generator: Sketch 54.1 (76490) - https://sketchapp.com -->
    <title>car</title>
    <desc>Created with Sketch.</desc>
    <g id="Page-1" stroke="none" stroke-width="1" fill="none" fill-rule="evenodd">
        <g id="Home" transform="translate(-44.000000, -18.000000)" fill="#FF5A00" fill-rule="nonzero">
            <g id="car" transform="translate(44.000000, 18.000000)">
                <path d="M72.992102,15.6991487 L66.8068655,12.9087534 L61.3474476,4.30373568 C59.7695811,1.80952764 56.9925362,0.29741401 54.0103686,0.31300281 L30.7526171,0.31300281 C28.0544655,0.31300281 25.4983218,1.54451803 23.8573407,3.66459487 L16.8042777,12.784043 L5.04917264,15.9641583 C2.06700505,16.7747759 0,19.4716384 0,22.5270432 L0,26.9698513 C0,30.7267522 3.02950358,33.8289234 6.83216173,33.8289234 L7.84199625,33.8289234 C9.05695342,38.4587971 13.8378888,41.2336036 18.5241521,40.0332659 C21.6009917,39.2382371 24.0151274,36.8687395 24.8040606,33.8289234 L51.3122169,33.8289234 C52.5271741,38.4587971 57.3081095,41.2336036 61.9943728,40.0332659 C65.0712124,39.2382371 67.4853481,36.8687395 68.2742813,33.8289234 L70.167721,33.8289234 C73.9703792,33.8289234 76.9998827,30.7267522 76.9998827,26.9698513 L76.9998827,21.9034912 C77.0156614,19.2378064 75.437795,16.8059535 72.992102,15.6991487 Z M16.3151391,37.1649267 C13.2225208,37.1649267 10.7137132,34.6863074 10.7137132,31.6309026 C10.7137132,28.5754977 13.2225208,26.0968785 16.3151391,26.0968785 C19.4077573,26.0968785 21.916565,28.5754977 21.916565,31.6309026 C21.9323437,34.6707186 19.423536,37.1493379 16.3151391,37.1649267 Z M59.7853598,37.1649267 C56.6927415,37.1649267 54.1839339,34.6863074 54.1839339,31.6309026 C54.1839339,28.5754977 56.6927415,26.0968785 59.7853598,26.0968785 C62.877978,26.0968785 65.3867857,28.5754977 65.3867857,31.6309026 C65.4025643,34.6707186 62.8937567,37.1493379 59.7853598,37.1649267 Z M70.167721,30.7111634 L68.4951826,30.7111634 C67.9744867,25.9565793 63.6353539,22.5270432 58.8228612,23.0570624 C54.7361871,23.4935488 51.5173396,26.6892529 51.075537,30.7111634 L25.0249619,30.7111634 C24.504266,25.9565793 20.1651332,22.5270432 15.3526406,23.0570624 C11.2659665,23.4935488 8.04711889,26.6892529 7.60531629,30.7111634 L6.81638306,30.7111634 C4.74937801,30.7111634 3.13995423,29.0119841 3.13995423,26.9698513 L3.13995423,22.5270432 C3.12417557,20.8590416 4.24446075,19.4092832 5.86966319,18.957208 L18.1612428,15.6367935 C18.4925948,15.5432607 18.7923894,15.3561951 18.9975121,15.0755967 L26.3503697,5.55083971 C27.4075402,4.21020288 29.0327427,3.43076287 30.7526171,3.43076287 L54.0103686,3.43076287 C55.9038083,3.41517407 57.6867974,4.36609088 58.6808533,5.95614851 L64.3927298,14.9664751 C64.5505165,15.2314847 64.8029751,15.4341391 65.0712124,15.5588495 L71.6666941,18.5363103 C72.992102,19.1442736 73.8441498,20.4537328 73.8283712,21.9034912 L73.8283712,26.9698513 L73.8441498,26.9698513 C73.8441498,29.0119841 72.2347261,30.7111634 70.167721,30.7111634 Z" id="Shape"></path>
            </g>
        </g>
    </g>
</svg>