<?xml version="1.0" encoding="UTF-8"?>
<svg width="31px" height="30px" viewBox="0 0 31 30" version="1.1" xmlns="http://www.w3.org/2000/svg" xmlns:xlink="http://www.w3.org/1999/xlink">
    <!-- Generator: Sketch 57.1 (83088) - https://sketch.com -->
    <title>All-wheel drive</title>
    <desc>Created with Sketch.</desc>
    <g id="Page-1" stroke="none" stroke-width="1" fill="none" fill-rule="evenodd">
        <g id="Care-Detail" transform="translate(-1241.000000, -1531.000000)" fill="#868686" fill-rule="nonzero">
            <g id="All-wheel-drive" transform="translate(1241.000000, 1531.000000)">
                <path d="M29.7935679,13.9606577 L29.7935679,13.9606577 C29.327201,13.9606577 29.3594654,13.4497945 29.3184017,13.123899 C29.2362742,12.501468 29.1130829,12.3135643 29.7613035,12.1403406 L29.866896,11.9553729 L29.4151948,10.2642396 C29.3653317,10.0822079 29.1600129,10.1761597 29.0338886,10.2113917 C28.5851205,10.3317675 28.4853942,9.83852026 28.3563367,9.52730476 L28.174483,9.11626541 C27.9574318,8.63476218 28.5528561,8.52906635 28.596853,8.3763946 L28.596853,8.26189078 L27.7169155,6.74398121 C27.6230556,6.58250147 27.4441349,6.72342924 27.3414756,6.78508514 C26.9308381,7.03170875 26.7108538,6.58250147 26.4996688,6.3094539 C26.1095632,5.80446271 25.9130438,5.72225484 26.3911432,5.23194363 L26.3911432,5.00587199 L25.1474983,3.76981797 C25.0125745,3.63476218 24.8717845,3.83147387 24.7837908,3.91661773 C24.4552808,4.24544921 24.1238377,3.86670581 23.8569234,3.66118614 C23.590009,3.45566647 23.1412409,3.24427481 23.3729578,2.83029947 C23.4345534,2.72460364 23.5870759,2.53669994 23.4198878,2.44274809 L21.8858635,1.5619495 C21.7421404,1.48854962 21.6512136,1.69994128 21.5925511,1.79095713 C21.3579011,2.21374046 20.9384642,1.93188491 20.6216868,1.79095713 C20.0878581,1.56782149 19.7974787,1.5619495 19.9910649,0.910158544 C20.0055839,0.873385203 20.0055839,0.832428068 19.9910649,0.795654727 L19.9001381,0.72519084 L18.2106582,0.273047563 C18.1739208,0.258514386 18.1330037,0.258514386 18.0962664,0.273047563 L17.9730751,0.566647093 C17.852817,1.01879037 17.3688514,0.860246624 17.0462077,0.810334703 C16.418519,0.728126835 16.207334,0.810334703 16.207334,0.126247798 L16.0548115,0 L14.2949367,0 C14.1042836,0 14.1453473,0.231943629 14.1424142,0.358191427 C14.1424142,0.82501468 13.6320505,0.792718732 13.3064736,0.833822666 C12.6875843,0.916030534 12.4969312,1.04227833 12.3238768,0.390487375 L12.13909,0.284791544 L10.4525432,0.736934821 C10.2706895,0.786846741 10.3645495,0.992366412 10.399747,1.12155021 C10.5200051,1.57075749 10.0213739,1.67351732 9.71632892,1.79976512 L9.30862458,1.97592484 C8.94785024,2.14034058 8.77479588,1.82325308 8.66333714,1.6236054 L8.45508528,1.56782149 L6.93865978,2.44862008 C6.78027104,2.54550793 6.91519478,2.71579565 6.97972353,2.82442748 C7.22610601,3.23546682 6.77733792,3.45566647 6.50455732,3.66705813 C6.00005986,4.05460951 5.91793237,4.25425719 5.42810053,3.77568996 L5.20224993,3.77568996 L3.9674044,5.00587199 L3.9674044,5.22019965 L4.11406064,5.36993541 C4.43963749,5.69876688 4.06419752,6.03347035 3.85887879,6.29770992 C3.65356006,6.5619495 3.44237507,7.01702877 3.02880448,6.78214915 C2.92321199,6.72049325 2.73549201,6.56782149 2.64163201,6.73517322 L1.76169459,8.27069877 C1.68836647,8.41456254 1.89955145,8.50557839 1.99047832,8.5642983 C2.41284828,8.79917792 2.13126831,9.21902525 1.99047832,9.53611274 C1.84968833,9.85320023 1.76169459,10.3405755 1.3129265,10.2201996 L1.00201528,10.1820317 L0.931620282,10.2730476 L0.47991907,11.9641809 C0.465400102,12.0009542 0.465400102,12.0419113 0.47991907,12.0786847 L0.773231545,12.2019965 C1.22493276,12.3223723 1.06654402,12.8068115 1.0166809,13.129771 C0.934553407,13.758074 1.0166809,13.9694656 0.333262832,13.9694656 L0.183673469,14.1192014 L0.183673469,15.8807986 C0.183673469,16.0716383 0.415390325,16.0305344 0.54151469,16.0334703 C1.00788153,16.0334703 0.975617153,16.5443335 1.0166809,16.870229 C1.09880839,17.49266 1.22199963,17.6805637 0.573779062,17.8537874 L0.468186571,18.0387551 L0.919887783,19.7298884 C0.969750904,19.9119201 1.17506964,19.8179683 1.301194,19.7827363 C1.74996209,19.6623605 1.84968833,20.1556078 1.97874582,20.4668233 L2.17526518,20.8602466 C2.39231641,21.3417499 1.79689208,21.4474457 1.75289521,21.6001174 L1.75289521,21.7146213 L2.63283264,23.2325308 C2.72082638,23.3940106 2.90854637,23.2530828 3.00827261,23.1914269 C3.41891007,22.9448033 3.63889443,23.3940106 3.85007941,23.6670581 C4.24311813,24.1720493 4.43670436,24.2542572 3.95860503,24.7445684 L3.95860503,24.97064 L5.20224993,26.2066941 C5.33717366,26.3417499 5.47796365,26.1450382 5.5659574,26.0598943 C5.89446737,25.7310628 6.22591047,26.1098062 6.49282482,26.3153259 C6.75973917,26.5208456 7.20850726,26.7439812 6.9767904,27.1462126 C6.91519478,27.2519084 6.7626723,27.4398121 6.92986041,27.5337639 L8.46388465,28.4145625 C8.61054089,28.4879624 8.69853463,28.2765708 8.75719713,28.1855549 C8.99184711,27.7627716 9.41128395,28.0446271 9.72806142,28.1855549 C10.3146864,28.4263065 10.5346707,28.4116265 10.3586832,29.0663535 C10.3441643,29.1031268 10.3441643,29.144084 10.3586832,29.1808573 L10.4496101,29.2513212 L12.13909,29.7034645 C12.1758274,29.7179977 12.2167445,29.7179977 12.2534818,29.7034645 L12.3766731,29.4098649 C12.4969312,28.9577217 12.9808968,29.1162654 13.3035405,29.1661773 C13.9312292,29.2483852 14.1424142,29.1661773 14.1424142,29.8502642 L14.2920035,30 L16.0518784,30 C16.2425315,30 16.2014678,29.7709924 16.2044009,29.6418086 C16.2044009,29.1749853 16.7147646,29.2072813 17.0403414,29.1661773 C17.6621639,29.0839695 17.8498839,28.9577217 18.0229382,29.6095126 L18.2077251,29.7152085 L19.897205,29.2630652 C20.0790587,29.2131533 19.9851987,29.0076336 19.9500012,28.8813858 C19.8297431,28.4321785 20.322508,28.3323547 20.6334193,28.2031709 L21.049923,28.0240752 C21.5309554,27.8068115 21.6365479,28.4028186 21.7890704,28.4468585 L21.9034623,28.4468585 L23.4198878,27.5660599 C23.5812096,27.47798 23.4404197,27.2900763 23.378824,27.1902525 C23.1324416,26.7792132 23.5812096,26.5590135 23.8539902,26.3476218 C24.3584877,25.9541985 24.4406152,25.7604228 24.930447,26.23899 L25.1474983,26.23899 L26.3823438,24.97064 L26.3823438,24.7563124 C26.2180888,24.5918967 25.9511744,24.345273 26.2063563,24.0369935 L26.7460513,23.3352907 C27.0628287,22.8714034 27.4412018,23.3617146 27.6259887,23.3147387 C27.6652926,23.3043893 27.6989502,23.2791398 27.7198487,23.2442748 L28.5997861,21.7087493 C28.6731142,21.5648855 28.4619292,21.4738696 28.3710024,21.4151497 C27.9486324,21.1802701 28.2302124,20.7604228 28.3710024,20.4462713 C28.5939199,19.9119201 28.5997861,19.6212566 29.2509398,19.8150323 C29.2876772,19.8295655 29.3285943,19.8295655 29.3653317,19.8150323 L29.4357267,19.7240164 L29.8874279,18.0328831 C29.9019468,17.9961098 29.9019468,17.9551527 29.8874279,17.9183793 L29.5941154,17.7950675 C29.1424142,17.6746917 29.3008029,17.1902525 29.350666,16.867293 C29.4327935,16.23899 29.350666,16.0275984 30.0340841,16.0275984 L30.1836735,15.8778626 L30.1836735,14.1074574 C30.148476,13.9224897 29.9196922,13.9606577 29.7935679,13.9606577 Z M23.5694771,23.3940106 L23.5694771,23.3910746 C18.9421062,28.0418379 11.4243608,28.0571785 6.77814453,23.4252789 C2.13192826,18.7933793 2.11660268,11.2682766 6.74397363,6.61751321 C7.00795485,6.35217264 7.28440186,6.09945684 7.57221473,5.86024662 L7.61327848,5.82501468 C12.6663925,1.64166177 20.1507003,2.35070464 24.3299631,7.40876395 C28.235272,12.135276 27.9058821,19.0603347 23.5694771,23.3940106 Z" id="Shape"></path>
                <path d="M26.0479984,17.1162354 C26.1049967,16.8271886 26.1502709,16.5322429 26.1836735,16.2313983 L23.2578121,14.951334 L26.1748251,13.6742191 C26.1394316,13.3792734 26.0931989,13.0843277 26.0362006,12.789382 L22.1901086,14.4971176 L20.1844779,13.6122805 L21.4674917,11.8721008 L25.6586701,11.4031371 C25.5583886,11.1238973 25.4512496,10.8476807 25.3371793,10.5743397 L22.1635635,10.9282746 L24.051216,8.36519641 C23.8722577,8.12923984 23.6854834,7.90117308 23.4908192,7.68092238 L23.4908192,7.68092238 L20.998528,11.0610001 L18.8218287,11.3028556 L19.0636842,9.14975198 L22.4555598,6.65156187 C22.2333919,6.45490682 22.002302,6.26909103 21.7624374,6.09411449 L19.1905108,7.98766591 L19.5444457,4.81994905 C19.2730956,4.70396166 18.9968053,4.59873978 18.7156483,4.50435715 L18.2525835,8.68373777 L16.4829093,9.98149886 L15.6128195,7.99651428 L17.3087573,4.13272557 C17.0197105,4.07572731 16.7247648,4.03148545 16.4239202,4 L15.1438558,6.92586138 L13.8667409,4.00884837 C13.5717952,4.04424186 13.2768495,4.09047459 12.9819038,4.14747285 L14.6837405,7.99356482 L13.7989034,9.9991956 L12.0587237,8.71618179 L11.5927095,4.52500335 C11.3115525,4.62528489 11.0343036,4.73242392 10.7609627,4.84649417 L11.1148975,8.02010993 L8.55181933,6.13245743 C8.31586277,6.30942486 8.0867637,6.49619922 7.86459585,6.69285427 L11.2476231,9.182196 L11.4894785,11.3588953 L9.3363749,11.1199893 L6.8381848,7.72811369 C6.64152975,7.95028154 6.45571396,8.1813715 6.28073742,8.42123609 L8.17428883,10.9931626 L5.00952144,10.6362783 C4.89353404,10.9076284 4.78831216,11.1839188 4.69392954,11.4650757 L8.87036069,11.93109 L10.1681218,13.7007642 L8.1831372,14.570854 L4.31934849,12.8749162 C4.26235024,13.163963 4.21707607,13.4589087 4.18367347,13.7597533 L7.10953484,15.0398177 L4.19252184,16.3169326 C4.22791532,16.6118783 4.27414806,16.906824 4.33114632,17.2017697 L8.18018775,15.499933 L10.1858185,16.3847701 L8.90280472,18.1249497 L4.71162628,18.5909639 C4.81190782,18.8721209 4.92007915,19.1493699 5.03606655,19.4227108 L8.20968232,19.068776 L6.32202982,21.6318541 C6.49899724,21.8678107 6.68577161,22.0969098 6.88242665,22.3190776 L9.37176839,18.9389999 L11.5484677,18.6971444 L11.3095617,20.850248 L7.91473661,23.3454887 C8.13690447,23.5421437 8.36799442,23.7279595 8.60785902,23.9029361 L11.1797855,22.0093846 L10.8229012,25.174152 C11.0942513,25.2901394 11.3705417,25.3953613 11.6516987,25.4897439 L12.1177129,21.3162622 L13.8873871,20.0185011 L14.7574769,22.0034857 L13.0615391,25.864325 C13.3505859,25.9213232 13.6455316,25.9665974 13.9463762,26 L15.2264406,23.0741386 L16.5035555,25.9911516 C16.7985012,25.9557581 17.0934469,25.9095254 17.3883926,25.8525271 L15.6865559,22.0034857 L16.571393,19.9978549 L18.3115727,21.2808687 L18.7805363,25.4720472 C19.0597762,25.3717657 19.3359928,25.2646266 19.6093337,25.1505564 L19.2553989,21.9769406 L21.8184771,23.8645931 C22.0544336,23.6876257 22.2835327,23.5008513 22.5057006,23.3041963 L19.1226733,20.8119051 L18.8808179,18.6352058 L21.0339215,18.8770613 L23.5321116,22.2689369 C23.7287666,22.046769 23.9145824,21.815679 24.089559,21.5758145 L22.1960076,19.0038879 L25.3637244,19.3578228 C25.4797118,19.0864727 25.5849337,18.8101823 25.6793163,18.5290253 L21.4999357,18.0659606 L20.2021746,16.2962864 L22.1871592,15.4261965 L26.0479984,17.1162354 Z M10.0294973,12.0490682 L11.5868106,12.2230862 L11.6752943,13.0223891 L10.9703741,13.3173348 L10.0294973,12.0490682 Z M11.6133557,15.8833624 L11.6693954,16.0839255 L11.5160237,16.0160879 L11.6133557,15.8833624 Z M11.4953775,14.0458507 L11.6487492,13.9780131 L11.595659,14.1815257 L11.4953775,14.0458507 Z M9.25084065,15.0280198 L10.6901757,14.4086339 L11.1679877,15.054565 L10.7108219,15.6739509 L9.25084065,15.0280198 Z M11.6457998,17.8182062 L10.0648908,17.9951736 L10.9939698,16.732806 L11.731334,17.0631452 L11.6457998,17.8182062 Z M18.1346052,9.85467221 L17.9605873,11.4119855 L17.1612844,11.5004692 L16.8663387,10.795549 L18.1346052,9.85467221 Z M17.8396595,12.2761764 L17.8219628,12.441346 L17.6715405,12.2938732 L17.8396595,12.2761764 Z M16.1230755,11.3087545 L16.190913,11.4621263 L15.9874005,11.4090361 L16.1230755,11.3087545 Z M15.1409063,9.06421772 L15.7750396,10.5035528 L15.1291085,10.9813648 L14.5097225,10.524199 L15.1409063,9.06421772 Z M14.1498888,11.3294007 L14.2826143,11.4267328 L14.0820513,11.4827725 L14.1498888,11.3294007 Z M13.4420191,10.8073468 L13.1205283,11.5447111 L12.3654673,11.4591768 L12.1884999,9.87826786 L13.4420191,10.8073468 Z M12.627969,12.3440139 L12.4804961,12.4944363 L12.4627994,12.3440139 L12.627969,12.3440139 Z M12.2356912,20.1541762 L12.4097091,18.5968629 L13.209012,18.5083791 L13.5039577,19.2132994 L12.2356912,20.1541762 Z M12.5306369,17.7208741 L12.5483336,17.5557045 L12.6987559,17.7031774 L12.5306369,17.7208741 Z M14.2472209,18.688296 L14.170535,18.5378737 L14.3740475,18.5909639 L14.2472209,18.688296 Z M15.2293901,20.9328328 L14.5952568,19.4934978 L15.2411879,19.0156857 L15.8605739,19.4728516 L15.2293901,20.9328328 Z M16.2204076,18.6676498 L16.0699853,18.5703177 L16.2705484,18.5142781 L16.2204076,18.6676498 Z M13.187186,16.9823301 C12.6626251,16.4551146 12.3673107,15.7422309 12.3654673,14.9985253 C12.3654673,13.4412857 13.6279086,12.1788443 15.1851482,12.1788443 C16.7423878,12.1788443 18.0048291,13.4412857 18.0048291,14.9985253 C18.0048291,15.7463601 17.7077451,16.4635206 17.1789812,16.9922845 C16.0738933,18.0919158 14.2867436,18.0874179 13.187186,16.9823301 Z M17.9045476,17.6530366 L17.739378,17.6530366 L17.8868508,17.5026143 L17.9045476,17.6530366 Z M16.9164795,19.1779059 L17.2497681,18.4552889 L18.0136775,18.5408232 L18.1906449,20.1217321 L16.9164795,19.1779059 Z M18.7244966,12.1788443 L20.3054056,12.0018769 L19.3763266,13.2701435 L18.6389624,12.9339053 L18.7244966,12.1788443 Z M18.7746374,15.8155249 L18.8749189,15.9511999 L18.7215472,16.0190374 L18.7746374,15.8155249 Z M18.700901,13.9131251 L18.8542727,13.9809626 L18.7569407,14.1136882 L18.700901,13.9131251 Z M20.3407991,17.9479823 L18.7834858,17.7739643 L18.6950021,16.9746615 L19.3999223,16.6797158 L20.3407991,17.9479823 Z M19.6801207,15.5884167 L19.2023087,14.9424856 L19.6594745,14.3230996 L21.1194557,14.9690307 L19.6801207,15.5884167 Z" id="Shape"></path>
            </g>
        </g>
    </g>
</svg>