<?xml version="1.0" encoding="UTF-8"?>
<svg width="30px" height="31px" viewBox="0 0 30 31" version="1.1" xmlns="http://www.w3.org/2000/svg" xmlns:xlink="http://www.w3.org/1999/xlink">
    <!-- Generator: Sketch 57.1 (83088) - https://sketch.com -->
    <title>abs braking</title>
    <desc>Created with Sketch.</desc>
    <g id="Page-1" stroke="none" stroke-width="1" fill="none" fill-rule="evenodd">
        <g id="Care-Detail" transform="translate(-1352.000000, -1596.000000)" fill="#868686" fill-rule="nonzero">
            <g id="abs-braking" transform="translate(1352.000000, 1596.000000)">
                <path d="M15.5,8.33333333 C11.916,8.33333333 9,11.2490833 9,14.8333333 C9,18.4175833 11.916,21.3333333 15.5,21.3333333 C19.084,21.3333333 22,18.4175833 22,14.8333333 C22,11.2490833 19.084,8.33333333 15.5,8.33333333 Z M15.5,20.3333333 C12.4673125,20.3333333 10,17.8660208 10,14.8333333 C10,11.8006458 12.4673125,9.33333333 15.5,9.33333333 C18.5326875,9.33333333 21,11.8006458 21,14.8333333 C21,17.8660208 18.5326875,20.3333333 15.5,20.3333333 Z" id="Shape"></path>
                <path d="M14.5,11.3333333 C13.1215625,11.3333333 12,12.4548958 12,13.8333333 C12,15.2117708 13.1215625,16.3333333 14.5,16.3333333 C15.8784375,16.3333333 17,15.2117708 17,13.8333333 C17,12.4548958 15.8784375,11.3333333 14.5,11.3333333 Z M14.5,15.3333333 C13.672875,15.3333333 13,14.6604583 13,13.8333333 C13,13.0062083 13.672875,12.3333333 14.5,12.3333333 C15.327125,12.3333333 16,13.0062083 16,13.8333333 C16,14.6604583 15.327125,15.3333333 14.5,15.3333333 Z" id="Shape"></path>
                <rect id="Rectangle" x="15" y="9.33333333" width="1" height="1"></rect>
                <rect id="Rectangle" x="18" y="12.3333333" width="1" height="1"></rect>
                <rect id="Rectangle" x="10" y="12.3333333" width="1" height="1"></rect>
                <rect id="Rectangle" x="11" y="17.3333333" width="1" height="1"></rect>
                <rect id="Rectangle" x="16" y="17.3333333" width="1" height="1"></rect>
                <path d="M13.8893537,22.2745098 C9.56416022,22.2745098 6.04580632,18.712098 6.04580632,14.3333333 C6.04580632,9.95456863 9.56416022,6.39215686 13.8893537,6.39215686 C14.2176715,6.39215686 14.5480809,6.4128701 14.87032,6.45370098 L15,5.40314951 C14.6348829,5.35682598 14.2611378,5.33333333 13.8893537,5.33333333 C8.98765949,5.33333333 5,9.37062745 5,14.3333333 C5,19.2960392 8.98765949,23.3333333 13.8893537,23.3333333 C14.2611378,23.3333333 14.6348829,23.3098407 15,23.2635172 L14.87032,22.2129657 C14.5480809,22.2538627 14.2176715,22.2745098 13.8893537,22.2745098 Z" id="Path"></path>
                <path d="M22.5520474,1.60431548 C22.3247198,1.45994048 22.0292457,1.51953869 21.8690948,1.74005208 L21.5160129,2.22761905 C21.3127371,2.11043155 21.1074569,1.9984003 20.8994612,1.89179315 C20.8613147,1.86889137 20.8208405,1.8521503 20.7812069,1.83286458 C18.8259698,0.853712798 16.6774784,0.333333333 14.4827586,0.333333333 C6.49681034,0.333333333 0,7.06217262 0,15.3333333 C0,23.604494 6.49681034,30.3333333 14.4827586,30.3333333 C19.884181,30.3333333 24.7405603,27.2904092 27.2656681,22.3716815 L27.7628017,22.6073289 C27.8325,22.6405432 27.9057543,22.6560119 27.9774569,22.6560119 C28.1694181,22.6560119 28.35375,22.5448512 28.4431681,22.3546726 C29.4761638,20.1552976 30,17.7929315 30,15.3333333 C30,9.68295387 27.215819,4.55054315 22.5520474,1.60431548 Z M20.2934483,2.77793155 C20.3057974,2.78409226 20.3181466,2.79018601 20.330431,2.79634673 C20.3714871,2.81529762 20.4122198,2.83585565 20.4481681,2.86619048 L20.8234267,3.1841369 L18.9340086,5.7934003 L18.0523707,4.8800744 C17.9038578,4.72572173 17.8952586,4.5463244 17.9033405,4.45317708 C17.9114224,4.3597619 17.9507974,4.18505208 18.1240733,4.06083333 L19.8263147,2.8400744 C19.9653879,2.74056548 20.1399569,2.72188244 20.2934483,2.77793155 Z M14.4827586,29.2619048 C7.06713362,29.2619048 1.03448276,23.0135342 1.03448276,15.3333333 C1.03448276,7.65313244 7.06713362,1.4047619 14.4827586,1.4047619 C16.0046767,1.4047619 17.5032543,1.67322173 18.9212069,2.18603423 L17.5351293,3.17985119 C17.1557974,3.45192708 16.9143103,3.8809003 16.872931,4.35668155 C16.8314871,4.83273065 16.9946767,5.29967262 17.3209914,5.63764137 L18.3071121,6.65918155 L18.1624784,6.85893601 C17.739181,7.44306548 17.7962716,8.27275298 18.2948276,8.78911458 L21.0365948,11.6290699 C21.3528233,11.9565923 21.8048922,12.1134896 22.246875,12.047061 C22.5150647,12.0072842 22.6317672,12.2178869 22.6600862,12.2837798 C22.6884052,12.3494048 22.7636638,12.5778199 22.5525,12.7598289 L22.1954095,13.0681994 C21.9069828,13.3177753 21.7271767,13.6682664 21.689806,14.0556548 L21.2670259,18.4355208 C21.2144612,18.9760565 21.459375,19.5037351 21.8917888,19.805744 C21.7253664,20.0661012 21.6352371,20.3709226 21.6352371,20.6902753 C21.6352371,21.1195164 21.796875,21.5231771 22.0898276,21.8265923 L23.5304095,23.3183557 C23.8344828,23.6332887 24.2295259,23.7925967 24.6265086,23.7925967 C24.8488578,23.7925967 25.0698491,23.7365476 25.2774569,23.6359673 C22.767931,27.1521949 18.8145259,29.2619048 14.4827586,29.2619048 Z M24.9619397,22.5911235 C24.7543319,22.7718601 24.4538147,22.7590699 24.2618534,22.5610565 L22.8212716,21.0690253 C22.7232543,20.9680432 22.6697198,20.8335789 22.6697198,20.6905432 C22.6697198,20.5475074 22.7232543,20.4129762 22.8212716,20.3117932 L22.8520474,20.2799182 L25.9326724,21.7400074 L24.9619397,22.5911235 Z M27.7259483,21.4116815 L22.4651509,18.9183333 C22.347931,18.8354315 22.2817888,18.6907887 22.2964655,18.5429985 L22.7192457,14.1625967 C22.7293319,14.0561235 22.7788578,13.9598958 22.858125,13.8913244 L23.2147629,13.5829539 C23.7102802,13.1557887 23.8673922,12.4586905 23.6052155,11.8487128 C23.343556,11.2387351 22.7434914,10.8926637 22.1004957,10.9868155 C21.9792672,11.0043601 21.8555172,10.9617039 21.7686207,10.8719717 L19.0263362,8.03174851 C18.8894612,7.88998512 18.8738147,7.66237351 18.9899353,7.50206101 L22.4100647,2.77873512 C22.7006897,2.97554315 22.9806466,3.18400298 23.2543319,3.39895833 L20.814375,6.76860119 C20.3537069,7.40449405 20.4153233,8.30770833 20.9583621,8.8693378 L21.5099353,9.44087798 C21.8544181,9.79639137 22.3459267,9.96822173 22.8267672,9.8949628 L23.8107543,9.74951637 C24.8028233,9.6043378 25.7796983,10.2017932 26.1312931,11.1740476 C26.5045474,12.2041592 26.1060129,13.3477753 25.1837069,13.8936682 L24.0578017,14.5598958 C23.5754095,14.8452307 23.2758621,15.3798735 23.2758621,15.9550967 L23.2758621,16.7508333 C23.2758621,17.4115699 23.65875,17.9975074 24.25125,18.2431324 L28.2782974,19.9114137 C28.1207328,20.4191369 27.9372414,20.9196949 27.7259483,21.4116815 Z M28.8834698,16.9404762 C28.8167457,17.5943155 28.7050216,18.2381101 28.5565733,18.8725967 L24.635625,17.248378 C24.4381034,17.1664807 24.3103448,16.9710789 24.3103448,16.7508333 L24.3103448,15.9550967 C24.3103448,15.763378 24.4103664,15.585253 24.5709698,15.4900298 L25.696875,14.8238021 C27.0621983,14.015811 27.6521767,12.3225521 27.1000862,10.7978423 C26.5787716,9.35837798 25.1326293,8.4697619 23.6642457,8.68900298 L22.6802586,8.8344494 C22.5191379,8.85641369 22.3559483,8.80177083 22.2413147,8.68297619 L21.6897414,8.11143601 C21.5089009,7.92440476 21.4882112,7.62333333 21.6417672,7.41145833 L24.0552155,4.07844494 C24.419806,4.40938244 24.7682328,4.75525298 25.0959698,5.11853423 L22.4271983,7.42190476 L23.0899138,8.24482887 L25.7762069,5.92625744 C27.819569,8.54563244 28.9655172,11.8326414 28.9655172,15.3333333 C28.9655172,15.5127307 28.9582759,15.6907887 28.9523276,15.8690476 L25.3448276,15.8690476 L25.3448276,16.9404762 L28.8834698,16.9404762 Z" id="Shape"></path>
                <path d="M21.1430204,19.3333333 C20.526495,19.8427791 19.8051324,20.273172 19,20.6124382 L19.5724624,21.3333333 C20.4846458,20.9486859 21.3014902,20.4612022 22,19.8842571 L21.1430204,19.3333333 Z" id="Path"></path>
            </g>
        </g>
    </g>
</svg>