<?xml version="1.0" encoding="UTF-8"?>
<svg width="26px" height="33px" viewBox="0 0 26 33" version="1.1" xmlns="http://www.w3.org/2000/svg" xmlns:xlink="http://www.w3.org/1999/xlink">
    <!-- Generator: Sketch 57.1 (83088) - https://sketch.com -->
    <title>automatic-transmission</title>
    <desc>Created with Sketch.</desc>
    <g id="Page-1" stroke="none" stroke-width="1" fill="none" fill-rule="evenodd">
        <g id="Care-Detail" transform="translate(-371.000000, -1530.000000)" fill="#868686" fill-rule="nonzero">
            <g id="automatic-transmission" transform="translate(371.000000, 1530.000000)">
                <path d="M24.44,13.5393548 L14.56,13.5393548 L14.56,12.5070968 L15.3742774,12.5070968 L17.9493945,8.24701613 C18.4531445,7.41334677 18.72,6.45845768 18.72,5.48617942 C18.72,2.52725806 16.2946875,0.12 13.3135742,0.12 L12.6869336,0.12 C9.7053125,0.12 7.28,2.52725806 7.28,5.48617942 C7.28,6.45845768 7.54685549,7.41334677 8.05009764,8.24752013 L10.6257226,12.5070968 L11.44,12.5070968 L11.44,13.5393548 L1.56,13.5393548 C0.700019515,13.5393548 0,14.2341633 0,15.0877419 L0,30.5716129 C0,31.4251915 0.700019515,32.12 1.56,32.12 L24.44,32.12 C25.2999805,32.12 26,31.4251915 26,30.5716129 L26,15.0877419 C26,14.2341633 25.2999805,13.5393548 24.44,13.5393548 Z M15.6,31.0877419 L13.52,31.0877419 L13.52,25.9264516 L16.64,25.9264516 L16.64,22.8296774 L18.72,22.8296774 L18.72,18.7006452 L14.56,18.7006452 L14.56,16.636129 L22.88,16.636129 L22.88,21.7974194 L20.8,21.7974194 L20.8,24.8941935 L18.72,24.8941935 L18.72,27.9909677 L15.6,27.9909677 L15.6,31.0877419 Z M17.68,5.48617942 C17.68,5.83244961 17.6309961,6.17418348 17.5494922,6.50760077 C15.768086,5.82262097 14.56,4.11117942 14.56,2.18451613 L14.56,1.33446574 C16.3617188,1.86873994 17.68,3.526502 17.68,5.48617942 Z M11.44,1.33446574 L11.44,2.18451613 C11.44,4.11117942 10.231914,5.82262097 8.45050778,6.50760077 C8.36900389,6.17418348 8.32,5.83244961 8.32,5.48617942 C8.32,3.526502 9.63828125,1.86873994 11.44,1.33446574 Z M8.94181639,7.71627019 C8.89458986,7.63789316 8.85929688,7.55422381 8.81714847,7.47383065 C10.9999805,6.63764116 12.48,4.5431351 12.48,2.18451613 L12.48,1.16259071 C12.5490625,1.15956652 12.6168555,1.15225806 12.6864258,1.15225806 L13.3130664,1.15225806 C13.3831445,1.15225806 13.4509375,1.15956652 13.52,1.16259071 L13.52,2.18451613 C13.52,4.5431351 15.0000195,6.63764116 17.1828515,7.47332658 C17.1407031,7.55371974 17.1054101,7.6373891 17.0581836,7.71576613 L14.7857226,11.4748387 L11.2147851,11.4748387 L8.94181639,7.71627019 Z M13.52,12.5070968 L13.52,18.7006452 L12.48,18.7006452 L12.48,12.5070968 L13.52,12.5070968 Z M11.44,18.7006452 L9.36,18.7006452 L9.36,16.636129 L11.44,16.636129 L11.44,18.7006452 Z M1.04,30.5716129 L1.04,15.0877419 C1.04,14.8034677 1.27308597,14.5716129 1.56,14.5716129 L11.44,14.5716129 L11.44,15.603871 L8.32,15.603871 L8.32,19.7329032 L17.68,19.7329032 L17.68,21.7974194 L15.6,21.7974194 L15.6,24.8941935 L12.48,24.8941935 L12.48,31.0877419 L1.56,31.0877419 C1.27308597,31.0877419 1.04,30.8563911 1.04,30.5716129 Z M24.96,30.5716129 C24.96,30.8563911 24.726914,31.0877419 24.44,31.0877419 L16.64,31.0877419 L16.64,29.0232258 L19.76,29.0232258 L19.76,25.9264516 L21.84,25.9264516 L21.84,22.8296774 L23.92,22.8296774 L23.92,15.603871 L14.56,15.603871 L14.56,14.5716129 L24.44,14.5716129 C24.726914,14.5716129 24.96,14.8034677 24.96,15.0877419 L24.96,30.5716129 Z" id="Shape"></path>
                <path d="M2,20.12 L7,20.12 L7,16.12 L2,16.12 L2,20.12 Z M3,17.12 L6,17.12 L6,19.12 L3,19.12 L3,17.12 Z" id="Shape"></path>
                <path d="M2,30.12 L6,30.12 L6,21.12 L2,21.12 L2,30.12 Z M3,29.12 L3,28.12 L5,28.12 L5,29.12 L3,29.12 Z M5,26.12 L5,27.12 L3,27.12 L3,26.12 L5,26.12 Z M3,25.12 L3,24.12 L5,24.12 L5,25.12 L3,25.12 Z M5,22.12 L5,23.12 L3,23.12 L3,22.12 L5,22.12 Z" id="Shape"></path>
            </g>
        </g>
    </g>
</svg>