<?xml version="1.0" encoding="UTF-8"?>
<svg width="35px" height="33px" viewBox="0 0 35 33" version="1.1" xmlns="http://www.w3.org/2000/svg" xmlns:xlink="http://www.w3.org/1999/xlink">
    <!-- Generator: Sketch 57.1 (83088) - https://sketch.com -->
    <title>EV / Hybird</title>
    <desc>Created with Sketch.</desc>
    <g id="Page-1" stroke="none" stroke-width="1" fill="none" fill-rule="evenodd">
        <g id="Care-Detail" transform="translate(-1150.000000, -1529.000000)" fill="#868686" fill-rule="nonzero">
            <g id="EV-/-Hybird" transform="translate(1150.000000, 1529.000000)">
                <path d="M5.23023969,23 L4.74034855,23 C3.49491638,23 2.48529412,23.8954305 2.48529412,25 C2.48529412,26.1045695 3.49491638,27 4.74034855,27 L5.23023969,27 C6.47567186,27 7.48529412,26.1045695 7.48529412,25 C7.48529412,23.8954305 6.47567186,23 5.23023969,23 Z M5.23023969,25.8965517 L4.74034855,25.8965517 C4.18205137,25.8965517 3.72946208,25.4951518 3.72946208,25 C3.72946208,24.5048482 4.18205137,24.1034483 4.74034855,24.1034483 L5.23023969,24.1034483 C5.78853687,24.1034483 6.24112615,24.5048482 6.24112615,25 C6.24112615,25.4951518 5.78853687,25.8965517 5.23023969,25.8965517 Z" id="Shape"></path>
                <path d="M22.2302397,23 L21.7403485,23 C20.4949164,23 19.4852941,23.8954305 19.4852941,25 C19.4852941,26.1045695 20.4949164,27 21.7403485,27 L22.2302397,27 C23.4756719,27 24.4852941,26.1045695 24.4852941,25 C24.4852941,23.8954305 23.4756719,23 22.2302397,23 Z M22.2302397,25.8965517 L21.7403485,25.8965517 C21.1820514,25.8965517 20.7294621,25.4951518 20.7294621,25 C20.7294621,24.5048482 21.1820514,24.1034483 21.7403485,24.1034483 L22.2302397,24.1034483 C22.7885369,24.1034483 23.2411262,24.5048482 23.2411262,25 C23.2411262,25.4951518 22.7885369,25.8965517 22.2302397,25.8965517 L22.2302397,25.8965517 Z" id="Shape"></path>
                <path d="M17.4852941,23.5614035 C17.4852941,23.2513489 17.2314713,23 16.918365,23 L9.05222325,23 C8.73911694,23 8.48529412,23.2513489 8.48529412,23.5614035 L8.48529412,26.4385965 C8.48529412,26.7486511 8.73911694,27 9.05222325,27 L16.918365,27 C17.2314713,27 17.4852941,26.7486511 17.4852941,26.4385965 L17.4852941,23.5614035 Z M16.3514358,25.877193 L9.61915239,25.877193 L9.61915239,24.122807 L16.3514358,24.122807 L16.3514358,25.877193 Z" id="Shape"></path>
                <path d="M33.9233106,2.01898734 C34.2336855,2.01898734 34.4852941,1.76962695 34.4852941,1.46202532 C34.4852941,1.15442368 34.2336855,0.905063291 33.9233106,0.905063291 L32.3778561,0.905063291 L32.3778561,0.583208861 C32.3778561,0.275626582 32.1530627,0 31.8422859,0 L29.1026164,0 C27.8990586,0 26.9011164,0.905063291 26.738071,2.08860759 L7.6938561,2.08860759 C5.4630365,2.08860759 3.6545999,3.88088542 3.6545999,6.09177215 C3.6545999,8.30265889 5.4630365,10.0949367 7.6938561,10.0949367 L29.2950958,10.0949367 C30.0737591,10.0900416 30.8222237,10.3931894 31.3745511,10.9371705 C31.9268785,11.4811517 32.237432,12.2210192 32.2373602,12.9927405 L32.2373602,21.4864114 C32.2373602,23.0986772 30.9225999,24.4367089 29.295728,24.4367089 L27.179509,24.4367089 L27.179509,22.468962 C27.1749363,21.5819466 26.8064288,20.7349479 26.1587363,20.1227595 L25.5751164,19.5088481 L23.5309016,14.0548671 C23.1822408,13.1374043 22.2959971,12.5304472 21.3067817,12.5316456 L6.71200073,12.5316456 C5.72333317,12.5306533 4.83783921,13.137813 4.49019908,14.0550759 L2.47331065,19.4449367 L1.6349718,20.2114557 C0.90640718,20.8259573 0.486214649,21.7260599 0.485294118,22.6742025 L0.485294118,32.4167911 C0.48736992,32.731264 0.738961805,32.9883414 1.05605858,33 L6.17713296,33 C6.48748833,33 6.73736023,32.7243734 6.73736023,32.4167911 L6.73736023,29.4493671 L20.9274429,29.4493671 L20.9274429,32.4167911 C20.9274429,32.7243734 21.169728,33 21.4801536,33 L26.601228,33 C26.9198241,32.9889747 27.1739484,32.7326849 27.179509,32.4167911 L27.179509,25.5506329 L29.295728,25.5506329 C31.5423272,25.5506329 33.3613272,23.7126582 33.3613272,21.4864114 L33.3613272,12.9927405 C33.3610561,11.9258032 32.9320633,10.9028991 32.1691636,10.1501083 C31.406264,9.39731754 30.3722756,8.97662552 29.295728,8.98101266 L7.69448833,8.98101266 C6.08441853,8.98101266 4.77919908,7.68745562 4.77919908,6.09177215 C4.77919908,4.49608868 6.08441853,3.20253165 7.69448833,3.20253165 L26.7387032,3.20253165 C26.9205816,4.35918173 27.9221057,5.21434159 29.1032487,5.22151899 L31.8429181,5.22151899 C32.1530627,5.22151899 32.3778561,4.96294937 32.3778561,4.65536709 L32.3778561,4.3164557 L33.9233106,4.3164557 C34.2336855,4.3164557 34.4852941,4.0670953 34.4852941,3.75949367 C34.4852941,3.45189204 34.2336855,3.20253165 33.9233106,3.20253165 L32.3778561,3.20253165 L32.3778561,2.01898734 L33.9233106,2.01898734 Z M5.54412883,14.449057 C5.72655604,13.9662933 6.19184547,13.6461775 6.71200073,13.6455696 L21.3067817,13.6455696 C21.826937,13.6461775 22.2922264,13.9662933 22.4746536,14.449057 L24.2571949,19.2151899 L3.76144701,19.2151899 L5.54412883,14.449057 Z M5.61339329,31.8860759 L1.60926106,31.8860759 L1.60926106,29.4493671 L5.61339329,29.4493671 L5.61339329,31.8860759 Z M22.0514098,31.8860759 L22.0514098,29.4493671 L26.0555421,29.4493671 L26.0555421,31.8860759 L22.0514098,31.8860759 Z M26.0555421,28.335443 L1.60926106,28.335443 L1.60926106,22.6742025 C1.61039738,22.0479701 1.88949224,21.4539512 2.37236437,21.0500316 C2.37889742,21.0445316 2.38739742,21.0458544 2.39343875,21.0401456 L3.17480651,20.3291139 L24.7929057,20.3291139 L25.3412611,20.9029241 C25.3491288,20.9113481 25.3654966,20.9160127 25.3738561,20.9238101 C25.804924,21.3246113 26.0512311,21.8831115 26.0552611,22.4688924 L26.0552611,28.335443 L26.0555421,28.335443 Z M27.8117404,2.84524051 L27.8117404,2.39333544 C27.8229581,1.69131159 28.3945425,1.12492695 29.1028974,1.11392405 L29.8489305,1.11392405 L29.8489305,4.10759494 L29.1028974,4.10759494 C28.3978283,4.10460281 27.8243368,3.54390459 27.8117404,2.84524051 Z M31.2538892,4.10759494 L30.9728974,4.10759494 L30.9728974,1.11392405 L31.2538892,1.11392405 L31.2538892,4.10759494 Z" id="Shape"></path>
            </g>
        </g>
    </g>
</svg>