<?xml version="1.0" encoding="UTF-8"?>
<svg width="24px" height="32px" viewBox="0 0 24 32" version="1.1" xmlns="http://www.w3.org/2000/svg" xmlns:xlink="http://www.w3.org/1999/xlink">
    <!-- Generator: Sketch 57.1 (83088) - https://sketch.com -->
    <title>Fuel type</title>
    <desc>Created with Sketch.</desc>
    <g id="Page-1" stroke="none" stroke-width="1" fill="none" fill-rule="evenodd">
        <g id="Care-Detail" transform="translate(-1201.000000, -1720.000000)" fill="#868686" fill-rule="nonzero">
            <g id="Fuel-type" transform="translate(1201.000000, 1720.000000)">
                <path d="M1.54545455,30.4 C1.54545455,31.2836556 2.24755346,32 3.11363636,32 L21.9318182,32 C22.7979011,32 23.5,31.2836556 23.5,30.4 L23.5,12.2666667 C23.4968318,9.61703997 21.3923898,7.46989918 18.7954545,7.46666667 L10.8087045,7.46666667 L10.1113864,5.33333333 L10.9545455,5.33333333 L10.9545455,1.6 C10.9545455,0.7163444 10.2524465,0 9.38636364,0 L2.06818182,0 C1.20209892,0 0.5,0.7163444 0.5,1.6 L0.5,5.33333333 L1.54545455,5.33333333 L1.54545455,30.4 Z M10.0549318,8.53333333 L18.7954545,8.53333333 C20.8153593,8.53568461 22.4522409,10.2057783 22.4545455,12.2666667 L22.4545455,30.4 C22.4545455,30.6945519 22.2205125,30.9333333 21.9318182,30.9333333 L3.11363636,30.9333333 C2.82494206,30.9333333 2.59090909,30.6945519 2.59090909,30.4 L2.59090909,13.8666667 L6.77272727,13.8666667 L6.77272727,12.8 L2.59090909,12.8 L2.59090909,11.7333333 L6.77272727,11.7333333 L6.77272727,10.6666667 L2.59090909,10.6666667 L2.59090909,9.6 L6.77272727,9.6 L6.77272727,8.53333333 L2.59090909,8.53333333 L2.59090909,5.33333333 L9.00947727,5.33333333 L10.0549318,8.53333333 Z M1.54545455,1.6 C1.54545455,1.30544813 1.77948752,1.06666667 2.06818182,1.06666667 L3.11363636,1.06666667 L3.11363636,3.2 L4.15909091,3.2 L4.15909091,1.06666667 L5.20454545,1.06666667 L5.20454545,3.2 L6.25,3.2 L6.25,1.06666667 L7.29545455,1.06666667 L7.29545455,3.2 L8.34090909,3.2 L8.34090909,1.06666667 L9.38636364,1.06666667 C9.67505794,1.06666667 9.90909091,1.30544813 9.90909091,1.6 L9.90909091,4.26666667 L1.54545455,4.26666667 L1.54545455,1.6 Z" id="Shape"></path>
                <path d="M12.0555556,14 L17.0555556,14 L17.0555556,21.5 C17.0555556,21.7761424 17.3042863,22 17.6111111,22 L20.9444444,22 C21.2512693,22 21.5,21.7761424 21.5,21.5 L21.5,12.5 C21.4981633,11.1199734 20.2555851,10.0016531 18.7222222,10 L12.0555556,10 C11.7487307,10 11.5,10.2238576 11.5,10.5 L11.5,13.5 C11.5,13.7761424 11.7487307,14 12.0555556,14 Z M12.6111111,11 L18.7222222,11 C19.6426968,11 20.3888889,11.6715729 20.3888889,12.5 L20.3888889,21 L18.1666667,21 L18.1666667,13.5 C18.1666667,13.2238576 17.917936,13 17.6111111,13 L12.6111111,13 L12.6111111,11 Z" id="Shape"></path>
                <path d="M15,15 L4,15 C3.72385763,15 3.5,15.2398475 3.5,15.5357143 L3.5,29.4642857 C3.5,29.7601525 3.72385763,30 4,30 L15,30 C15.2761424,30 15.5,29.7601525 15.5,29.4642857 L15.5,15.5357143 C15.5,15.2398475 15.2761424,15 15,15 Z M14.5,22.5 L14.5,28.9285714 L4.5,28.9285714 L4.5,16.0714286 L14.5,16.0714286 L14.5,22.5 Z" id="Shape"></path>
                <path d="M10,17 C6.96243388,17 4.5,19.4624339 4.5,22.5 C4.5,25.5375661 6.96243388,28 10,28 C13.0375661,28 15.5,25.5375661 15.5,22.5 C15.4966657,19.4638161 13.0361839,17.0033343 10,17 Z M10,26.9 C7.5699471,26.9 5.6,24.9300529 5.6,22.5 C5.6,20.0699471 7.5699471,18.1 10,18.1 C12.4300529,18.1 14.4,20.0699471 14.4,22.5 C14.3972721,24.9289221 12.4289221,26.8972721 10,26.9 Z" id="Shape"></path>
                <path d="M9.0885,19.2216915 C8.823,19.641614 7.5,21.788249 7.5,22.8129037 C7.5,24.0208036 8.3954305,25 9.5,25 C10.6045695,25 11.5,24.0208036 11.5,22.8129037 C11.5,21.788249 10.177,19.641614 9.9115,19.2216915 C9.81326194,19.0819179 9.6612073,19 9.5,19 C9.3387927,19 9.18673806,19.0819179 9.0885,19.2216915 Z M9.5,23.9064518 C8.94771525,23.9064518 8.5,23.4168536 8.5,22.8129037 C8.5,22.4509392 8.9665,21.4601846 9.5,20.5279348 C10.0335,21.4574507 10.5,22.4503925 10.5,22.8129037 C10.5,23.4168536 10.0522847,23.9064518 9.5,23.9064518 Z" id="Shape"></path>
                <polygon id="Path" points="17.5 29 18.5 29 18.5 30 17.5 30"></polygon>
                <path d="M20.5,28.8571429 L19.5,28.8571429 L19.5,30 L21,30 C21.2761424,30 21.5,29.7441627 21.5,29.4285714 L21.5,26 L20.5,26 L20.5,28.8571429 Z" id="Path"></path>
                <path d="M8.75834543,11 L10.5,11 L10.5,9.92574191 L9.11712627,9.92574191 L7.53918723,7 L6.5,7.48019337 L8.24165457,10.7029676 C8.33954533,10.884219 8.53934765,10.9990803 8.75834543,11 Z" id="Path"></path>
            </g>
        </g>
    </g>
</svg>