<?xml version="1.0" encoding="UTF-8"?>
<svg width="31px" height="32px" viewBox="0 0 31 32" version="1.1" xmlns="http://www.w3.org/2000/svg" xmlns:xlink="http://www.w3.org/1999/xlink">
    <!-- Generator: Sketch 57.1 (83088) - https://sketch.com -->
    <title>satellite</title>
    <desc>Created with Sketch.</desc>
    <g id="Page-1" stroke="none" stroke-width="1" fill="none" fill-rule="evenodd">
        <g id="Care-Detail" transform="translate(-680.000000, -1530.000000)" fill="#868686" fill-rule="nonzero">
            <g id="satellite" transform="translate(680.000000, 1530.000000)">
                <path d="M30.5543136,3.09533302 L28.4038808,0.944611863 C27.8093435,0.351796046 26.8474902,0.351796046 26.2532004,0.944611863 L19.0843486,8.11335222 C18.4903064,8.7074057 18.4903064,9.67051491 19.0843486,10.2643209 L19.8011595,10.9811454 L19.0843486,11.698465 L14.2250833,6.8386125 C12.0474235,4.66091144 8.51683266,4.66115894 6.33917296,6.83886001 C4.16151319,9.01656101 4.16176075,12.5472188 6.33942046,14.7246723 L11.1986857,19.5842773 L10.4813797,20.3008543 L9.76456881,19.5842773 C9.17077416,18.9904714 8.20817822,18.9904714 7.61438357,19.5842773 L0.445531658,26.7530176 C-0.148510553,27.3470711 -0.148510553,28.3101803 0.445531658,28.9039863 L2.59596446,31.0544599 C3.18975917,31.6485134 4.15285006,31.6485134 4.74664477,31.0544599 L11.9154967,23.885472 C12.5080538,23.2909235 12.5080538,22.3290519 11.9154967,21.7345034 L11.1986857,21.0176788 L11.9154967,20.3008543 L14.0659295,22.4513279 C14.6597242,23.0453814 15.6228151,23.0453814 16.2166098,22.4513279 L18.7259431,19.942442 L19.4791391,20.6958999 C18.6212432,21.9028185 18.7571303,23.5520595 19.8011595,24.6022966 C19.9989261,24.8000669 20.3199564,24.8000669 20.5179705,24.6022966 L24.1022726,21.0176788 C24.3000392,20.8199086 24.3000392,20.4988721 24.1022726,20.3008543 C23.0520555,19.2565578 21.4025983,19.1204206 20.195455,19.9785803 L19.4427541,19.2258651 L21.9518398,16.7164842 C22.5456345,16.1226782 22.5456345,15.1600641 21.9518398,14.5660106 L19.8011595,12.4152895 L20.5179705,11.6979699 L21.2350289,12.4147945 C21.8290711,13.0083529 22.791667,13.0083529 23.3854617,12.4147945 L30.5548086,5.24630162 C31.1486033,4.65224814 31.1483558,3.68913892 30.5543136,3.09533302 L30.5543136,3.09533302 Z M11.1986857,23.1696376 L4.03255654,30.3376354 C3.83157226,30.5289701 3.51598732,30.5289701 3.31525054,30.3376354 L1.16234259,28.1871618 C0.964823526,27.9893915 0.964823526,27.6688501 1.16234259,27.4708323 L8.3311945,20.3008543 C8.52896101,20.1030841 8.84999137,20.1030841 9.04775787,20.3008543 L11.1981907,22.4513279 C11.293485,22.5463764 11.3469488,22.6753356 11.3471963,22.8099877 C11.3471963,22.9443923 11.2937325,23.0735989 11.1986857,23.1686475 L11.1986857,23.1696376 Z M21.9518398,20.4251101 C22.3139581,20.424863 22.6693933,20.5213967 22.981513,20.7050582 L20.2031281,23.4815157 C19.8340793,22.8545417 19.829129,22.0780644 20.1902572,21.4463875 C20.5513853,20.8149581 21.2229005,20.4251101 21.9503547,20.4251101 L21.9518398,20.4251101 Z M21.2350289,15.9996596 L15.4993038,21.7345034 C15.2993096,21.9265807 14.9832297,21.9265807 14.7832355,21.7345034 L7.05623139,14.0080954 C5.27435226,12.2261825 5.27435226,9.33734989 7.05598389,7.55568454 C8.83761546,5.77377161 11.7263932,5.77352411 13.5082724,7.55543703 L21.2345339,15.2828351 C21.4327955,15.4806054 21.4327955,15.8016418 21.2350289,15.9996596 Z M29.8375027,4.53195234 L22.6686508,11.6979699 C22.4706367,11.8957402 22.1498539,11.8957402 21.9518398,11.6979699 L19.8011595,9.54749636 C19.6036405,9.34972604 19.6036405,9.02918467 19.8011595,8.83116684 L26.9700114,1.66193147 C27.0650581,1.56663541 27.1940148,1.51317059 27.3284168,1.51317059 C27.4630664,1.51317059 27.5920231,1.56663541 27.6870699,1.66193147 L29.8375027,3.81215755 C29.9335395,3.90745361 29.9874983,4.03690778 29.9874983,4.17205491 C29.9874983,4.30720211 29.9335395,4.43690379 29.8375027,4.53195234 Z" id="Shape"></path>
                <path d="M9.5,6.5 C7.5668945,6.5 6,8.06713869 6,10 C6,11.9331055 7.5668945,13.5 9.5,13.5 C11.4328613,13.5 13,11.9331055 13,10 C12.9978028,8.06811525 11.4321289,6.50244144 9.5,6.5 Z M9.5,12.5 C8.11914062,12.5 7,11.3808594 7,10 C7,8.61938481 8.11914062,7.5 9.5,7.5 C10.8806153,7.5 12,8.61938481 12,10 C11.998291,11.380127 10.8798828,12.4985352 9.5,12.5 Z" id="Shape"></path>
                <path d="M21.6614249,24.1458826 L21,24.8074104 C21.5899381,25.402694 22.4530337,25.6368328 23.2629137,25.4211967 C24.0725654,25.205789 24.7052129,24.5732716 24.9210439,23.7632656 C25.1368749,22.953488 24.9030009,22.0900297 24.3078098,21.5 L23.6466133,22.1615278 C24.1945271,22.7097552 24.1942987,23.5983405 23.6461565,24.1463395 C23.0977859,24.6943385 22.2093388,24.69411 21.6614249,24.1458826 L21.6614249,24.1458826 Z" id="Path"></path>
                <path d="M20,26.1274491 C21.8300679,27.957517 24.7973812,27.957517 26.6274491,26.1274491 C28.457517,24.2973813 28.457517,21.3300679 26.6274491,19.5 L25.8911506,20.2362985 C27.314678,21.6598259 27.314678,23.9676233 25.8911506,25.3911506 C24.4678775,26.814678 22.1598258,26.814678 20.7362985,25.3911506 L20,26.1274491 Z" id="Path"></path>
                <path d="M27.4436755,19.2035913 C28.8418845,20.5830773 29.3936364,22.6061452 28.8895038,24.5043354 C28.3853711,26.4027685 26.9026136,27.8855094 25.0044023,28.3896365 C23.105948,28.8937636 21.0831005,28.3420178 19.7033561,26.9438244 L19,27.6474157 C21.5325682,30.1337946 25.595756,30.1150872 28.1054863,27.6053849 C30.6152167,25.0959255 30.6336813,21.0327829 28.1472747,18.5 L27.4436755,19.2035913 Z" id="Path"></path>
            </g>
        </g>
    </g>
</svg>