<?xml version="1.0" encoding="UTF-8"?>
<svg width="27px" height="31px" viewBox="0 0 27 31" version="1.1" xmlns="http://www.w3.org/2000/svg" xmlns:xlink="http://www.w3.org/1999/xlink">
    <!-- Generator: Sketch 57.1 (83088) - https://sketch.com -->
    <title>engineering</title>
    <desc>Created with Sketch.</desc>
    <g id="Page-1" stroke="none" stroke-width="1" fill="none" fill-rule="evenodd">
        <g id="Care-Detail" transform="translate(-1150.000000, -1596.000000)" fill="#868686" fill-rule="nonzero">
            <g id="engineering" transform="translate(1150.000000, 1596.000000)">
                <path d="M15.0333333,20 L11.8333333,20 C11.5387815,20 11.3,19.7612185 11.3,19.4666667 L11.3,17.4650667 C11.2232,17.4346667 11.1490667,17.4037333 11.0765333,17.3722667 L9.66106667,18.7877333 C9.56107054,18.8877597 9.42543723,18.9439698 9.284,18.944 L9.284,18.944 C9.14256277,18.9439698 9.00692946,18.8877597 8.90693333,18.7877333 L6.6456,16.5264 C6.4373963,16.3181334 6.4373963,15.9805333 6.6456,15.7722667 L8.06106667,14.3562667 C8.02906667,14.2842667 7.99866667,14.2101333 7.96826667,14.1333333 L5.96666667,14.1333333 C5.6721148,14.1333333 5.43333333,13.8945519 5.43333333,13.6 L5.43333333,10.4 C5.43333333,10.1054481 5.6721148,9.86666667 5.96666667,9.86666667 L7.96826667,9.86666667 C7.99866667,9.78986667 8.02906667,9.71573333 8.06106667,9.6432 L6.6456,8.22773333 C6.4373963,8.01946675 6.4373963,7.68186659 6.6456,7.4736 L8.90693333,5.21226667 C9.11850423,5.01220101 9.44949577,5.01220101 9.66106667,5.21226667 L11.0765333,6.62773333 C11.1490667,6.59626667 11.2232,6.56533333 11.3,6.53493333 L11.3,4.53333333 C11.3,4.23878147 11.5387815,4 11.8333333,4 L15.0333333,4 C15.3278852,4 15.5666667,4.23878147 15.5666667,4.53333333 L15.5666667,6.53493333 C15.6434667,6.56533333 15.7176,6.59626667 15.7901333,6.62773333 L17.2056,5.21226667 C17.3055961,5.11224033 17.4412294,5.05603021 17.5826667,5.056 L17.5826667,5.056 C17.7241039,5.05603021 17.8597372,5.11224033 17.9597333,5.21226667 L20.2210667,7.4736 C20.4292704,7.68186659 20.4292704,8.01946675 20.2210667,8.22773333 L18.8056,9.6432 C18.8376,9.71573333 18.868,9.78986667 18.8984,9.86666667 L20.9,9.86666667 C21.1945519,9.86666667 21.4333333,10.1054481 21.4333333,10.4 L21.4333333,13.6 C21.4333333,13.8945519 21.1945519,14.1333333 20.9,14.1333333 L18.8984,14.1333333 C18.868,14.2101333 18.8376,14.2842667 18.8056,14.3562667 L20.2210667,15.7722667 C20.4292704,15.9805333 20.4292704,16.3181334 20.2210667,16.5264 L17.9597333,18.7877333 C17.7481624,18.987799 17.4171709,18.987799 17.2056,18.7877333 L15.7901333,17.3722667 C15.7176,17.4037333 15.6434667,17.4346667 15.5666667,17.4650667 L15.5666667,19.4666667 C15.5666667,19.7612185 15.3278852,20 15.0333333,20 Z M12.3666667,18.9333333 L14.5,18.9333333 L14.5,17.088 C14.4999327,16.8564721 14.6492527,16.6513457 14.8696,16.5802667 C15.1364797,16.4978577 15.3947517,16.3897978 15.6408,16.2576 C15.8486786,16.1436486 16.1068219,16.1805883 16.2744,16.3482667 L17.5826667,17.6565333 L19.0893333,16.1493333 L17.7816,14.8410667 C17.6141782,14.6735775 17.5772524,14.4157482 17.6909333,14.208 C17.8227945,13.9617915 17.9308405,13.7035525 18.0136,13.4368 C18.0844914,13.2162418 18.2896622,13.0666667 18.5213333,13.0666667 L20.3666667,13.0666667 L20.3666667,10.9333333 L18.5213333,10.9333333 C18.2896622,10.933326 18.0844914,10.7837582 18.0136,10.5632 C17.9308405,10.2964475 17.8227945,10.0382085 17.6909333,9.792 C17.5772524,9.58425182 17.6141782,9.32642249 17.7816,9.15893333 L19.0893333,7.85066667 L17.5826667,6.34346667 L16.2744,7.65173333 C16.1068219,7.81941173 15.8486786,7.85635142 15.6408,7.7424 C15.3946515,7.61111905 15.1363824,7.50395346 14.8696,7.4224 C14.6483137,7.35102163 14.4987709,7.14451016 14.5,6.912 L14.5,5.06666667 L12.3666667,5.06666667 L12.3666667,6.912 C12.3667339,7.14352788 12.217414,7.34865428 11.9970667,7.41973333 C11.7302843,7.50128679 11.4720152,7.60845239 11.2258667,7.73973333 C11.017988,7.85368476 10.7598447,7.81674506 10.5922667,7.64906667 L9.284,6.34346667 L7.78,7.85066667 L9.08773333,9.15893333 C9.25515509,9.32642249 9.29208095,9.58425182 9.1784,9.792 C9.04653885,10.0382085 8.93849279,10.2964475 8.85573333,10.5632 C8.7845433,10.7846973 8.57798702,10.9344884 8.34533333,10.9333333 L6.5,10.9333333 L6.5,13.0666667 L8.34533333,13.0666667 C8.57700448,13.0666667 8.7821753,13.2162418 8.85306667,13.4368 C8.93582613,13.7035525 9.04387219,13.9617915 9.17573333,14.208 C9.28941428,14.4157482 9.25248843,14.6735775 9.08506667,14.8410667 L7.78,16.1493333 L9.28666667,17.6565333 L10.5949333,16.3482667 C10.7625114,16.1805883 11.0206547,16.1436486 11.2285333,16.2576 C11.4745816,16.3897978 11.7328536,16.4978577 11.9997333,16.5802667 C12.2190262,16.6522804 12.3671092,16.857186 12.3666667,17.088 L12.3666667,18.9333333 Z" id="Shape"></path>
                <path d="M13.4333333,15 C11.7764791,15 10.4333333,13.6568542 10.4333333,12 C10.4333333,10.3431458 11.7764791,9 13.4333333,9 C15.0901876,9 16.4333333,10.3431458 16.4333333,12 C16.4316796,13.6561688 15.0895021,14.9983463 13.4333333,15 Z M13.4333333,10 C12.3287638,10 11.4333333,10.8954305 11.4333333,12 C11.4333333,13.1045695 12.3287638,14 13.4333333,14 C14.5379028,14 15.4333333,13.1045695 15.4333333,12 C15.4333333,10.8954305 14.5379028,10 13.4333333,10 Z" id="Shape"></path>
                <path d="M25.9133333,22.7334032 C26.2005214,22.7334032 26.4333333,22.5020829 26.4333333,22.2167349 L26.4333333,0.516668254 C26.4333333,0.231320257 26.2005214,0 25.9133333,0 L3.55333333,0 C1.8309178,0.00170881772 0.43505317,1.38862985 0.433333333,3.10000952 L0.433333333,24.8000762 C0.43505317,26.5114559 1.8309178,27.8983769 3.55333333,27.9000857 L5.11333333,27.9000857 L5.11333333,30.483427 C5.11337823,30.6923655 5.24007163,30.8807108 5.43435296,30.9606621 C5.62863429,31.0406133 5.85225632,30.996431 6.00097333,30.8487114 L7.71333333,29.1473229 L9.42569333,30.8487114 C9.57441035,30.996431 9.79803237,31.0406133 9.9923137,30.9606621 C10.186595,30.8807108 10.3132884,30.6923655 10.3133333,30.483427 L10.3133333,27.9000857 L25.9133333,27.9000857 C26.2005214,27.9000857 26.4333333,27.6687655 26.4333333,27.3834175 C26.4333333,27.0980695 26.2005214,26.8667492 25.9133333,26.8667492 C24.7645811,26.8667492 23.8333333,25.9414682 23.8333333,24.8000762 C23.8333333,23.6586842 24.7645811,22.7334032 25.9133333,22.7334032 Z M9.27333333,29.2361898 L8.08097333,28.0514695 C7.87791341,27.8497716 7.54875326,27.8497716 7.34569333,28.0514695 L6.15333333,29.2361898 L6.15333333,25.3167444 L9.27333333,25.3167444 L9.27333333,29.2361898 Z M23.5941333,26.8667492 L10.3133333,26.8667492 L10.3133333,25.3167444 L21.2333333,25.3167444 C21.5205214,25.3167444 21.7533333,25.0854242 21.7533333,24.8000762 C21.7533333,24.5147282 21.5205214,24.2834079 21.2333333,24.2834079 L3.03333333,24.2834079 C2.74614526,24.2834079 2.51333333,24.5147282 2.51333333,24.8000762 C2.51333333,25.0854242 2.74614526,25.3167444 3.03333333,25.3167444 L5.11333333,25.3167444 L5.11333333,26.8667492 L3.55333333,26.8667492 C2.40458105,26.8667492 1.47333333,25.9414682 1.47333333,24.8000762 C1.47333333,23.6586842 2.40458105,22.7334032 3.55333333,22.7334032 L23.5941333,22.7334032 C22.526447,23.9069814 22.526447,25.693171 23.5941333,26.8667492 L23.5941333,26.8667492 Z M3.55333333,21.7000667 C2.78559647,21.700123 2.04490779,21.9818052 1.47333333,22.4910858 L1.47333333,3.10000952 C1.47333333,1.95861753 2.40458105,1.03333651 3.55333333,1.03333651 L25.3933333,1.03333651 L25.3933333,21.7000667 L3.55333333,21.7000667 Z" id="Shape"></path>
            </g>
        </g>
    </g>
</svg>