<?xml version="1.0" encoding="UTF-8"?>
<svg width="22px" height="30px" viewBox="0 0 22 30" version="1.1" xmlns="http://www.w3.org/2000/svg" xmlns:xlink="http://www.w3.org/1999/xlink">
    <!-- Generator: Sketch 57.1 (83088) - https://sketch.com -->
    <title>diesel</title>
    <desc>Created with Sketch.</desc>
    <g id="Page-1" stroke="none" stroke-width="1" fill="none" fill-rule="evenodd">
        <g id="Care-Detail" transform="translate(-1187.000000, -1596.000000)" fill="#868686" fill-rule="nonzero">
            <g id="diesel" transform="translate(1187.000000, 1596.000000)">
                <path d="M18.3487461,3.87096774 L8.32601881,3.87096774 L8.32601881,2.90322581 L8.80329154,2.90322581 C9.06732961,2.90322581 9.28056426,2.6863344 9.28056426,2.41935484 L9.28056426,0.483870968 C9.28056426,0.216891411 9.06732961,0 8.80329154,0 L2.12147335,0 C1.85743528,0 1.64420063,0.216891411 1.64420063,0.483870968 L1.64420063,2.41935484 C1.64420063,2.6863344 1.85743528,2.90322581 2.12147335,2.90322581 L2.59874608,2.90322581 L2.59874608,4.20244772 C1.4719816,4.74727506 0.689655172,5.91040827 0.689655172,7.25806452 L0.689655172,26.6129032 C0.689655172,28.4801065 2.18882286,30 4.03056426,30 L18.3487461,30 C20.1904875,30 21.6896552,28.4801065 21.6896552,26.6129032 L21.6896552,7.25806452 C21.6896552,5.39038875 20.1904875,3.87096774 18.3487461,3.87096774 Z M20.7351097,7.25806452 L20.7351097,14.7996472 L18.8260188,12.8641633 L18.8260188,8.22580645 C18.8260188,7.42557647 18.1835184,6.77419355 17.3942006,6.77419355 L12.8190941,6.77419355 L10.9100032,4.83870968 L18.3487461,4.83870968 C19.6645087,4.83870968 20.7351097,5.92411161 20.7351097,7.25806452 Z M17.8714734,11.8964214 L13.7736395,7.74193548 L17.3942006,7.74193548 C17.6575396,7.74193548 17.8714734,7.9592994 17.8714734,8.22580645 L17.8714734,11.8964214 Z M2.59874608,0.967741935 L8.32601881,0.967741935 L8.32601881,1.93548387 L2.59874608,1.93548387 L2.59874608,0.967741935 Z M3.55329154,2.90322581 L7.37147335,2.90322581 L7.37147335,3.87096774 L4.03056426,3.87096774 C3.86836611,3.87096774 3.70989665,3.88703377 3.55329154,3.90971522 L3.55329154,2.90322581 Z M18.3487461,29.0322581 L4.03056426,29.0322581 C2.71480163,29.0322581 1.64420063,27.9468561 1.64420063,26.6129032 L1.64420063,7.25806452 C1.64420063,5.92411161 2.71480163,4.83870968 4.03056426,4.83870968 L9.56021625,4.83870968 L20.7351097,16.1680948 L20.7351097,26.6129032 C20.7351097,27.9468561 19.6645087,29.0322581 18.3487461,29.0322581 Z" id="Shape"></path>
                <path d="M9.5431708,6.14011549 C9.44966492,6.05020807 9.3227118,6 9.18965517,6 L4.68965517,6 C3.5866278,6 2.68965517,6.85797382 2.68965517,7.91304348 L2.68965517,26.0869565 C2.68965517,27.1420262 3.5866278,28 4.68965517,28 L18.6896552,28 C19.7926825,28 20.6896552,27.1420262 20.6896552,26.0869565 L20.6896552,17 C20.6896552,16.8727284 20.6371649,16.751295 20.5431708,16.6618546 L9.5431708,6.14011549 Z M19.6896552,26.0869565 C19.6896552,26.6144914 19.2411689,27.0434783 18.6896552,27.0434783 L4.68965517,27.0434783 C4.13814148,27.0434783 3.68965517,26.6144914 3.68965517,26.0869565 L3.68965517,7.91304348 C3.68965517,7.38550865 4.13814148,6.95652174 4.68965517,6.95652174 L8.98262392,6.95652174 L19.6896552,17.1980299 L19.6896552,26.0869565 Z" id="Shape"></path>
                <path d="M6.68965517,21.367962 C6.68965517,23.2172441 8.01265323,24.7686257 9.76655948,24.9755418 C9.90523136,24.9914396 10.0441474,25 10.1815985,25 C11.0392645,25 11.8715399,24.6879137 12.514118,24.115348 C13.2616767,23.4500858 13.6896552,22.4949944 13.6896552,21.4941661 L13.6896552,21.367962 C13.6896552,20.3832761 13.44112,19.4064169 12.970661,18.542799 L10.62862,14.2415855 C10.4535712,13.9194715 9.92573917,13.9194715 9.7506903,14.2415855 L7.4086493,18.5423098 C6.9381903,19.4064169 6.68965517,20.3832761 6.68965517,21.367962 Z M8.28657898,19.0221791 L10.1896552,15.5278406 L12.0927314,19.0231574 C12.4831122,19.7395371 12.6896552,20.55057 12.6896552,21.367962 L12.6896552,21.4941661 C12.6896552,22.2088338 12.383747,22.8912167 11.8495673,23.3664389 C11.3090399,23.8480202 10.609577,24.0656979 9.88374698,23.9805836 C8.65376648,23.835302 7.68965517,22.6877247 7.68965517,21.367962 C7.68965517,20.55057 7.89619817,19.7395371 8.28657898,19.0221791 L8.28657898,19.0221791 Z" id="Shape"></path>
                <path d="M12.6896552,22 L11.6896552,22 C11.6896552,22.5515137 11.2411689,23 10.6896552,23 L10.6896552,24 C11.7926825,24 12.6896552,23.1030274 12.6896552,22 Z" id="Path"></path>
            </g>
        </g>
    </g>
</svg>