<?xml version="1.0" encoding="UTF-8"?>
<svg width="30px" height="31px" viewBox="0 0 30 31" version="1.1" xmlns="http://www.w3.org/2000/svg" xmlns:xlink="http://www.w3.org/1999/xlink">
    <!-- Generator: Sketch 57.1 (83088) - https://sketch.com -->
    <title>Power steering</title>
    <desc>Created with Sketch.</desc>
    <g id="Page-1" stroke="none" stroke-width="1" fill="none" fill-rule="evenodd">
        <g id="Care-Detail" transform="translate(-1201.000000, -1664.000000)" fill="#868686" fill-rule="nonzero">
            <g id="Power-steering" transform="translate(1201.000000, 1664.000000)">
                <path d="M22,19.5555556 C20.8972,19.5555556 20,20.4527556 20,21.5555556 C20,22.6583556 20.8972,23.5555556 22,23.5555556 C23.1028,23.5555556 24,22.6583556 24,21.5555556 C24,20.4527556 23.1028,19.5555556 22,19.5555556 Z M22,22.7555556 C21.3384,22.7555556 20.8,22.2171556 20.8,21.5555556 C20.8,20.8939556 21.3384,20.3555556 22,20.3555556 C22.6616,20.3555556 23.2,20.8939556 23.2,21.5555556 C23.2,22.2171556 22.6616,22.7555556 22,22.7555556 Z" id="Shape"></path>
                <path d="M22,25.5555556 C21.4486667,25.5555556 21,26.0042222 21,26.5555556 C21,27.1068889 21.4486667,27.5555556 22,27.5555556 C22.5513333,27.5555556 23,27.1068889 23,26.5555556 C23,26.0042222 22.5513333,25.5555556 22,25.5555556 Z M22,26.8888889 C21.8163333,26.8888889 21.6666667,26.7395556 21.6666667,26.5555556 C21.6666667,26.3715556 21.8163333,26.2222222 22,26.2222222 C22.1836667,26.2222222 22.3333333,26.3715556 22.3333333,26.5555556 C22.3333333,26.7395556 22.1836667,26.8888889 22,26.8888889 Z" id="Shape"></path>
                <path d="M26.5004033,23.6888561 C26.0222904,23.4138021 25.409479,23.5781677 25.1337473,24.0552613 C24.8580155,24.5330217 25.0223876,25.1458085 25.5001671,25.4218627 C25.6572042,25.5122137 25.828578,25.5555556 25.9982848,25.5555556 C26.3443665,25.5555556 26.6811127,25.3758536 26.8661564,25.0554575 C27.1418882,24.5780305 26.9778494,23.9649102 26.5004033,23.6888561 L26.5004033,23.6888561 Z M26.2886867,24.7220587 C26.1963315,24.8814233 25.9919499,24.9357673 25.8335792,24.8440827 C25.6742082,24.752398 25.6195287,24.5476912 25.7115504,24.38866 C25.7732316,24.2819724 25.8852581,24.2219606 26.0009521,24.2219606 C26.0572987,24.2219606 26.1146456,24.2362968 26.1669913,24.2666361 C26.3260288,24.3583207 26.3807084,24.5626941 26.2886867,24.7220587 Z" id="Shape"></path>
                <path d="M25.5000308,18.6892225 C25.02224,18.9652718 24.8581974,19.5780478 25.1336023,20.0557997 C25.3186504,20.3761902 25.6554045,20.5555556 26.0018279,20.5555556 C26.1712052,20.5555556 26.3429165,20.5125479 26.5002907,20.4221984 C26.9777481,20.1461492 27.1417908,19.5330398 26.8663859,19.0556213 C26.590981,18.5782027 25.9771548,18.4135067 25.5000308,18.6892225 Z M26.2885691,19.3890141 C26.3802596,19.5483758 26.3255787,19.7527456 26.1665373,19.8444287 C26.0071626,19.9367785 25.8027762,19.8814353 25.7110857,19.7224069 C25.6190618,19.5630451 25.674076,19.3586753 25.8331174,19.2669923 C25.9928255,19.1749759 26.1965451,19.2299857 26.2885691,19.3890141 Z" id="Shape"></path>
                <path d="M22,18.5555556 C22.5513333,18.5555556 23,18.1068889 23,17.5555556 C23,17.0042222 22.5513333,16.5555556 22,16.5555556 C21.4486667,16.5555556 21,17.0042222 21,17.5555556 C21,18.1068889 21.4486667,18.5555556 22,18.5555556 Z M22,17.2222222 C22.1836667,17.2222222 22.3333333,17.3715556 22.3333333,17.5555556 C22.3333333,17.7395556 22.1836667,17.8888889 22,17.8888889 C21.8163333,17.8888889 21.6666667,17.7395556 21.6666667,17.5555556 C21.6666667,17.3715556 21.8163333,17.2222222 22,17.2222222 Z" id="Shape"></path>
                <path d="M18.4998329,18.6888783 C18.0220534,18.4137785 17.409242,18.5781715 17.1338436,19.0553446 C16.8581118,19.5328512 17.0221506,20.1460737 17.4995967,20.4221738 L17.4999301,20.4221738 C17.6569672,20.5125399 17.8286744,20.5555556 17.9980477,20.5555556 C18.3441294,20.5555556 18.681209,20.3761571 18.8662527,20.0557075 C19.1419845,19.5778675 18.9776124,18.9649785 18.4998329,18.6888783 L18.4998329,18.6888783 Z M18.288783,19.7222532 C18.1970947,19.8816444 17.9927131,19.9366644 17.8336756,19.8442975 C17.6743046,19.7525976 17.619625,19.5478566 17.7116467,19.3887989 C17.8033351,19.2294078 18.0077167,19.1740543 18.1667542,19.2667546 C18.3257918,19.3584546 18.3804713,19.5628621 18.288783,19.7222532 Z" id="Shape"></path>
                <path d="M17.4997063,23.6890843 C17.0222517,23.965154 16.8582101,24.5783088 17.1336133,25.0557627 C17.3186603,25.3761769 17.6554125,25.5555556 18.0018338,25.5555556 C18.1712101,25.5555556 18.3429204,25.5125447 18.4999603,25.4221885 L18.5002937,25.4221885 C18.9777483,25.1461188 19.1417899,24.5332974 18.8663867,24.0555101 C18.59065,23.5780562 17.9781611,23.4136814 17.4997063,23.6890843 Z M18.1665423,24.844376 C18.0078353,24.9363992 17.8031167,24.8810519 17.7110933,24.7223452 C17.6194034,24.5629716 17.6740839,24.3585867 17.8331243,24.2668968 C17.8858043,24.2365558 17.9428188,24.2222189 17.9994999,24.2222189 C18.1148625,24.2222189 18.2272244,24.282234 18.2889067,24.3889277 C18.3805966,24.5483012 18.3259161,24.7526862 18.1665423,24.844376 L18.1665423,24.844376 Z" id="Shape"></path>
                <path d="M30,8.29749104 L29.0322581,8.29749104 L29.0322581,6.84587814 C29.0322581,6.04555556 28.3809677,5.39426523 27.5806452,5.39426523 L24.6774194,5.39426523 C23.8770968,5.39426523 23.2258065,6.04555556 23.2258065,6.84587814 L23.2258065,8.29749104 L22.2580645,8.29749104 L22.2580645,2.97491039 C22.2580645,1.64087814 21.1727419,0.555555556 19.8387097,0.555555556 L16.9354839,0.555555556 C15.7674194,0.555555556 14.79,1.38829749 14.565,2.49103943 L5.80645161,2.49103943 C5.80645161,1.95732975 5.37241935,1.52329749 4.83870968,1.52329749 L3.87096774,1.52329749 C3.33725806,1.52329749 2.90322581,1.95732975 2.90322581,2.49103943 L2.90322581,7.3297491 C2.90322581,7.86345878 3.33725806,8.29749104 3.87096774,8.29749104 L4.83870968,8.29749104 C5.37241935,8.29749104 5.80645161,7.86345878 5.80645161,7.3297491 L14.516129,7.3297491 L14.516129,8.50362007 C12.2854839,9.13749104 10.6451613,11.1886201 10.6451613,13.6200717 L10.6451613,14.1039427 L1.4516129,14.1039427 C0.651290323,14.1039427 0,14.755233 0,15.5555556 C0,16.3558781 0.651290323,17.0071685 1.4516129,17.0071685 C1.71822581,17.0071685 1.93548387,17.2239427 1.93548387,17.4910394 L1.93548387,19.9103943 L0.967741935,19.9103943 L0.967741935,22.9026523 C0.405967742,23.1029749 0,23.635233 0,24.265233 L0,28.1362007 C0,29.470233 1.08532258,30.5555556 2.41935484,30.5555556 L4.83870968,30.5555556 L4.83870968,29.5878136 L7.74193548,29.5878136 L7.74193548,25.7168459 L4.83870968,25.7168459 L4.83870968,24.265233 C4.83870968,23.635233 4.43274194,23.1029749 3.87096774,22.9026523 L3.87096774,19.9103943 L2.90322581,19.9103943 L2.90322581,17.4910394 C2.90322581,16.6907168 2.25193548,16.0394265 1.4516129,16.0394265 C1.185,16.0394265 0.967741935,15.8221685 0.967741935,15.5555556 C0.967741935,15.2889427 1.185,15.0716846 1.4516129,15.0716846 L10.6451613,15.0716846 L10.6451613,16.0882975 C9.54241935,16.3132975 8.70967742,17.290233 8.70967742,18.4587814 L8.70967742,26.2007168 C8.70967742,27.5347491 9.795,28.6200717 11.1290323,28.6200717 L16.4845161,28.6200717 C17.9158065,29.8258781 19.7603226,30.5555556 21.7741935,30.5555556 C26.31,30.5555556 30,26.8655556 30,22.3297491 C30,22.1662007 29.985,22.0070072 29.9753226,21.8458781 L30,21.8458781 L30,8.29749104 Z M2.90322581,20.8781362 L2.90322581,22.8136201 L1.93548387,22.8136201 L1.93548387,20.8781362 L2.90322581,20.8781362 Z M3.87096774,29.5878136 L2.41935484,29.5878136 C1.61903226,29.5878136 0.967741935,28.9365233 0.967741935,28.1362007 L0.967741935,24.265233 C0.967741935,23.9981362 1.185,23.781362 1.4516129,23.781362 L3.38709677,23.781362 C3.65370968,23.781362 3.87096774,23.9981362 3.87096774,24.265233 L3.87096774,29.5878136 Z M6.77419355,26.6845878 L6.77419355,28.6200717 L4.83870968,28.6200717 L4.83870968,26.6845878 L6.77419355,26.6845878 Z M24.1935484,6.84587814 C24.1935484,6.57926523 24.4108065,6.36200717 24.6774194,6.36200717 L27.5806452,6.36200717 C27.8472581,6.36200717 28.0645161,6.57926523 28.0645161,6.84587814 L28.0645161,8.29749104 L24.1935484,8.29749104 L24.1935484,6.84587814 Z M3.87096774,7.3297491 L3.87096774,2.49103943 L4.83870968,2.49103943 L4.83919355,7.3297491 L3.87096774,7.3297491 Z M5.80645161,6.36200717 L5.80645161,3.45878136 L14.516129,3.45878136 L14.516129,6.36200717 L5.80645161,6.36200717 Z M15.483871,2.97491039 C15.483871,2.17458781 16.1351613,1.52329749 16.9354839,1.52329749 L19.8387097,1.52329749 C20.6390323,1.52329749 21.2903226,2.17458781 21.2903226,2.97491039 L21.2903226,8.29749104 L15.9677419,8.29749104 C15.8041935,8.29749104 15.6435484,8.30765233 15.483871,8.32216846 L15.483871,2.97491039 Z M15.9677419,9.26523297 L29.0322581,9.26523297 L29.0322581,10.2329749 L24.1935484,10.2329749 L24.1935484,14.4682975 C23.4280645,14.2321685 22.616129,14.1039427 21.7741935,14.1039427 C21.2782258,14.1039427 20.7948387,14.1557168 20.3225806,14.2399104 L20.3225806,10.2329749 L15.9677419,10.2329749 C14.1,10.2329749 12.5806452,11.7523297 12.5806452,13.6200717 L12.5806452,16.0394265 L11.6129032,16.0394265 L11.6129032,13.6200717 C11.6129032,11.2191039 13.5667742,9.26523297 15.9677419,9.26523297 Z M16.4845161,16.0394265 L13.5483871,16.0394265 L13.5483871,13.6200717 C13.5483871,12.2860394 14.6337097,11.2007168 15.9677419,11.2007168 L19.3548387,11.2007168 L19.3548387,14.4682975 C18.2893548,14.7968459 17.3177419,15.3378136 16.4845161,16.0394265 Z M9.67741935,26.2007168 L9.67741935,18.4587814 C9.67741935,17.6584588 10.3287097,17.0071685 11.1290323,17.0071685 L15.513871,17.0071685 C15.1964516,17.3797491 14.9148387,17.7823297 14.6670968,18.2071685 C14.3129032,18.0576523 13.9345161,17.9749104 13.5483871,17.9749104 C11.9472581,17.9749104 10.6451613,19.2770072 10.6451613,20.8781362 C10.6451613,22.4792652 11.9472581,23.781362 13.5483871,23.781362 C13.5929032,23.781362 13.6383871,23.7755556 13.6833871,23.7731362 C13.9437097,25.2358781 14.5882258,26.5650717 15.513871,27.6523297 L11.1290323,27.6523297 C10.3287097,27.6523297 9.67741935,27.0010394 9.67741935,26.2007168 Z M13.5483871,22.3297491 C13.5483871,22.4923297 13.5633871,22.6515233 13.5730645,22.8121685 C13.5648387,22.8121685 13.556129,22.8136201 13.5483871,22.8136201 C12.4809677,22.8136201 11.6129032,21.9455556 11.6129032,20.8781362 C11.6129032,19.8107168 12.4809677,18.9426523 13.5483871,18.9426523 C13.7806452,18.9426523 14.0080645,18.9895878 14.2243548,19.0718459 C13.7912903,20.0715233 13.5483871,21.1723297 13.5483871,22.3297491 Z M21.7741935,29.5878136 C17.7720968,29.5878136 14.516129,26.3318459 14.516129,22.3297491 C14.516129,18.3276523 17.7720968,15.0716846 21.7741935,15.0716846 C25.7762903,15.0716846 29.0322581,18.3276523 29.0322581,22.3297491 C29.0322581,26.3318459 25.7762903,29.5878136 21.7741935,29.5878136 Z M25.1612903,14.8423297 L25.1612903,11.2007168 L29.0322581,11.2007168 L29.0322581,18.4670072 C28.1796774,16.8716846 26.8151613,15.5932975 25.1612903,14.8423297 L25.1612903,14.8423297 Z" id="Shape"></path>
                <path d="M12,24.5555556 L11,24.5555556 L11,25.8888889 C11,26.2565556 11.4485,26.5555556 12,26.5555556 L13,26.5555556 L13,25.8888889 L12,25.8888889 L12,24.5555556 Z" id="Path"></path>
                <polygon id="Path" points="26 12.5555556 28 12.5555556 28 13.5555556 26 13.5555556"></polygon>
                <polygon id="Path" points="26 13.5555556 28 13.5555556 28 14.5555556 26 14.5555556"></polygon>
                <polygon id="Path" points="17 12.5555556 18 12.5555556 18 13.5555556 17 13.5555556"></polygon>
                <polygon id="Path" points="16 12.5555556 17 12.5555556 17 13.5555556 16 13.5555556"></polygon>
                <path d="M18,6.55555556 L20,6.55555556 C20.5515,6.55555556 21,6.19675556 21,5.75555556 L21,3.35555556 C21,2.91435556 20.5515,2.55555556 20,2.55555556 L18,2.55555556 C17.4485,2.55555556 17,2.91435556 17,3.35555556 L17,5.75555556 C17,6.19675556 17.4485,6.55555556 18,6.55555556 Z M18,3.35555556 L20,3.35555556 L20.0005,5.75555556 L18,5.75555556 L18,3.35555556 Z" id="Shape"></path>
            </g>
        </g>
    </g>
</svg>