<?xml version="1.0" encoding="UTF-8"?>
<svg width="45px" height="20px" viewBox="0 0 45 20" version="1.1" xmlns="http://www.w3.org/2000/svg" xmlns:xlink="http://www.w3.org/1999/xlink">
    <!-- Generator: Sketch 57.1 (83088) - https://sketch.com -->
    <title>tined</title>
    <desc>Created with Sketch.</desc>
    <g id="Page-1" stroke="none" stroke-width="1" fill="none" fill-rule="evenodd">
        <g id="Care-Detail" transform="translate(-1388.000000, -1601.000000)" fill="#868686" fill-rule="nonzero">
            <g id="tined" transform="translate(1388.000000, 1601.000000)">
                <path d="M43.3412504,1.69446963 C42.378918,0.617588395 40.9910094,0 39.5334293,0 L25.6321623,0 C22.2195454,0 18.9902649,1.28866727 16.539152,3.6287398 L0.860570589,18.5981868 C0.6182388,18.8294651 0.542676931,19.1824116 0.669318991,19.4903898 C0.796053086,19.7984587 1.0996811,20 1.43708647,20 L41.9855545,20 C42.4026634,20 42.7547026,19.6944696 42.8073474,19.286854 L44.5681874,5.62901179 C44.7519841,4.20553037 44.3046872,2.7712602 43.3412504,1.69446963 Z M6.9102139,18.368087 L12.3630013,13.1620127 L12.3630013,18.368087 L6.9102139,18.368087 Z M14.0196561,18.368087 L14.0196561,11.5803264 L19.3532564,6.48803264 C21.0456214,4.87225748 23.2755708,3.9824116 25.6324385,3.9824116 L31.6040349,3.9824116 L31.6040349,10.6357208 C31.6040349,10.9139619 31.7479798,11.1730734 31.9858939,11.3230281 C32.2237159,11.4729828 32.5227421,11.493291 32.7794315,11.3765186 C34.2734581,10.6972801 35.9594725,10.5947416 37.5269441,11.0877607 L39.7007514,11.7715322 L38.8504273,18.368087 L14.0196561,18.368087 L14.0196561,18.368087 Z M40.557334,5.12701723 L39.9934271,9.50145059 L34.3908045,3.9824116 L39.5336133,3.9824116 C39.8342041,3.9824116 40.1092089,4.10480508 40.3079154,4.32692656 C40.5066219,4.54904805 40.595253,4.83327289 40.557334,5.12701723 Z M33.2606898,5.17697189 L37.5435107,9.39592022 C36.1279912,9.04297371 34.6534763,9.06844968 33.2606898,9.46355394 L33.2606898,5.17697189 Z M42.9246938,5.42330009 L41.255706,18.368087 L40.5204274,18.368087 L42.2008276,5.3325476 C42.298018,4.57833182 42.0611164,3.81858568 41.5508667,3.24814143 C41.040617,2.67769719 40.3053384,2.35049864 39.5335213,2.35049864 L25.6324385,2.35049864 C22.8428158,2.35049864 20.2034885,3.40371714 18.2003167,5.31622847 L4.52996903,18.368087 L3.4817667,18.368087 L17.6920918,4.80054397 C19.8323978,2.75720762 22.6523005,1.63191296 25.6320703,1.63191296 L39.5333372,1.63191296 C40.5150893,1.63191296 41.4497187,2.04768812 42.097931,2.77307344 C42.7471556,3.49864007 43.0485747,4.46455122 42.9246938,5.42330009 Z" id="Shape"></path>
            </g>
        </g>
    </g>
</svg>