<?xml version="1.0" encoding="UTF-8"?>
<svg width="35px" height="30px" viewBox="0 0 35 30" version="1.1" xmlns="http://www.w3.org/2000/svg" xmlns:xlink="http://www.w3.org/1999/xlink">
    <!-- Generator: Sketch 57.1 (83088) - https://sketch.com -->
    <title>tray table</title>
    <desc>Created with Sketch.</desc>
    <g id="Page-1" stroke="none" stroke-width="1" fill="none" fill-rule="evenodd">
        <g id="Care-Detail" transform="translate(-1248.000000, -1596.000000)" fill="#868686" fill-rule="nonzero">
            <g id="tray-table" transform="translate(1248.000000, 1596.000000)">
                <path d="M17.9827573,8.27333999 C17.7995935,8.15210088 17.562176,8.13278963 17.3599377,8.2226806 C17.1576993,8.31257157 17.021365,8.49800819 17.0022904,8.70913826 C16.9832159,8.92026834 17.084299,9.1250162 17.2674628,9.24625529 C19.4480828,10.6888504 20.7483747,13.0513199 20.7500314,15.5736516 C20.7500314,15.9011648 21.0298464,16.1666667 21.3750157,16.1666667 C21.720185,16.1666667 22,15.9011648 22,15.5736516 C21.9980526,12.6636743 20.4981947,9.93806589 17.9827573,8.27333999 Z" id="Path"></path>
                <path d="M14.6433324,7.36386346 C14.2921724,7.27801854 13.9337762,7.21350622 13.5710544,7.17085039 C13.2975972,7.13878036 13.0442118,7.29456123 13.0051021,7.51879669 C12.9659924,7.74303216 13.1559685,7.95080882 13.4294257,7.98287885 C13.7432899,8.01947314 14.0534025,8.07514899 14.3572,8.14944617 C14.4036382,8.16077012 14.4518183,8.16656942 14.5002662,8.16666667 C14.7483671,8.16653595 14.958829,8.01724611 14.9947033,7.81594079 C15.0305776,7.61463547 14.8810132,7.4222044 14.6433324,7.36386346 L14.6433324,7.36386346 Z" id="Path"></path>
                <path d="M34.4166578,7.26871096 L32.6666582,7.26871096 L32.6666582,2.82993615 L34.7666577,1.23197722 C34.9333816,1.1051115 35.0207312,0.897639998 34.9958028,0.687715213 C34.9708744,0.477790428 34.8374552,0.297304937 34.6458029,0.214245882 C34.4541506,0.131186828 34.2333817,0.158172857 34.0666578,0.285038594 L31.7333251,2.06054852 C31.5863659,2.17225805 31.4998999,2.34771092 31.5,2.53401783 L31.5,7.26871096 L30.2743359,7.26871096 C29.9823765,5.81735927 28.6776935,4.8086139 27.2209913,4.90794798 C25.7642891,5.00728206 24.6043895,6.18408996 24.5064827,7.66202704 C24.4085758,9.13996412 25.4028276,10.4636659 26.8333264,10.7598813 L26.8333264,22.064627 L23.1105669,22.064627 L23.6939001,20.8809537 L23.9166605,20.8809537 C24.8831585,20.8809537 25.66666,20.0860308 25.66666,19.1054438 C25.66666,18.1248567 24.8831585,17.3299338 23.9166605,17.3299338 L23.9166605,15.5544239 C23.9166605,10.1118942 20.0850365,5.56229796 15.0154336,4.53080068 C15.3831729,3.54558128 15.0649731,2.43235656 14.2347611,1.79961067 C13.404549,1.16686478 12.262111,1.16686478 11.4318989,1.79961067 C10.6016869,2.43235656 10.2834871,3.54558128 10.6512264,4.53080068 C5.58162356,5.56229796 1.74999955,10.1118942 1.74999955,15.5544239 L1.74999955,17.3299338 C0.783501485,17.3299338 0,18.1248567 0,19.1054438 C0,20.0860308 0.783501485,20.8809537 1.74999955,20.8809537 L1.97275991,20.8809537 L2.55609309,22.064627 L0.583333182,22.064627 C0.261167162,22.064627 0,22.3296013 0,22.6564636 L0,28.57483 C0,28.9016924 0.261167162,29.1666667 0.583333182,29.1666667 L34.4166578,29.1666667 C34.7388238,29.1666667 35,28.9016924 35,28.57483 L35,7.8605476 C35,7.53368525 34.7388238,7.26871096 34.4166578,7.26871096 Z M30.2743359,8.45238424 L31.4999928,8.45238424 L31.4999928,11.4115674 L27.9999928,11.4115674 L27.9999928,10.7598813 C29.1442726,10.5205493 30.0384426,9.61334462 30.2743359,8.45238424 L30.2743359,8.45238424 Z M27.9999928,9.52701162 L27.9999928,8.45238424 L29.05918,8.45238424 C28.8829678,8.95371625 28.4941217,9.34823071 27.9999928,9.52701162 Z M25.6666549,7.8605476 C25.6646212,6.99657882 26.2772848,6.25718646 27.1165266,6.11077788 C27.9557683,5.9643693 28.7766667,6.4536719 29.05918,7.26871096 L27.4166596,7.26871096 C27.0944935,7.26871096 26.8333264,7.53368525 26.8333264,7.8605476 L26.8333264,9.52693764 C26.1361346,9.27781614 25.6689259,8.61048582 25.6666549,7.8605476 Z M12.83333,2.53401392 C13.2609487,2.53290364 13.6547194,2.76983104 13.858849,3.15106116 C14.0629787,3.53229129 14.0445766,3.99639783 13.8109235,4.35975989 C13.4881944,4.33098183 13.1632778,4.30952775 12.83333,4.30952775 C12.5033822,4.30952775 12.1784656,4.33098183 11.8557365,4.35975989 C11.6220834,3.99639783 11.6036813,3.53229129 11.807811,3.15106116 C12.0119407,2.76983104 12.4057113,2.53290364 12.83333,2.53401392 Z M2.91666591,15.5544239 C2.91666591,10.0065473 7.36516476,5.49320103 12.83333,5.49320103 C18.3014953,5.49320103 22.7499941,10.0065473 22.7499941,15.5544239 L22.7499941,17.3299338 L2.91666591,17.3299338 L2.91666591,15.5544239 Z M1.74999955,19.6972804 C1.42783353,19.6972804 1.16666636,19.4323061 1.16666636,19.1054438 C1.16666636,18.7785814 1.42783353,18.5136071 1.74999955,18.5136071 L23.9166605,18.5136071 C24.2388265,18.5136071 24.4999937,18.7785814 24.4999937,19.1054438 C24.4999937,19.4323061 24.2388265,19.6972804 23.9166605,19.6972804 L1.74999955,19.6972804 Z M22.3894213,20.8809537 L21.8060881,22.064627 L3.86057192,22.064627 L3.27723873,20.8809537 L22.3894213,20.8809537 Z M33.8333246,27.9829934 L1.16666636,27.9829934 L1.16666636,23.2483003 L33.8333246,23.2483003 L33.8333246,27.9829934 Z M33.8333246,22.064627 L27.9999928,22.064627 L27.9999928,12.5952407 L33.8333246,12.5952407 L33.8333246,22.064627 Z M33.8333246,11.4115674 L32.6666582,11.4115674 L32.6666582,8.45238424 L33.8333246,8.45238424 L33.8333246,11.4115674 Z" id="Shape"></path>
                <path d="M28.0792828,18.8365371 L29.3470586,20.8623909 C29.4641979,21.0498958 29.6936571,21.1669789 29.9433713,21.1666667 C30.0537214,21.1668236 30.1623956,21.1437119 30.2596615,21.0993979 L32.6423818,20.0215002 C32.9712046,19.8725525 33.0958064,19.5251982 32.9207172,19.2455803 L32.0209346,17.8076185 C32.0265013,17.7952841 32.0366226,17.785603 32.0411772,17.7727667 L32.829963,15.5783905 C32.8824209,15.4329227 32.8646562,15.2756872 32.7805879,15.1413698 C32.6965196,15.0070525 32.5530553,14.9066897 32.3818429,14.8624215 L29.8009141,14.1917742 C29.4446709,14.0993929 29.0677627,14.2698928 28.9588228,14.5727065 L28.170037,16.7670826 C28.1175757,16.9125409 28.1353287,17.0697681 28.2193802,17.2040838 C28.3034316,17.3383994 28.4468759,17.4387684 28.6180728,17.4830516 L29.263811,17.6508569 L28.3576182,18.0606172 C28.0287954,18.2095649 27.9041936,18.5569192 28.0792828,18.8365371 Z M30.0520908,15.4566241 L31.3425552,15.7915892 L30.9484996,16.8887773 L29.6580352,16.5537405 L30.0520908,15.4566241 Z M30.778968,18.2651388 L31.4128138,19.2780657 L30.2216224,19.8169786 L29.5873549,18.8044103 L30.778968,18.2651388 Z" id="Shape"></path>
            </g>
        </g>
    </g>
</svg>