<?xml version="1.0" encoding="UTF-8"?>
<svg width="41px" height="21px" viewBox="0 0 41 21" version="1.1" xmlns="http://www.w3.org/2000/svg" xmlns:xlink="http://www.w3.org/1999/xlink">
    <!-- Generator: Sketch 57.1 (83088) - https://sketch.com -->
    <title>type</title>
    <desc>Created with Sketch.</desc>
    <g id="Page-1" stroke="none" stroke-width="1" fill="none" fill-rule="evenodd">
        <g id="Care-Detail" transform="translate(-1151.000000, -1729.000000)" fill="#868686" fill-rule="nonzero">
            <g id="type" transform="translate(1151.000000, 1729.000000)">
                <path d="M7.5,11.4883721 C5.01961262,11.4883721 3,13.5079658 3,15.9883299 C3,18.468694 5.01961262,20.4883721 7.5,20.4883721 C9.98038738,20.4883721 12,18.4687784 12,15.9884143 C12,13.5080502 9.98038738,11.4883721 7.5,11.4883721 Z M7.5,18.6884058 C6.01136257,18.6884058 4.79998312,17.4770378 4.79998312,15.9884143 C4.79998312,14.4997908 6.01136257,13.2884227 7.5,13.2884227 C8.98863743,13.2884227 10.2000169,14.4997908 10.2000169,15.9884143 C10.2000169,17.4769534 8.98863743,18.6884058 7.5,18.6884058 Z" id="Shape"></path>
                <path d="M33.5,11.4883721 C31.0196126,11.4883721 29,13.5079658 29,15.9883299 C29,18.468694 31.0196126,20.4883721 33.5,20.4883721 C35.9803874,20.4883721 38,18.4687784 38,15.9884143 C38,13.5080502 35.9803874,11.4883721 33.5,11.4883721 Z M33.5,18.6884058 C32.0113626,18.6884058 30.7999831,17.4770378 30.7999831,15.9884143 C30.7999831,14.4997908 32.0113626,13.2884227 33.5,13.2884227 C34.9886374,13.2884227 36.2000169,14.4997908 36.2000169,15.9884143 C36.2000169,17.4769534 34.9886374,18.6884058 33.5,18.6884058 Z" id="Shape"></path>
                <path d="M35.875,7.28835616 L34.42975,7.28835616 C33.901875,7.28835616 33.38425,7.10818244 32.9708066,6.77835536 L26.24,1.41992042 C25.4849434,0.819872611 24.5368184,0.488372093 23.5715566,0.488372093 L11.22375,0.488372093 C9.79219336,0.488372093 8.46481836,1.19559976 7.67044336,2.38047505 L6.216625,4.55307844 C5.781,5.20077946 5.05325,5.58838006 4.27080664,5.58838006 C1.91675,5.58838006 0,7.49578304 0,9.83836014 L0,13.238392 C0,15.5809691 1.91675,17.4883721 4.27080664,17.4883721 C4.74230664,17.4883721 5.125,17.1075449 5.125,16.6383442 C5.125,16.1691435 4.74230664,15.788396 4.27080664,15.788396 C2.85798828,15.788396 1.70830664,14.6443208 1.70830664,13.238392 L1.70830664,9.83836014 C1.70830664,8.43243138 2.85798828,7.28835616 4.27080664,7.28835616 C5.62725,7.28835616 6.88455664,6.61858167 7.63793164,5.49482679 L9.09175,3.32389684 C9.568375,2.61332229 10.3661934,2.1882685 11.22375,2.1882685 L23.5715566,2.1882685 C24.1523633,2.1882685 24.7195566,2.38716881 25.174,2.74759594 L31.9048066,8.10427774 C32.6171816,8.6738052 33.5157383,8.98825256 34.4314316,8.98825256 L35.875,8.98825256 C38.381125,8.98825256 39.2916934,11.52973 39.2916934,13.2382326 C39.2916934,14.9127087 38.0036367,15.7882366 36.7291934,15.7882366 C36.2576934,15.7882366 35.875,16.1690638 35.875,16.6382645 C35.875,17.1074652 36.2576934,17.4883721 36.7291934,17.4883721 C39.1635684,17.4883721 41,15.6608958 41,13.238392 C41,10.3534609 39.2045684,7.28835616 35.875,7.28835616 Z" id="Path"></path>
                <path d="M30.124894,15.4883721 L10.8750239,15.4883721 C10.3920258,15.4883721 10,15.9363893 10,16.4883721 C10,17.0403548 10.3920258,17.4883721 10.8750239,17.4883721 L30.1249761,17.4883721 C30.6079742,17.4883721 31,17.0403548 31,16.4883721 C31,15.9363893 30.6078922,15.4883721 30.124894,15.4883721 Z" id="Path"></path>
                <path d="M27.1666471,6.48834084 L19.6667057,6.48834084 L19.6667057,3.48838772 C19.6667057,2.93639634 19.2933493,2.48837209 18.8333529,2.48837209 C18.3733565,2.48837209 18,2.93639634 18,3.48838772 L18,7.48835647 C18,8.04034784 18.3733565,8.48837209 18.8333529,8.48837209 L27.1666471,8.48837209 C27.6266435,8.48837209 28,8.04034784 28,7.48835647 C28,6.93636509 27.6266435,6.48834084 27.1666471,6.48834084 Z" id="Path"></path>
                <path d="M16.1000399,6.48818371 L10.3561073,6.48818371 L11.5063282,3.93605435 C11.7277323,3.44205451 11.5477571,2.84201675 11.1030928,2.59393864 C10.6566565,2.34792315 10.118503,2.54593561 9.89524269,3.04199808 L8.09523808,7.04228109 C7.95483553,7.35026922 7.97103582,7.72032376 8.13481067,8.01434226 C8.29858553,8.30836076 8.58841892,8.48837209 8.89985271,8.48837209 L16.0999555,8.48837209 C16.5967645,8.48837209 17,8.04031265 17,7.4882779 C17,6.93624316 16.5968489,6.48818371 16.1000399,6.48818371 Z" id="Path"></path>
                <path d="M23.2499824,9.48837209 L21.7500176,9.48837209 C21.3360208,9.48837209 21,9.93638934 21,10.4883721 C21,11.0403548 21.3360208,11.4883721 21.7500176,11.4883721 L23.2499824,11.4883721 C23.6639792,11.4883721 24,11.0403548 24,10.4883721 C24,9.93638934 23.6639792,9.48837209 23.2499824,9.48837209 Z" id="Path"></path>
            </g>
        </g>
    </g>
</svg>