<?xml version="1.0" encoding="UTF-8"?>
<svg width="26px" height="26px" viewBox="0 0 26 26" version="1.1" xmlns="http://www.w3.org/2000/svg" xmlns:xlink="http://www.w3.org/1999/xlink">
    <!-- Generator: Sketch 56.3 (81716) - https://sketch.com -->
    <title>124013</title>
    <desc>Created with Sketch.</desc>
    <g id="Page-1" stroke="none" stroke-width="1" fill="none" fill-rule="evenodd">
        <g id="REview_booking" transform="translate(-240.000000, -205.000000)" fill="#DD4B39" fill-rule="nonzero">
            <g id="124013" transform="translate(240.000000, 205.000000)">
                <path d="M0,0 L0,26 L26,26 L26,0 L0,0 Z M15.1568253,14.093788 C14.7122243,17.0144735 12.5346894,18.6888728 9.71549821,18.6888728 C6.54738112,18.6888728 3.97887346,16.1203651 3.97887346,12.952248 C3.97887346,9.78492967 6.54738112,7.216422 9.71549821,7.216422 C11.2480109,7.216422 12.5908279,7.763316 13.5682312,8.71265003 L11.9219011,10.3589801 C11.3643385,9.79725276 10.6013341,9.49784741 9.71549821,9.49784741 C7.85060452,9.49784741 6.33868738,11.088096 6.33868738,12.952191 C6.33868738,14.8179404 7.85060452,16.3620345 9.71549821,16.3620345 C11.2785333,16.3620345 12.4621772,15.6065039 12.8036293,14.093788 L9.71549821,14.093788 L9.71549821,11.7900555 L15.1428477,11.7900555 C15.2080004,12.1612314 15.240976,12.5496939 15.240976,12.952191 C15.240976,13.3514362 15.212051,13.7316832 15.1568253,14.093788 Z M22.0457157,13.3795054 L20.0356264,13.3795054 L20.0356264,15.3887389 L18.6078599,15.3887389 L18.6078599,13.3795054 L16.5977706,13.3795054 L16.5977706,11.9508832 L18.6078599,11.9508832 L18.6078599,9.94079389 L20.0356264,9.94079389 L20.0356264,11.9508832 L22.0457157,11.9508832 L22.0457157,13.3795054 L22.0457157,13.3795054 Z" id="Shape"></path>
            </g>
        </g>
    </g>
</svg>