<?xml version="1.0" encoding="UTF-8"?>
<svg width="1181px" height="33px" viewBox="0 0 1181 33" version="1.1" xmlns="http://www.w3.org/2000/svg" xmlns:xlink="http://www.w3.org/1999/xlink">
    <!-- Generator: Sketch 56.2 (81672) - https://sketch.com -->
    <title>Group 20</title>
    <desc>Created with Sketch.</desc>
    <g id="Page-1" stroke="none" stroke-width="1" fill="none" fill-rule="evenodd">
        <g id="Listyour-car" transform="translate(-370.000000, -835.000000)">
            <g id="Group-20" transform="translate(371.000000, 835.000000)">
                <path d="M0,20.5 L456.5,20.5" id="Line-2" stroke="#D7DCE3" stroke-linecap="square"></path>
                <path d="M723,20.5 L1179.5,20.5" id="Line-2" stroke="#D7DCE3" stroke-linecap="square"></path>
                <path d="M523.242943,32.1293878 C523.242943,32.1293878 516.729309,32.1293878 514.154152,30.7732418 C514.154152,30.7732418 522.939984,15.8556358 550.812277,16.6090502 C550.812277,16.6090502 547.78268,20.0747567 547.6312,20.5268053 L550.054878,21.1295369 L555.053713,16.6090502 C555.053713,16.6090502 572.170937,15.55427 613.524938,19.7733909 C613.524938,19.7733909 597.922513,14.198124 560.204029,13.4447096 C560.204029,13.4447096 585.501165,-14.7329906 671.390244,22.7870487 C671.390244,22.7870487 605.647986,-19.4041601 558.38627,11.0337833 C558.38627,11.0337833 554.599274,13.1433438 553.084475,13.5953925 C553.084475,13.5953925 549.751918,14.3488069 548.540079,14.3488069 C548.540079,14.3488069 528.696218,14.4994898 520.364826,20.3761224 C520.364826,20.3761224 513.396753,23.691146 509.609756,32.1293878 C509.609756,32.1293878 510.064196,34.0882653 523.242943,32.1293878" id="Fill-1" fill="#D7DCE3"></path>
            </g>
        </g>
    </g>
</svg>