<?xml version="1.0" encoding="UTF-8"?>
<svg width="73px" height="112px" viewBox="0 0 73 112" version="1.1" xmlns="http://www.w3.org/2000/svg" xmlns:xlink="http://www.w3.org/1999/xlink">
    <!-- Generator: Sketch 56.3 (81716) - https://sketch.com -->
    <title>pin</title>
    <desc>Created with Sketch.</desc>
    <g id="Page-1" stroke="none" stroke-width="1" fill="none" fill-rule="evenodd">
        <g id="How-Juzdrive-works" transform="translate(-1325.000000, -2575.000000)" fill="#FFFFFF" fill-rule="nonzero">
            <g id="pin" transform="translate(1325.000000, 2575.000000)">
                <path d="M36.4996175,0.405063291 C16.3737674,0.405063291 0,16.5218102 0,36.3317429 C0,54.0473644 12.4839937,77.2685059 22.9569322,93.6288298 C23.6323836,94.6844561 25.0490721,95.0010686 26.1219153,94.3358434 C27.1939936,93.6709947 27.5156553,92.2761676 26.8398214,91.2209178 C8.45002672,62.4916212 4.59008603,45.5146369 4.59008603,36.3317429 C4.59008603,19.0129224 18.9046065,4.92272184 36.5,4.92272184 C54.0953935,4.92272184 68.409914,19.0125459 68.409914,36.3317429 C68.409914,64.4571792 35.0213505,107.335782 34.6840073,107.765336 C33.9094948,108.752821 34.0942304,110.171366 35.0974631,110.933721 C35.5151261,111.251463 36.0089017,111.405063 36.4988526,111.405063 C37.1850133,111.405063 37.8642894,111.103133 38.3163752,110.527132 C39.7326812,108.72308 73,65.9992066 73,36.3313664 C72.999235,16.5218102 56.6258501,0.405063291 36.4996175,0.405063291 Z" id="Path"></path>
                <path d="M38,27.6473447 C39.1712232,27.6473447 40.1211407,26.6974272 40.1211407,25.526204 C40.1211407,24.3549808 39.1712232,23.4050633 38,23.4050633 C29.7289654,23.4050633 23,30.1340286 23,38.4050633 C23,46.6760979 29.7289654,53.4050633 38,53.4050633 C46.2710346,53.4050633 53,46.6760979 53,38.4050633 C53,35.1017402 51.9468536,31.9681083 49.9536884,29.3424896 C49.245581,28.4095413 47.9149187,28.2274767 46.9816168,28.9355841 C46.0486684,29.6436916 45.8662503,30.9743539 46.5747113,31.9076558 C48.002946,33.7887541 48.7577186,36.0357491 48.7577186,38.4050633 C48.7577186,44.3368333 43.93177,49.1627819 38,49.1627819 C32.06823,49.1627819 27.2422814,44.3368333 27.2422814,38.4050633 C27.2422814,32.4732933 32.0685835,27.6473447 38,27.6473447 Z" id="Path"></path>
            </g>
        </g>
    </g>
</svg>