<?xml version="1.0" encoding="UTF-8"?>
<svg width="27px" height="33px" viewBox="0 0 27 33" version="1.1" xmlns="http://www.w3.org/2000/svg" xmlns:xlink="http://www.w3.org/1999/xlink">
    <!-- Generator: Sketch 56.3 (81716) - https://sketch.com -->
    <title>locked</title>
    <desc>Created with Sketch.</desc>
    <g id="Page-1" stroke="none" stroke-width="1" fill="none" fill-rule="evenodd">
        <g id="Login" transform="translate(-1195.000000, -408.000000)" fill="#898989" fill-rule="nonzero">
            <g id="locked" transform="translate(1195.000000, 408.000000)">
                <path d="M23.3181818,12.1588148 L23.3181818,8.83259259 C23.3181818,4.09481481 18.9135,0.24 13.5,0.24 C8.0865,0.24 3.68181818,4.09481481 3.68181818,8.83259259 L3.68181818,12.1588148 C1.59484091,12.5060741 0,14.2625185 0,16.3762963 L0,27.9567407 C0,30.3182222 1.99002273,32.24 4.43597727,32.24 L22.5640227,32.24 C25.0099773,32.24 27,30.3182222 27,27.9561481 L27,16.3757037 C27,14.2625185 25.4051591,12.5060741 23.3181818,12.1588148 Z M4.90909091,8.83259259 C4.90909091,4.74785185 8.76272727,1.42518519 13.5,1.42518519 C18.2372727,1.42518519 22.0909091,4.74785185 22.0909091,8.83259259 L22.0909091,12.0918519 L4.90909091,12.0918519 L4.90909091,8.83259259 Z M25.7727273,27.9561481 C25.7727273,29.6645926 24.3331364,31.0548148 22.5640227,31.0548148 L4.43597727,31.0548148 C2.66686364,31.0548148 1.22727273,29.6645926 1.22727273,27.9561481 L1.22727273,16.3757037 C1.22727273,14.6672593 2.66686364,13.277037 4.43597727,13.277037 L22.5640227,13.277037 C24.3331364,13.277037 25.7727273,14.6672593 25.7727273,16.3757037 L25.7727273,27.9561481 Z" id="Shape"></path>
                <path d="M14,15.24 C12.897,15.24 12,16.3932857 12,17.8114286 L12,21.6685714 C12,23.0867143 12.897,24.24 14,24.24 C15.103,24.24 16,23.0867143 16,21.6685714 L16,17.8114286 C16,16.3932857 15.103,15.24 14,15.24 Z M15,21.6685714 C15,22.3776429 14.5515,22.9542857 14,22.9542857 C13.4485,22.9542857 13,22.3776429 13,21.6685714 L13,17.8114286 C13,17.1023571 13.4485,16.5257143 14,16.5257143 C14.5515,16.5257143 15,17.1023571 15,17.8114286 L15,21.6685714 Z" id="Shape"></path>
            </g>
        </g>
    </g>
</svg>