<?xml version="1.0" encoding="UTF-8"?>
<svg width="30px" height="31px" viewBox="0 0 30 31" version="1.1" xmlns="http://www.w3.org/2000/svg" xmlns:xlink="http://www.w3.org/1999/xlink">
    <!-- Generator: Sketch 56.3 (81716) - https://sketch.com -->
    <title>user</title>
    <desc>Created with Sketch.</desc>
    <g id="Page-1" stroke="none" stroke-width="1" fill="none" fill-rule="evenodd">
        <g id="Signup" transform="translate(-1194.000000, -318.000000)" fill="#898989" fill-rule="nonzero">
            <g id="user" transform="translate(1194.000000, 318.000000)">
                <path d="M25.6084981,4.88841158 C19.759396,-0.96280386 10.242025,-0.96280386 4.39292296,4.88841158 C2.34071535,6.94132497 0.936926784,9.52042021 0.333180676,12.3469807 C-0.254589006,15.0992304 -0.0620578012,17.9507309 0.88991335,20.5930412 C1.00429235,20.9103384 1.35424733,21.0748402 1.6713336,20.9605236 C1.9886234,20.8461053 2.15306866,20.4961318 2.03868965,20.1788346 C1.16405662,17.7511096 0.987196559,15.1311943 1.52734224,12.6020807 C2.08163266,10.0066982 3.37114398,7.63791278 5.25636232,5.75204609 C10.6294279,0.377132619 19.3719931,0.377132619 24.7450587,5.75204609 C27.303831,8.31180015 28.7362143,11.7143206 28.7782415,15.3330551 C28.8202687,18.9451728 27.4745854,22.3748728 24.9892844,24.9902073 C24.9598755,25.0211531 24.930772,25.0523026 24.9016684,25.0834521 C24.8501775,25.1385236 24.7987884,25.1936968 24.7450587,25.2474449 C19.3719931,30.6223584 10.6294279,30.6223584 5.25636232,25.2474449 C5.22776757,25.2188403 5.19988515,25.1897268 5.172308,25.1606132 C5.17088335,25.1042184 5.16966222,25.048638 5.16966222,24.9938719 C5.16966222,24.8709027 5.17200272,24.7484425 5.17648019,24.6263895 C5.1780066,24.5855694 5.18105942,24.5451566 5.18309463,24.5044383 C5.1870633,24.4233071 5.19082845,24.342176 5.19673056,24.261452 C5.20029219,24.2133027 5.20548198,24.1656623 5.20975593,24.1177165 C5.21616685,24.0449326 5.22217073,23.9721487 5.23010807,23.899772 C5.2357049,23.8486705 5.24303167,23.7979763 5.2494426,23.7470785 C5.25809225,23.6783664 5.26633487,23.6094507 5.27651094,23.541044 C5.28424475,23.4889246 5.29340321,23.4373142 5.30195111,23.3855002 C5.3128395,23.3188241 5.32342261,23.2521479 5.33573565,23.1858789 C5.34540292,23.1334541 5.35649483,23.0815383 5.36707794,23.029419 C5.38020507,22.9643715 5.39312868,22.8992223 5.40757869,22.834582 C5.41928117,22.7821573 5.43230654,22.7300379 5.4448231,22.6779185 C5.4600872,22.6142962 5.47524954,22.5506739 5.49173477,22.4875606 C5.50547246,22.4352376 5.52032952,22.3833218 5.53477954,22.3313042 C5.55218062,22.2690053 5.56947993,22.2066045 5.58810214,22.1447127 C5.60367152,22.0927969 5.62036027,22.0412883 5.6368455,21.9897797 C5.65638355,21.9286005 5.6759216,21.8673195 5.69657902,21.8066493 C5.71408186,21.7554461 5.73239878,21.7045482 5.7507157,21.6536504 C5.77239073,21.5933874 5.79416751,21.5331243 5.8169619,21.4732685 C5.83629643,21.422676 5.85634329,21.3725925 5.8764919,21.3224073 C5.90020214,21.263264 5.9241159,21.2041207 5.9489455,21.1454864 C5.97011172,21.0956065 5.99188851,21.0461338 6.01386882,20.9966611 C6.03961427,20.9385358 6.065665,20.880614 6.09252982,20.8230995 C6.11542597,20.7741358 6.13883093,20.7254774 6.16254117,20.6769209 C6.19042359,20.6198135 6.2186113,20.5628079 6.24751134,20.5063113 C6.27203566,20.4584674 6.29696703,20.410827 6.32230543,20.3633902 C6.35222307,20.307199 6.38264952,20.2512114 6.41368652,20.1955291 C6.43983902,20.1487031 6.4662968,20.1020807 6.49316161,20.0557637 C6.52511447,20.0006922 6.55757612,19.9459261 6.59064834,19.8913637 C6.61842901,19.8455556 6.64651496,19.7999511 6.67500795,19.7545503 C6.70899601,19.7005986 6.74349288,19.6469522 6.77849856,19.5937131 C6.80780563,19.5490248 6.83731623,19.5045401 6.86733563,19.4603608 C6.90325715,19.407427 6.93999276,19.355104 6.97703364,19.3028829 C7.00786713,19.2594161 7.03870061,19.2160511 7.07024642,19.1731952 C7.10820316,19.121483 7.14697398,19.0702797 7.18594832,19.0193819 C7.21820645,18.9772385 7.25036283,18.9350951 7.28333329,18.8934606 C7.32332523,18.8428682 7.36423303,18.7928865 7.40524258,18.7431084 C7.43872184,18.7023902 7.47220111,18.6616719 7.50639269,18.6214626 C7.54852162,18.5719899 7.59156638,18.5232298 7.63471291,18.4745714 C7.66951506,18.4352783 7.70411369,18.3958834 7.73952641,18.357201 C7.78369054,18.3089499 7.82877053,18.2616149 7.87395227,18.2142799 C7.90997555,18.1764119 7.94579531,18.1384421 7.98242915,18.1010831 C8.02873026,18.0540535 8.07604898,18.0080419 8.12326593,17.9618266 C8.16030682,17.9256892 8.19704242,17.8891445 8.23469387,17.853516 C8.28333548,17.8075044 8.33309645,17.7626125 8.3826539,17.7176188 C8.42050887,17.6833137 8.45785504,17.6486013 8.49621882,17.6148052 C8.54740444,17.5697097 8.59991295,17.5259375 8.65211618,17.48186 C8.69037819,17.4495908 8.72823317,17.4168126 8.76700399,17.3850523 C8.82103891,17.340873 8.87639671,17.298017 8.931551,17.2548557 C8.97001654,17.2248259 9.00787151,17.1940836 9.04674409,17.1645629 C9.10484944,17.1204854 9.16417592,17.0779348 9.22340063,17.0351806 C9.2607468,17.0081029 9.29738064,16.9804145 9.33523562,16.9538458 C9.40056597,16.907936 9.46742274,16.8636549 9.53407598,16.8191702 C9.56694468,16.7972841 9.59910106,16.7745837 9.63217328,16.753003 C9.7190769,16.6965064 9.80750693,16.6418421 9.89654752,16.5878904 C9.91038697,16.5795431 9.92381938,16.5705851 9.9377606,16.5622379 C10.0407424,16.5005497 10.1451489,16.4406938 10.2507764,16.3824667 C10.2869015,16.3626166 10.3240441,16.3439879 10.3605762,16.324545 C10.4306893,16.2870842 10.5005989,16.249318 10.5719331,16.2134859 C10.6176237,16.1904801 10.6644336,16.1688994 10.7105312,16.1466061 C10.7687383,16.1184087 10.8267419,16.0899059 10.8856613,16.0627265 C11.9923087,17.12018 13.4685509,17.7188403 15.0008632,17.7188403 C16.5331755,17.7188403 18.0095194,17.1200782 19.1161668,16.0625229 C21.2764442,17.0626654 23.044536,18.8572214 24.0044445,21.0395171 C24.1401933,21.3481616 24.5003243,21.4885378 24.809168,21.3526406 C25.1178081,21.2167434 25.2579326,20.8562849 25.1220821,20.5476404 C24.0721154,18.1605318 22.2441883,16.2529826 19.9304557,15.1014699 C20.6017709,14.1163932 20.9649548,12.953174 20.9649548,11.7527994 C20.9649548,8.46306853 18.289463,5.78665662 15.0008632,5.78665662 C14.66373,5.78665662 14.3902991,6.0601816 14.3902991,6.39743068 C14.3902991,6.73467975 14.66373,7.00820473 15.0008632,7.00820473 C17.6162144,7.00820473 19.7438267,9.13665052 19.7438267,11.7527994 C19.7438267,12.9226353 19.3092068,14.0491062 18.5201545,14.9244472 C18.5200527,14.924549 18.519951,14.9246508 18.5198492,14.9247526 C17.6188602,15.9241826 16.3362686,16.497394 15.0007614,16.497394 C13.6652543,16.497394 12.3825609,15.9241826 11.4816736,14.9247526 C11.4815719,14.924549 11.4813683,14.9244472 11.4811648,14.9243455 C10.6922143,14.0486991 10.2576962,12.9225335 10.2576962,11.7529012 C10.2576962,10.4759762 10.7574429,9.27804471 11.6649446,8.38000326 C11.9046928,8.14271754 11.906728,7.75599577 11.6695238,7.51626695 C11.4324214,7.27633454 11.0458326,7.27450222 10.8060845,7.51158435 C9.66504198,8.64049839 9.03656802,10.146769 9.03656802,11.752494 C9.03656802,12.9516471 9.39883604,14.1140519 10.0690319,15.0986197 C10.063028,15.1015717 10.0572276,15.1048292 10.0513255,15.1078831 C10.0037015,15.1317032 9.95719689,15.1569486 9.90997993,15.1812777 C9.83762809,15.2187385 9.76507272,15.2559958 9.69373849,15.2949835 C9.64326519,15.3224683 9.59391126,15.3513783 9.54394677,15.3795757 C9.47729352,15.4173419 9.41053852,15.4549045 9.34480112,15.4938923 C9.29381902,15.5242274 9.24365101,15.5555804 9.19317771,15.5866281 C9.13008609,15.6255141 9.06699447,15.6642982 9.00481869,15.7043039 C8.95404011,15.7369803 8.90417738,15.7705729 8.85400937,15.8039619 C8.79366528,15.8441712 8.73342296,15.8845841 8.67399472,15.9259131 C8.62403023,15.9607272 8.5746763,15.9962539 8.52532237,16.0317806 C8.46731879,16.0736186 8.40951872,16.1156602 8.35243098,16.1585162 C8.30348409,16.1952645 8.25514777,16.2325217 8.20691321,16.2699825 C8.15094483,16.3134492 8.0953835,16.3572214 8.04043274,16.4017061 C7.99280874,16.4401849 7.94559178,16.4791726 7.89857835,16.5183639 C7.84454343,16.5635612 7.79091555,16.6092675 7.73779648,16.6554827 C7.69169889,16.6954884 7.64590659,16.7357995 7.60052132,16.7766196 C7.54811457,16.823751 7.49642015,16.8713913 7.44503101,16.9194389 C7.40066335,16.9608697 7.35639745,17.0024024 7.31264036,17.0446476 C7.26186178,17.0937131 7.21189729,17.1434912 7.16203456,17.1934729 C7.11949859,17.2361252 7.07696263,17.2786758 7.03524075,17.321939 C6.98588682,17.3731422 6.93744874,17.4252616 6.88911242,17.477381 C6.84871343,17.5209496 6.80800915,17.5643145 6.76832249,17.6085956 C6.71998617,17.6623437 6.67297273,17.7172116 6.62575578,17.7718759 C6.58779905,17.8158516 6.54953703,17.8594202 6.51229262,17.9039049 C6.46436334,17.9612158 6.41796047,18.0196466 6.37125232,18.0778737 C6.33655193,18.1212386 6.30113921,18.1639928 6.26704939,18.2078668 C6.21800074,18.2709801 6.17058026,18.335315 6.12295626,18.3994462 C6.09303862,18.4397573 6.0623069,18.4793558 6.03299982,18.5200741 C5.9727575,18.6035466 5.91444863,18.6882406 5.85664857,18.7733417 C5.84148623,18.7957368 5.82540804,18.8175211 5.81034746,18.8400179 C5.73840266,18.9475141 5.66849307,19.0562319 5.60041518,19.1661713 C5.57690846,19.204141 5.55482639,19.2429252 5.53182848,19.2810986 C5.48776611,19.3542897 5.44350021,19.427379 5.40106601,19.501588 C5.37460823,19.547905 5.3495751,19.5950364 5.32382965,19.6417607 C5.286687,19.7089458 5.24934084,19.7759274 5.2137246,19.8439269 C5.18726682,19.8943157 5.16223369,19.9453154 5.13648824,19.9961114 C5.10331426,20.0616678 5.07003852,20.1271224 5.03818743,20.1933914 C5.01284902,20.2461216 4.98873174,20.2994625 4.96420741,20.3524981 C4.93408625,20.4179527 4.90386333,20.4833055 4.8749633,20.5493709 C4.8511513,20.6038316 4.82835691,20.6588013 4.80546075,20.7136691 C4.77788361,20.7795309 4.75050999,20.8453927 4.72425573,20.9117635 C4.70217367,20.9675475 4.68100744,21.023637 4.65984122,21.0797264 C4.6348081,21.1463007 4.61008025,21.2129769 4.58626825,21.2800603 C4.56611964,21.336964 4.54658159,21.3941732 4.52724706,21.4514842 C4.50455443,21.5187711 4.48247236,21.5862617 4.46110262,21.6541594 C4.44288746,21.7118775 4.42528286,21.7697993 4.40798354,21.8278228 C4.38763141,21.8963313 4.3679916,21.9650434 4.34896235,22.0340608 C4.33288416,22.092288 4.31711126,22.1506169 4.30194891,22.2092512 C4.28393727,22.2789812 4.26684148,22.3490167 4.25015273,22.4192557 C4.23621152,22.47789 4.22237206,22.5364225 4.20944846,22.5952604 C4.19377731,22.6664156 4.17922554,22.7379779 4.16497904,22.8096421 C4.15327656,22.8682764 4.14137056,22.9269107 4.13058393,22.9858504 C4.11725328,23.0589397 4.10524552,23.1324362 4.09333952,23.2060344 C4.08397754,23.264058 4.07410675,23.3219797 4.06566062,23.3802068 C4.0545687,23.4561464 4.04520672,23.5324932 4.03564122,23.6088399 C4.02861973,23.6654383 4.02088592,23.7219349 4.01467852,23.7787369 C4.0059271,23.8587483 3.9992109,23.9392687 3.99218941,24.0197891 C3.98750842,24.0734354 3.98191158,24.1268781 3.97804467,24.1808298 C3.97153199,24.2707154 3.96725804,24.3610082 3.96288233,24.4514027 C3.96074536,24.4962946 3.95738726,24.5408811 3.95575909,24.5858748 C3.95087457,24.7214667 3.94812703,24.8575675 3.94812703,24.9941773 C3.94812703,25.1416792 3.95311331,25.2811393 3.95911719,25.4351562 C3.96054184,25.4707846 3.96552811,25.5053952 3.97265136,25.5391913 C3.97326192,25.541838 3.9735672,25.5444847 3.97417777,25.5471314 C3.98170806,25.5804186 3.99229117,25.6123824 4.00501125,25.6433283 C4.00623238,25.6463822 4.00735175,25.6494361 4.00867464,25.6524899 C4.02180177,25.6830286 4.03747291,25.7121422 4.05517927,25.7398306 C4.057418,25.7432917 4.05955498,25.7467527 4.06179371,25.750112 C4.08000887,25.7772914 4.10025925,25.8028421 4.12234132,25.8266623 C4.12396949,25.8283928 4.12508885,25.8305306 4.12671703,25.8322611 L4.20731148,25.9180748 C4.26816437,25.9832241 4.32901726,26.0481697 4.39251592,26.1115884 C7.31711783,29.0371961 11.1586852,30.5 15.0003544,30.5 C18.8420235,30.5 22.6835909,29.0371961 25.6081928,26.1115884 C25.6716915,26.0481697 25.7325444,25.9831223 25.7933973,25.9180748 L25.8739917,25.8322611 C28.5797064,22.9849342 30.0446531,19.251476 29.9989626,15.3193127 C29.9534756,11.379311 28.3940949,7.67496641 25.6084981,4.88841158 Z" id="Path"></path>
            </g>
        </g>
    </g>
</svg>