<?xml version="1.0" encoding="UTF-8"?>
<svg width="26px" height="26px" viewBox="0 0 26 26" version="1.1" xmlns="http://www.w3.org/2000/svg" xmlns:xlink="http://www.w3.org/1999/xlink">
    <!-- Generator: Sketch 56.3 (81716) - https://sketch.com -->
    <title>174848</title>
    <desc>Created with Sketch.</desc>
    <g id="Page-1" stroke="none" stroke-width="1" fill="none" fill-rule="evenodd">
        <g id="REview_booking" transform="translate(-211.000000, -205.000000)" fill="#475993" fill-rule="nonzero">
            <g id="174848" transform="translate(211.000000, 204.958333)">
                <path d="M22.4963587,0.0416666667 L3.50357768,0.0416666667 C1.56864366,0.0416666667 0,1.61023522 0,3.54521863 L0,22.5379875 C0,24.4729709 1.56858006,26.0416667 3.50357768,26.0416667 L12.8707267,26.0416667 L12.886691,16.7505916 L10.4728892,16.7505916 C10.1591986,16.7505916 9.90459533,16.4969442 9.90338687,16.183256 L9.8918111,13.188398 C9.89060264,12.8729924 10.1459692,12.6166738 10.461377,12.6166738 L12.8707903,12.6166738 L12.8707903,9.7228804 C12.8707903,6.36466049 14.9218,4.53608431 17.9175704,4.53608431 L20.3758308,4.53608431 C20.6903482,4.53608431 20.9453967,4.79106733 20.9453967,5.10564604 L20.9453967,7.63092565 C20.9453967,7.94537715 20.690539,8.20029657 20.3761488,8.20048738 L18.8675465,8.201187 C17.2383527,8.201187 16.9228812,8.97535846 16.9228812,10.1114926 L16.9228812,12.6167374 L20.5027826,12.6167374 C20.8438862,12.6167374 21.1085387,12.9145886 21.0683415,13.2533363 L20.7133726,16.2481943 C20.6794085,16.5347878 20.436381,16.7507188 20.1478136,16.7507188 L16.9388456,16.7507188 L16.9228812,26.0416667 L22.4964859,26.0416667 C24.4314199,26.0416667 26,24.4730981 26,22.5381783 L26,3.54521863 C26,1.61023522 24.4313563,0.0416666667 22.4963587,0.0416666667 Z" id="Path"></path>
            </g>
        </g>
    </g>
</svg>