<?xml version="1.0" encoding="UTF-8"?>
<svg width="19px" height="29px" viewBox="0 0 19 29" version="1.1" xmlns="http://www.w3.org/2000/svg" xmlns:xlink="http://www.w3.org/1999/xlink">
    <!-- Generator: Sketch 56.2 (81672) - https://sketch.com -->
    <title>pin</title>
    <desc>Created with Sketch.</desc>
    <g id="Page-1" stroke="none" stroke-width="1" fill="none" fill-rule="evenodd">
        <g id="Listyour-car" transform="translate(-386.000000, -327.000000)" fill="#A1AAB3" fill-rule="nonzero">
            <g id="pin" transform="translate(386.000000, 326.519231)">
                <path d="M9.49990045,0.480769231 C4.2616655,0.480769231 0,4.69145085 0,9.86701886 C0,14.4954245 3.24925863,20.5622092 5.97509195,24.8365281 C6.15089436,25.1123223 6.51962151,25.1950409 6.79885467,25.0212433 C7.07788874,24.8475441 7.16160891,24.4831298 6.98570695,24.2074339 C2.19932202,16.7015817 1.19467993,12.2661533 1.19467993,9.86701886 C1.19467993,5.34228197 4.92037703,1.6610584 9.5,1.6610584 C14.079623,1.6610584 17.8053201,5.34218361 17.8053201,9.86701886 C17.8053201,17.2151058 9.11514602,28.4176238 9.02734436,28.5298496 C8.82575893,28.7878411 8.87384079,29.1584519 9.13495615,29.3576257 C9.24366296,29.4406394 9.3721799,29.4807692 9.49970135,29.4807692 C9.67829112,29.4807692 9.85508902,29.4018866 9.97275518,29.2513997 C10.3413828,28.7800709 19,17.6179778 19,9.8669205 C18.9998009,4.69145085 14.738235,0.480769231 9.49990045,0.480769231 Z" id="Path"></path>
                <path d="M10,7.61204427 C10.3123262,7.61204427 10.5656375,7.35873294 10.5656375,7.04640675 C10.5656375,6.73408057 10.3123262,6.48076923 10,6.48076923 C7.79439076,6.48076923 6,8.27515999 6,10.4807692 C6,12.6863785 7.79439076,14.4807692 10,14.4807692 C12.2056092,14.4807692 14,12.6863785 14,10.4807692 C14,9.59988307 13.719161,8.7642479 13.1876502,8.06408292 C12.9988216,7.81529669 12.6439783,7.76674613 12.3950978,7.95557479 C12.1463116,8.14440345 12.0976667,8.49924672 12.2865897,8.74812723 C12.6674523,9.24975344 12.868725,9.84895212 12.868725,10.4807692 C12.868725,12.0625746 11.5818053,13.3494942 10,13.3494942 C8.41819467,13.3494942 7.13127504,12.0625746 7.13127504,10.4807692 C7.13127504,8.8989639 8.41828895,7.61204427 10,7.61204427 Z" id="Path"></path>
            </g>
        </g>
    </g>
</svg>