<?xml version="1.0" encoding="UTF-8"?>
<svg width="113px" height="121px" viewBox="0 0 113 121" version="1.1" xmlns="http://www.w3.org/2000/svg" xmlns:xlink="http://www.w3.org/1999/xlink">
    <!-- Generator: Sketch 56.2 (81672) - https://sketch.com -->
    <title>Group 13</title>
    <desc>Created with Sketch.</desc>
    <g id="Page-1" stroke="none" stroke-width="1" fill="none" fill-rule="evenodd">
        <g id="How-Juzdrive-works" transform="translate(-504.000000, -2571.000000)" fill="#FFFFFF" fill-rule="nonzero">
            <g id="Group-13" transform="translate(504.000000, 2571.441860)">
                <path d="M60,67 L60,120 L113,120 L113,67 L60,67 Z M108.583333,115.583333 L88.7083333,115.583333 L88.7083333,87.78925 L98.1887083,97.269625 L101.311292,94.1470417 L86.5,79.33575 L71.6887083,94.1470417 L74.8112917,97.269625 L84.2916667,87.78925 L84.2916667,115.583333 L64.4166667,115.583333 L64.4166667,71.4166667 L108.583333,71.4166667 L108.583333,115.583333 Z" id="Shape"></path>
                <path d="M43.5,26 C34.9528571,26 28,32.9550714 28,41.5 C28,50.0449286 34.9528571,57 43.5,57 C52.0471429,57 59,50.0449286 59,41.5 C59,32.9550714 52.0471429,26 43.5,26 Z M43.5,52.5714286 C37.3952143,52.5714286 32.4285714,47.6047857 32.4285714,41.5 C32.4285714,35.3952143 37.3952143,30.4285714 43.5,30.4285714 C49.6047857,30.4285714 54.5714286,35.3952143 54.5714286,41.5 C54.5714286,47.6047857 49.6047857,52.5714286 43.5,52.5714286 Z" id="Shape"></path>
                <path d="M48.6366445,103.97382 L42.0898571,112.549636 L11.9054219,68.8873451 C0.51808586,53.6794764 2.14985454,28.6957476 15.4011304,15.4250612 C22.5064426,8.30816483 31.955369,4.38772898 42.0022454,4.38772898 C52.0491218,4.38772898 61.4980481,8.30816483 68.6055507,15.4250612 C78.308551,25.1460748 82.0889976,41.6351603 78.0106711,56.4591027 C77.6886979,57.6262386 78.3742598,58.835058 79.539496,59.1553622 C80.7069224,59.4778603 81.9115839,58.7911807 82.2313667,57.6240448 C86.7148976,41.3258254 82.4832505,23.1211379 71.7004354,12.3229369 C63.7693825,4.37675966 53.2231192,0 42.0022454,0 C30.7835619,0 20.2351083,4.37675966 12.3018651,12.3229369 C-2.37748219,27.0262167 -4.20199671,54.6908479 8.35276583,71.4519726 L41.9146336,120 L52.1170209,106.637171 C52.8507693,105.676259 52.6689749,104.298512 51.707436,103.563567 C50.7480875,102.828623 49.3725831,103.010713 48.6366445,103.97382 Z" id="Path"></path>
            </g>
        </g>
    </g>
</svg>