<?xml version="1.0" encoding="UTF-8"?>
<svg width="135px" height="102px" viewBox="0 0 135 102" version="1.1" xmlns="http://www.w3.org/2000/svg" xmlns:xlink="http://www.w3.org/1999/xlink">
    <!-- Generator: Sketch 56.3 (81716) - https://sketch.com -->
    <title>departures</title>
    <desc>Created with Sketch.</desc>
    <g id="Page-1" stroke="none" stroke-width="1" fill="none" fill-rule="evenodd">
        <g id="How-Juzdrive-works" transform="translate(-893.000000, -2580.000000)" fill="#FFFFFF" fill-rule="nonzero">
            <g id="departures" transform="translate(893.000000, 2580.000000)">
                <path d="M109.6875,5.69382022 C93.7857129,5.69382022 75.5269629,14.0524832 74.75625,14.4020268 C73.3442871,15.0559349 72.7257129,16.7299396 73.3780371,18.1444948 C74.030625,19.5535016 75.70125,20.1735915 77.1129492,19.5254959 C77.2930371,19.4409502 95.0341992,11.3301118 109.687236,11.3301118 C124.030986,11.3301118 129.374824,14.7851245 129.374824,16.9664034 C129.374824,27.4783395 41.3210742,62.0575286 22.4999121,62.0575286 C19.33875,62.0575286 10.8675,62.0575286 6.89607422,61.335984 C8.74098633,59.881798 12.0484863,57.8133348 15.3504492,56.1055117 C16.0647363,55.7335107 16.5823242,55.0854151 16.7848242,54.3075947 C16.9873242,53.5297743 16.8467871,52.7012265 16.4022363,52.0362218 L6.43464844,37.0491763 L8.99411133,34.4845355 L29.6773242,44.8498377 C30.4649121,45.2442962 31.3985742,45.2442962 32.1916992,44.8498377 L49.0666992,36.3952682 C50.4559863,35.6964452 51.0241992,34.0055313 50.3267871,32.6131694 C49.629375,31.22662 47.941875,30.6572576 46.5523242,31.3563448 L30.9374121,39.1797279 L9.69732422,28.5325186 C8.61178711,27.9914262 7.30661133,28.1998842 6.45178711,29.0622502 L0.826875,34.6985418 C-0.123662109,35.6510019 -0.27,37.1390061 0.4725,38.2550093 L10.006875,52.5825983 C0,58.1797875 0,60.9584346 0,62.0575286 C0,67.1358186 7.205625,67.6938202 22.4999121,67.6938202 C37.4735742,67.6938202 135,34.6927293 135,16.9664034 C135,13.573479 132.53625,5.69382022 109.6875,5.69382022 Z" id="Path"></path>
                <path d="M83.9790176,19.8489423 C83.8387236,18.7513239 83.0638169,17.8433012 81.9967407,17.5257414 L25.8441633,0.812066034 C24.8557886,0.516704052 23.7889757,0.784122858 23.0532881,1.50855622 L11.8226673,12.6510935 C11.2049003,13.2640153 10.9074666,14.1273811 11.0253872,14.9910081 C11.1433078,15.854635 11.6600001,16.6122346 12.418061,17.041306 L51.7248389,39.3261194 C52.1573022,39.5713403 52.6400396,39.6938202 53.1175128,39.6938202 C53.6173592,39.6938202 54.1169425,39.5601108 54.560724,39.2981762 L82.6371443,22.5845008 C83.5915642,22.0162359 84.113784,20.9410765 83.9790176,19.8489423 Z M53.0780304,33.6823813 L18.3925291,14.0158696 L25.8439001,6.62842506 L74.2924196,21.0523269 L53.0780304,33.6823813 Z" id="Shape"></path>
                <path d="M127.124554,8.69382022 C114.713441,8.69382022 108.133829,14.7276267 107.857768,14.981046 C106.730613,16.0434976 106.713359,17.7668525 107.811669,18.856917 C108.36945,19.413046 109.122954,19.6938202 109.876458,19.6938202 C110.589523,19.6938202 111.30852,19.4406589 111.866301,18.9340783 C112.079008,18.7413041 117.180459,14.1993686 127.124284,14.1993686 C128.71163,14.1993686 130,12.9660783 130,11.4465944 C130,9.92711055 128.711899,8.69382022 127.124554,8.69382022 Z" id="Path"></path>
                <path d="M112.91584,75.57147 L104.518064,41.825998 C104.143051,40.3129881 102.608882,39.4018604 101.125362,39.7788606 C99.6250473,40.1555971 98.712314,41.6799434 99.0875896,43.1871532 L106.936623,74.744706 L99.7481272,78.3554715 L75.9711366,49.1656382 C74.98571,47.9563375 73.2221771,47.7820738 72.0296929,48.7662289 C70.8316976,49.7561839 70.6524576,51.5278212 71.6321107,52.7257855 L96.8254387,83.659047 C97.3684074,84.3339564 98.1745939,84.6938202 98.9920649,84.6938202 C99.4174648,84.6938202 99.8431271,84.5981202 100.257242,84.390111 L111.454365,78.7659535 C112.624805,78.1754078 113.234956,76.847998 112.91584,75.57147 Z" id="Path"></path>
                <path d="M65.1663236,96.6938202 L2.83341081,96.6938202 C1.26941692,96.6938202 0,97.8138633 0,99.1938202 C0,100.573777 1.26941692,101.69382 2.83341081,101.69382 L65.1665892,101.69382 C66.7305831,101.69382 68,100.573777 68,99.1938202 C68,97.8138633 66.7303175,96.6938202 65.1663236,96.6938202 Z" id="Path"></path>
            </g>
        </g>
    </g>
</svg>