<?xml version="1.0" encoding="UTF-8"?>
<svg width="45px" height="24px" viewBox="0 0 45 24" version="1.1" xmlns="http://www.w3.org/2000/svg" xmlns:xlink="http://www.w3.org/1999/xlink">
    <!-- Generator: Sketch 57.1 (83088) - https://sketch.com -->
    <title>airconditioned</title>
    <desc>Created with Sketch.</desc>
    <g id="Page-1" stroke="none" stroke-width="1" fill="none" fill-rule="evenodd">
        <g id="Care-Detail" transform="translate(-1293.000000, -1601.000000)" fill="#868686" fill-rule="nonzero">
            <g id="airconditioned" transform="translate(1293.000000, 1601.000000)">
                <path d="M39.8245514,7.85958641 C36.8714554,3.37326433 31.7052822,0.615384615 26.165518,0.615384615 C20.6466926,0.615384615 15.4987949,3.35238001 12.5401887,7.80861453 L8.0236673,7.80879151 C3.5993498,7.80888001 0,11.2771803 0,15.5403234 C0,18.0359988 2.1070059,20.0663788 4.69698021,20.0663788 L6.90491448,20.0663788 C7.26371987,22.0788832 9.0865835,23.6153846 11.2758749,23.6153846 C13.4651664,23.6153846 15.28803,22.0787947 15.6468354,20.0663788 L29.3531646,20.0663788 C29.71197,22.0788832 31.5348336,23.6153846 33.7241251,23.6153846 C35.9134165,23.6153846 37.7362801,22.0787947 38.0950855,20.0663788 L40.3030198,20.0663788 C42.8929023,20.0663788 45,18.0360873 45,15.5403234 L45,13.5610038 C45,10.6487041 42.741923,8.23497309 39.8245514,7.85958641 Z M35.4051931,19.3406489 C35.4051931,20.2338958 34.6510313,20.9605991 33.7240332,20.9605991 C32.7970351,20.9605991 32.0428734,20.2338958 32.0428734,19.3406489 C32.0428734,18.4474021 32.7970351,17.7206988 33.7240332,17.7206988 C34.6510313,17.7206988 35.4051931,18.4474906 35.4051931,19.3406489 Z M12.9569429,19.3406489 C12.9569429,20.2338958 12.2027812,20.9605991 11.2757831,20.9605991 C10.348785,20.9605991 9.59462328,20.2338958 9.59462328,19.3406489 C9.59462328,18.4474021 10.348785,17.7206988 11.2757831,17.7206988 C12.2027812,17.7206988 12.9569429,18.4474906 12.9569429,19.3406489 Z M33.7241251,15.0660018 C31.998149,15.0660018 30.5002949,16.0213706 29.7672556,17.4115933 L15.2326526,17.4115933 C14.4997051,16.0213706 13.001851,15.0660018 11.2757831,15.0660018 C9.5497152,15.0660018 8.05195296,16.0213706 7.31891363,17.4115933 L4.69698021,17.4115933 C3.62625791,17.4115933 2.75509642,16.5721501 2.75509642,15.5403234 C2.75509642,12.7410291 5.11850996,10.4636655 8.0236673,10.4635771 L13.3163912,10.4634001 C13.8108392,10.4634001 14.2673586,10.2079212 14.5125622,9.79412863 C16.8970063,5.76991622 21.3620993,3.27008166 26.1654262,3.27008166 C30.968845,3.27008166 35.4340297,5.7700932 37.8184738,9.7944826 C38.0636774,10.2082752 38.5202887,10.463754 39.0147367,10.463754 L39.0305326,10.463754 C40.8028861,10.463754 42.2448117,11.8531803 42.2448117,13.5610038 L42.2448117,15.5403234 C42.2448117,16.5720616 41.3737421,17.4115933 40.302928,17.4115933 L37.6809027,17.4115933 C36.9479552,16.0213706 35.4501011,15.0660018 33.7241251,15.0660018 Z" id="Shape"></path>
                <path d="M26.5442888,14.3077024 C25.7116333,14.851333 24.6665219,14.9641314 23.7475591,14.6094291 C23.0113812,14.3251807 22.4314894,13.7752435 22.1143451,13.0609738 C21.7972941,12.346614 21.7847912,11.5618002 22.079169,10.8511343 C22.270538,10.3891293 22.0378348,9.86477894 21.5593658,9.67999499 C21.0808968,9.49539122 20.5379539,9.71981679 20.3464917,10.1819118 C19.8669963,11.339627 19.8857507,12.6141948 20.3991158,13.770919 C20.9126676,14.927553 21.8557031,15.8194892 23.0545815,16.2824852 C23.6323272,16.5056494 24.2403038,16.6153846 24.8464143,16.6153846 C25.8075511,16.6153846 26.7643025,16.3392448 27.5894936,15.8003892 C28.0163648,15.5216366 28.1284243,14.9615187 27.8398314,14.549336 C27.5511451,14.1371534 26.9711601,14.0292201 26.5442888,14.3077024 Z" id="Path"></path>
                <path d="M25.944565,4.94832678 C24.4509785,4.37147727 22.7559772,4.55174837 21.4104433,5.43049117 C20.9836377,5.7092312 20.8715954,6.26932387 21.160144,6.68148794 C21.4489725,7.09365201 22.0288683,7.20176062 22.4555807,6.92320077 C23.2879216,6.37968475 24.3333388,6.26662116 25.2516939,6.62139757 C26.784649,7.21338229 27.5329349,8.89933603 26.920014,10.3797032 C26.7286745,10.8416873 26.9614352,11.365924 27.4398306,11.5506996 C27.5534589,11.5945737 27.6706322,11.6153846 27.7859396,11.6153846 C28.156211,11.6152945 28.5066114,11.4009692 28.652425,11.0487153 C29.6474651,8.64582134 28.4327251,5.90932221 25.944565,4.94832678 Z" id="Path"></path>
            </g>
        </g>
    </g>
</svg>