<?xml version="1.0" encoding="UTF-8"?>
<svg width="28px" height="31px" viewBox="0 0 28 31" version="1.1" xmlns="http://www.w3.org/2000/svg" xmlns:xlink="http://www.w3.org/1999/xlink">
    <!-- Generator: Sketch 57.1 (83088) - https://sketch.com -->
    <title>musical-note</title>
    <desc>Created with Sketch.</desc>
    <g id="Page-1" stroke="none" stroke-width="1" fill="none" fill-rule="evenodd">
        <g id="Care-Detail" transform="translate(-970.000000, -1531.000000)" fill="#868686" fill-rule="nonzero">
            <g id="musical-note" transform="translate(970.000000, 1531.000000)">
                <path d="M28,6.8283456 L28,0.878000152 C28,0.598671708 27.8634146,0.332335285 27.6422764,0.169935027 C27.4146341,0.00753476879 27.1219512,-0.0444333138 26.8552846,0.0400148204 L9.10569106,5.67205577 C8.74146341,5.78898395 8.49430894,6.12677649 8.49430894,6.5100411 L8.49430894,12.4668826 L8.49430894,12.4733786 L8.49430894,23.8608847 C7.56422764,23.2177796 6.37398374,22.8669951 5.12520325,22.8669951 C3.80487805,22.8669951 2.5495935,23.2632517 1.59349593,23.9778128 C0.565853659,24.7508381 0,25.7966957 0,26.9334975 C0,28.0702993 0.565853659,29.116157 1.59349593,29.8891822 C2.5495935,30.6037434 3.79837398,31 5.12520325,31 C6.45203252,31 7.70081301,30.6037434 8.65691057,29.8891822 C9.68455285,29.116157 10.2504065,28.0702993 10.2504065,26.9334975 L10.2504065,13.1099876 L26.2439024,8.03010751 L26.2439024,18.2028597 C25.3138211,17.5597547 24.1235772,17.2089701 22.8747967,17.2089701 C21.5544715,17.2089701 20.299187,17.6052267 19.3430894,18.3197879 C18.3154472,19.0928131 17.7495935,20.1386707 17.7495935,21.2754726 C17.7495935,22.4122744 18.3154472,23.458132 19.3430894,24.2311572 C20.299187,24.9457184 21.5479675,25.341975 22.8747967,25.341975 C24.201626,25.341975 25.4504065,24.9457184 26.4065041,24.2311572 C27.4341463,23.458132 28,22.4122744 28,21.2754726 L28,6.83484161 C28,6.8283456 28,6.8283456 28,6.8283456 Z M5.12520325,29.2460772 C3.29756098,29.2460772 1.75609756,28.1872275 1.75609756,26.9334975 C1.75609756,25.6797675 3.29756098,24.6209179 5.12520325,24.6209179 C6.95284553,24.6209179 8.49430894,25.6797675 8.49430894,26.9334975 C8.49430894,28.1937235 6.95284553,29.2460772 5.12520325,29.2460772 Z M10.2504065,11.2651207 L10.2504065,7.14665011 L26.2439024,2.07326605 L26.2439024,6.19173659 L10.2504065,11.2651207 Z M22.8813008,23.5880522 C21.0536585,23.5880522 19.5121951,22.5292025 19.5121951,21.2754726 C19.5121951,20.0217426 21.0536585,18.9628929 22.8813008,18.9628929 C24.7089431,18.9628929 26.2504065,20.0217426 26.2504065,21.2754726 C26.2439024,22.5292025 24.702439,23.5880522 22.8813008,23.5880522 Z" id="Shape"></path>
            </g>
        </g>
    </g>
</svg>