<?xml version="1.0" encoding="UTF-8"?>
<svg width="29px" height="31px" viewBox="0 0 29 31" version="1.1" xmlns="http://www.w3.org/2000/svg" xmlns:xlink="http://www.w3.org/1999/xlink">
    <!-- Generator: Sketch 57.1 (83088) - https://sketch.com -->
    <title>Child seat</title>
    <desc>Created with Sketch.</desc>
    <g id="Page-1" stroke="none" stroke-width="1" fill="none" fill-rule="evenodd">
        <g id="Care-Detail" transform="translate(-1292.000000, -1531.000000)" fill="#868686" fill-rule="nonzero">
            <g id="Child-seat" transform="translate(1292.000000, 1531.000000)">
                <path d="M27.0170225,14.8310022 L21.0318963,14.0232458 C20.0533215,13.8911819 19.0890103,14.3305733 18.6276019,15.1187408 L18,16.1908197 C19.2688911,15.9042487 20.4506153,15.7178284 21.4974109,15.7178284 C23.921516,15.7178284 25.5512494,16.7454104 25.9208083,18.9217409 L26.3268189,18.9765514 C27.5985916,19.1481826 28.7834135,18.3591719 28.9739561,17.2144449 C29.1645707,16.0697178 28.288363,15.0026335 27.0170225,14.8310022 Z" id="Path"></path>
                <path d="M9.91525014,10.5576192 C9.56487183,10.7365939 9.25901106,10.964218 9,11.2262528 C9.69492611,12.677497 10.271116,14.622619 10.7349488,16.1658884 C10.9314707,16.8198218 11.4039464,17.3792248 12.0312388,17.700786 C12.4131017,17.8965045 12.8435979,18 13.2762204,18 C13.5492932,18 13.8196223,17.9595247 14.0797309,17.8796288 C15.259754,17.5172627 16.3892232,17.1677512 17.4636115,16.8790185 L15.4217045,13.1871958 L20.1060593,9.83941318 C21.0883258,9.13742367 21.2924617,7.80305691 20.5619353,6.85907252 C19.831546,5.91508813 18.4429285,5.71897406 17.4607306,6.42096357 L12.1718565,10.2007904 C11.4255535,10.0829902 10.6346643,10.1901113 9.91525014,10.5576192 Z" id="Path"></path>
                <path d="M21.278195,17.323539 C19.3822996,17.323539 16.701852,18.17603 13.9752958,19.0234295 C13.536699,19.1597318 13.0834634,19.2271605 12.6317129,19.2271605 C11.9129289,19.2271605 11.1978222,19.0565246 10.5514541,18.7210326 C9.49880751,18.1747916 8.71616461,17.2377394 8.38513078,16.1226206 C7.28743644,12.4249148 6.13550093,8.54907354 4.10262364,9.04267894 C0.774605649,9.85079092 -0.859135781,14.6542581 0.453543139,19.7716126 C1.1463734,22.4725437 2.52156758,24.7206706 4.15509685,26.1231182 C4.32722596,26.2999464 4.51441813,26.4676924 4.71419822,26.6270443 C4.65055147,27.0774403 4.25360788,29.8861196 4.18932466,30.3406439 C4.14003379,30.6893465 4.418948,31 4.78017869,31 L17.448287,31 C17.8100127,31 18.0883611,30.6888648 18.039141,30.3406439 C17.9905573,29.9971017 17.6494814,27.5837057 17.6042215,27.2634884 C21.9623976,25.4356897 24.6578375,22.0098316 23.8606973,18.9020579 C23.5650228,17.7490277 22.6172519,17.323539 21.278195,17.323539 Z" id="Path"></path>
                <path d="M6.78922261,7.94794633 C10.409868,8.46305432 13.2170232,5.05575804 11.4644208,2.122591 C10.2994131,0.172601808 7.57792531,-0.567889346 5.38596098,0.468573386 C3.19399665,1.50503612 2.36161757,3.92609362 3.52676571,5.87608282 C4.20346869,7.00862075 5.42570508,7.75398438 6.78922261,7.94794633 Z" id="Path"></path>
            </g>
        </g>
    </g>
</svg>