<?xml version="1.0" encoding="UTF-8"?>
<svg width="27px" height="29px" viewBox="0 0 27 29" version="1.1" xmlns="http://www.w3.org/2000/svg" xmlns:xlink="http://www.w3.org/1999/xlink">
    <!-- Generator: Sketch 57.1 (83088) - https://sketch.com -->
    <title>diesel_gray</title>
    <desc>Created with Sketch.</desc>
    <g id="Page-1" stroke="none" stroke-width="1" fill="none" fill-rule="evenodd">
        <g id="Care-Detail" transform="translate(-1474.000000, -1595.000000)" fill="#868686" fill-rule="nonzero">
            <g id="diesel_gray" transform="translate(1474.000000, 1595.000000)">
                <path d="M7.78087299,17 C8.08142197,17 8.37519575,16.9058228 8.62804715,16.7244756 L15.4799682,11.8188523 C16.1404171,11.345724 16.3217222,10.424413 15.8929859,9.72172775 C15.6783468,9.37052528 15.3444637,9.12723417 14.9523136,9.03754159 C14.5609766,8.94700813 14.1577152,9.02156505 13.819496,9.24663738 L6.81147375,13.9095302 C6.47135741,14.1357236 6.2391027,14.4855247 6.15698695,14.8947471 C6.07460021,15.3036892 6.15265081,15.7204794 6.37623323,16.0671972 L6.53287648,16.3104883 C6.75727194,16.6586076 7.09955628,16.8934901 7.49685554,16.9719711 C7.59170866,16.9907504 7.68656185,17 7.78087299,17 Z M7.32151269,15.7678482 L7.16486951,15.5239965 C7.08248277,15.3967452 7.05375578,15.2442678 7.08437978,15.0945933 C7.1144618,14.9443582 7.19955866,14.8162661 7.32368076,14.7333004 L14.331974,10.0704076 C14.421678,10.0109863 14.5235774,9.9804348 14.6276448,9.9804348 C14.6672122,9.9804348 14.7075925,9.98463915 14.7474309,9.99388868 C14.8907946,10.0266825 15.0132907,10.1160948 15.0918833,10.2447476 C15.2490685,10.5023334 15.1826713,10.840082 14.9406603,11.0133008 L8.08901023,15.9189241 C7.96678514,16.0066547 7.81989829,16.0380471 7.67463745,16.0097379 C7.52883457,15.9808681 7.40335744,15.8950995 7.32151269,15.7678482 Z" id="Shape"></path>
                <path d="M26.125,19.0881839 C26.125,16.9504085 23.1477366,12.7744222 22.2066041,11.50755 L22.2066041,7.62796837 C22.2066041,6.6552119 21.5732034,5.83981307 20.7085835,5.564008 L20.7085835,3.79988551 C20.7085835,2.80738783 19.9173931,2 18.9454314,2 L16.0755097,2 C15.103548,2 14.3123577,2.80738783 14.3123577,3.79988551 L14.3123577,5.45586041 L14.0306906,5.45586041 C13.6049668,5.45586041 13.1935367,5.58403538 12.8409623,5.82722445 L3.78137076,12.06431 C2.7441071,12.7784277 2.125,13.9674794 2.125,15.2443654 L2.125,25.6909114 C2.125,27.5156882 3.5790189,29 5.36655404,29 L18.96505,29 C20.7525852,29 22.2068843,27.5156882 22.2068843,25.6909114 L22.2068843,23.6850304 C24.4170603,23.3685984 26.125,21.4305242 26.125,19.0881839 L26.125,19.0881839 Z M15.2921669,3.79988551 C15.2921669,3.35899796 15.6436202,2.99993644 16.0755097,2.99993644 L18.9454314,2.99993644 C19.3773209,2.99993644 19.7287743,3.35899796 19.7287743,3.79988551 L19.7287743,5.45586041 L15.2921669,5.45586041 L15.2921669,3.79988551 Z M18.96505,28.0000636 L5.36627379,28.0000636 C4.11881083,28.0000636 3.10424862,26.964078 3.10424862,25.6909114 L3.10424862,15.2443654 C3.10424862,14.3002194 3.56220295,13.4213053 4.32929039,12.8931557 L13.3891622,6.65578408 C13.5791824,6.52503418 13.8008726,6.45551069 14.0306906,6.45551069 L20.0791065,6.45551069 C20.7116663,6.45551069 21.2270751,6.98165751 21.2270751,7.62768221 L21.2270751,11.1459135 C21.2147434,11.158502 21.1976472,11.163652 21.1867169,11.1776711 C20.7601524,11.7352894 17.020566,16.6949169 17.020566,19.0881839 C17.020566,21.5315192 18.8784478,23.5359698 21.2270751,23.7176464 L21.2270751,25.6911975 C21.2270751,26.964078 20.212513,28.0000636 18.96505,28.0000636 Z M21.5729231,22.7354484 C19.6032152,22.7354484 18.0003752,21.0992148 18.0003752,19.0881839 C18.0003752,17.5283403 20.3058415,14.0470165 21.5729231,12.3106463 C22.8405653,14.0467304 25.1454711,17.5271959 25.1454711,19.0881839 C25.1454711,21.0992148 23.5423508,22.7354484 21.5729231,22.7354484 Z" id="Shape"></path>
                <path d="M6.125,8 C7.22758016,8 8.125,7.13684526 8.125,6.07568875 C8.125,5.19194666 6.9258181,3.64547382 6.55829136,3.19255223 C6.34998421,2.93581592 5.90001571,2.93581592 5.69170856,3.19255223 C5.32418181,3.64547382 4.125,5.19194666 4.125,6.07568875 C4.12531464,7.13684526 5.02241968,8 6.125,8 Z M6.12499992,4.41295788 C6.61115479,5.08961549 7.02525171,5.80320918 7.02525171,6.07568875 C7.02525171,6.55313348 6.62122402,6.94187107 6.12499992,6.94187107 C5.62909054,6.94187107 5.22506293,6.55313348 5.22506293,6.07568875 C5.22506293,5.80381473 5.63884513,5.08991822 6.12499992,4.41295788 Z" id="Shape"></path>
                <path d="M4.125,3.07568878 C4.125,2.19194671 2.9258181,0.645473809 2.55829136,0.192552225 C2.34998429,-0.0641840748 1.90001579,-0.0641840748 1.69170864,0.192552225 C1.3241819,0.645473809 0.125,2.19194671 0.125,3.07568878 C0.125,4.13684528 1.02241976,5 2.125,5 C3.22758024,5 4.125,4.13684528 4.125,3.07568878 Z M2.12531464,3.94187101 C1.62909062,3.94187101 1.22506293,3.5531335 1.22506293,3.07568878 C1.22506293,2.80381468 1.63915985,2.08991827 2.12531464,1.41265512 C2.61115479,2.08961553 3.02525179,2.80320921 3.02525179,3.07568878 C3.02525179,3.55343624 2.62153874,3.94187101 2.12531464,3.94187101 Z" id="Shape"></path>
                <path d="M23.509805,17 C23.1696341,17 22.8942578,17.2757042 22.8942578,17.615493 C22.8942578,18.8028169 21.9279756,19.7693662 20.7401949,19.7693662 C20.4000242,19.7693662 20.125,20.0447183 20.125,20.384507 C20.125,20.7242958 20.4000242,21 20.7401949,21 C22.6065565,21 24.125,19.4816901 24.125,17.615493 C24.125,17.2757042 23.8499757,17 23.509805,17 L23.509805,17 Z" id="Path"></path>
                <path d="M17.6469057,24 L7.60309431,24 C7.33873303,24 7.125,24.2237482 7.125,24.4998569 C7.125,24.7759657 7.33873303,25 7.60309431,25 L17.6469057,25 C17.9112669,25 18.125,24.7759657 18.125,24.4998569 C18.125,24.2237482 17.9112669,24 17.6469057,24 Z" id="Path"></path>
            </g>
        </g>
    </g>
</svg>