<?xml version="1.0" encoding="UTF-8"?>
<svg width="24px" height="31px" viewBox="0 0 24 31" version="1.1" xmlns="http://www.w3.org/2000/svg" xmlns:xlink="http://www.w3.org/1999/xlink">
    <!-- Generator: Sketch 57.1 (83088) - https://sketch.com -->
    <title>Heated seats</title>
    <desc>Created with Sketch.</desc>
    <g id="Page-1" stroke="none" stroke-width="1" fill="none" fill-rule="evenodd">
        <g id="Care-Detail" transform="translate(-1408.000000, -1531.000000)" fill="#868686" fill-rule="nonzero">
            <g id="Heated-seats" transform="translate(1408.000000, 1531.000000)">
                <path d="M6.15797441,1.048125 C5.62803002,0.3828125 4.84472625,0 4.00902839,0 L3.56810545,0 C2.03563896,0 0.788732394,1.2851875 0.788732394,2.8645625 L0.788732394,5.135375 C0.788732394,6.714875 2.03563896,8 3.56810545,8 C4.88832735,8 6.03481192,7.03125 6.29381094,5.696625 L6.73406683,3.4270625 C6.89828349,2.582 6.68858585,1.7148125 6.15797441,1.048125 Z M5.46569324,3.1653125 L5.02543735,5.434875 C4.88711453,6.1484375 4.2737277,6.666625 3.56816609,6.666625 C2.74890202,6.666625 2.08245405,5.979125 2.08245405,5.135375 L2.08245405,2.8645625 L2.08239341,2.8645625 C2.08239341,2.0208125 2.74884138,1.3333125 3.56810545,1.3333125 L4.00902839,1.3333125 C4.45565162,1.3333125 4.87444049,1.53775 5.15805989,1.8945 C5.44107287,2.25 5.55350186,2.7135 5.46569324,3.1653125 Z" id="Shape"></path>
                <path d="M22.9179137,21.5518894 C22.3657383,21.0400922 21.618903,20.7848608 20.8770989,20.8556438 L20.5504296,20.88312 C20.8681745,20.0784861 21.1921485,19.2366713 21.2261092,17.6747134 L21.4199306,17.8709893 C21.5446926,17.9973312 21.708207,18.0605325 21.8716614,18.0605325 C22.0351159,18.0605325 22.1985703,17.9973312 22.3233923,17.8709893 C22.5729763,17.6182447 22.5729763,17.2088312 22.3233923,16.9561473 L21.0456444,15.6622187 C20.7960605,15.4094741 20.3917667,15.4094741 20.1422427,15.6622187 L18.8644948,16.9561473 C18.6149108,17.2088919 18.6149108,17.6183053 18.8644948,17.8709893 C19.1140788,18.1237339 19.5183725,18.1237339 19.7678966,17.8709893 L19.9408744,17.6958209 C19.903919,18.9845333 19.6450512,19.6913932 19.3617461,20.4083217 C19.2856191,20.601019 19.2094322,20.796567 19.1363,21.0018803 L15.9311193,21.2711834 C15.9789757,21.143325 16.026293,21.0149815 16.0762458,20.8884576 C16.3946495,20.082004 16.7199413,19.2401286 16.7540217,17.6746528 L16.9478431,17.8709286 C17.0726052,17.9972706 17.2361195,18.0604719 17.399574,18.0604719 C17.5630284,18.0604719 17.7264829,17.9972706 17.8513048,17.8709286 C18.1008888,17.618184 18.1008888,17.2087705 17.8513048,16.9560866 L16.573557,15.6621581 C16.323973,15.4094135 15.9196793,15.4094135 15.6701552,15.6621581 L14.3924074,16.9560866 C14.1428234,17.2088312 14.1428234,17.6182447 14.3924074,17.8709286 C14.6419914,18.1236732 15.0462851,18.1236732 15.2958092,17.8709286 L15.468787,17.6957603 C15.4318315,18.9844726 15.1729638,19.6913326 14.8896587,20.4082611 C14.7675919,20.7174744 14.6443872,21.031722 14.5363958,21.3883666 L11.3280407,21.6579123 C11.4137509,21.3909747 11.5059299,21.1371384 11.6042182,20.8884576 C11.922622,20.082004 12.2479137,19.2401286 12.2819942,17.6746528 L12.4758156,17.8709286 C12.6005776,17.9972706 12.764092,18.0604719 12.9275464,18.0604719 C13.0910009,18.0604719 13.2544553,17.9972706 13.3792773,17.8709286 C13.6288612,17.618184 13.6288612,17.2087705 13.3792773,16.9560866 L12.1015294,15.6621581 C11.8519454,15.4094135 11.4476517,15.4094135 11.1981276,15.6621581 L9.9203798,16.9560866 C9.67079582,17.2088312 9.67079582,17.6182447 9.9203798,17.8709286 C10.1699638,18.1236732 10.5742575,18.1236732 10.8237816,17.8709286 L10.9967594,17.6957603 C10.959804,18.9844726 10.7009362,19.6913326 10.4176311,20.4082611 C10.2536975,20.8234973 10.0876077,21.2472857 9.95967116,21.772912 L8.36495706,21.906957 L7.24814808,12.0418512 C7.21011452,11.7764906 7.12775839,11.504822 7.02539721,11.2887123 C6.69411595,10.2019773 5.81437282,9.36295263 4.70816532,9.09255777 C4.1965391,8.97125008 3.79098759,8.96494208 3.23695546,9.09886577 C1.84750277,9.43749621 0.861744845,10.6480864 0.801849479,12.1884515 C0.794362559,12.2313944 0.788732394,12.2832535 0.788732394,12.3223752 C0.788732394,14.8938558 1.10132631,17.4640626 1.71770951,19.9597258 L2.90561429,24.7728513 C3.24126792,26.1350155 4.14592752,27.2760963 5.38630064,27.90538 C6.0420351,28.2364287 6.77515438,28.4120822 7.5076148,28.4120822 L10.7775424,28.4120822 C10.9135648,28.915024 11.0108947,29.5062777 11.0108947,30.3530054 C11.0108947,30.7106205 11.2966555,31 11.6497986,31 C12.0029417,31 12.2887024,30.7106205 12.2887024,30.3530054 C12.2887024,29.5477649 12.2125155,28.9314005 12.0993732,28.4120822 L15.2498095,28.4120822 C15.3858319,28.915024 15.4831619,29.5062777 15.4831619,30.3530054 C15.4831619,30.7106205 15.7689227,31 16.1220657,31 C16.4752088,31 16.7609696,30.7106205 16.7609696,30.3530054 C16.7609696,29.5477649 16.6847827,28.9314005 16.5716403,28.4120822 L18.1610238,28.4120822 C18.677801,28.4120822 19.1767294,28.3277127 19.6586475,28.1970037 C19.8280316,28.7444047 19.9553691,29.3815734 19.9553691,30.3530054 C19.9553691,30.7106205 20.2411299,31 20.594273,31 C20.9474161,31 21.2331768,30.7106205 21.2331768,30.3530054 C21.2331768,29.1653424 21.0702614,28.3814521 20.8608074,27.7307576 C22.1492765,27.0423364 23.1681565,25.8742039 23.6514522,24.4051677 C23.7425531,24.1296779 23.7887324,23.8415721 23.7887324,23.5497058 C23.7882532,22.7915327 23.471287,22.0636865 22.9179137,21.5518894 Z M7.50731532,27.1181537 L7.50731532,27.1181537 C6.97197055,27.1181537 6.43608671,26.990538 5.95752274,26.7479226 C5.05100639,26.2879845 4.39024072,25.4539941 4.14443014,24.4595136 L2.95652535,19.6463881 C2.36565757,17.2518348 2.06618075,14.7877722 2.05372251,12.446291 C2.06372504,12.3995269 2.06618075,12.2845272 2.06618075,12.2377631 C2.06618075,11.3405714 2.67010572,10.5672348 3.54859104,10.3536726 C3.70833198,10.3157639 3.85058347,10.2967793 3.98283244,10.2967793 C4.11508141,10.2967793 4.2573329,10.3157639 4.43078988,10.3574331 C5.07903742,10.5153758 5.60497862,11.0183175 5.8327008,11.7474374 C5.91320017,11.9268515 5.96249406,12.083581 5.98058246,12.2073755 L7.09799039,22.0724813 C7.19532036,22.7561109 7.81110462,23.2463759 8.47246924,23.1781404 L9.76435238,23.0714502 C9.7459645,23.3223752 9.73278752,23.5864621 9.73278752,23.8832413 C9.73278752,25.4635774 10.0191473,26.3342634 10.3234157,27.1181537 L7.50731532,27.1181537 Z M11.6977149,27.1181537 C11.6665094,27.037666 11.6351841,26.9573603 11.6039187,26.8780858 C11.2988117,26.1060229 11.0105952,25.3756293 11.0105952,23.883302 C11.0105952,23.5367259 11.0292227,23.2391581 11.0568944,22.9646995 L14.2682443,22.6993389 C14.2284738,23.0470674 14.2049948,23.4361012 14.2049948,23.883302 C14.2049948,25.463638 14.4913545,26.334324 14.795623,27.1181537 L11.6977149,27.1181537 Z M18.1606045,27.1181537 L16.1699221,27.1181537 C16.1387166,27.037666 16.1073914,26.9573603 16.076126,26.8780858 C15.771019,26.1060229 15.4828025,25.3756293 15.4828025,23.883302 C15.4828025,23.3646509 15.5261068,22.9589373 15.5842652,22.5907078 L18.7933391,22.3255899 C18.7221834,22.7629648 18.677202,23.2673622 18.677202,23.883302 C18.677202,25.3705344 18.9312183,26.228847 19.2145233,26.9782253 C18.8732994,27.061321 18.5231511,27.1181537 18.1606045,27.1181537 Z M22.4393497,23.9957542 C22.0809957,25.0849154 21.3405093,25.9554194 20.4050036,26.5003943 C20.1598519,25.846849 19.9549498,25.1342876 19.9549498,23.883302 C19.9549498,23.1851762 20.021853,22.6628859 20.1202012,22.2159277 L20.9844314,22.1445381 C20.986947,22.1445381 20.9888037,22.1445381 20.9906605,22.1445381 C21.3818371,22.1116637 21.7636701,22.2367926 22.0563188,22.5071875 C22.3495666,22.7775823 22.5105054,23.1478741 22.5105054,23.5497058 C22.5105054,23.7026142 22.4867868,23.8517013 22.4393497,23.9957542 Z" id="Shape"></path>
            </g>
        </g>
    </g>
</svg>