<?xml version="1.0" encoding="UTF-8"?>
<svg width="30px" height="30px" viewBox="0 0 30 30" version="1.1" xmlns="http://www.w3.org/2000/svg" xmlns:xlink="http://www.w3.org/1999/xlink">
    <!-- Generator: Sketch 57.1 (83088) - https://sketch.com -->
    <title>play-button</title>
    <desc>Created with Sketch.</desc>
    <g id="Page-1" stroke="none" stroke-width="1" fill="none" fill-rule="evenodd">
        <g id="Care-Detail" transform="translate(-1212.000000, -1596.000000)" fill="#868686" fill-rule="nonzero">
            <g id="play-button" transform="translate(1212.000000, 1596.000000)">
                <path d="M27.9847131,7.50323685 C25.9822684,4.03495779 22.74906,1.5539242 18.8805771,0.517401412 C15.0121528,-0.519238559 10.9716384,0.0127337621 7.50317568,2.01529109 C4.03477156,4.01778983 1.55384953,7.25099091 0.517324394,11.119465 C-0.519200741,14.9878806 0.0127727861,19.028503 2.01521747,22.4967821 C4.01760356,25.9650611 7.25092917,28.4460947 11.1193535,29.4826175 C12.4111134,29.8287892 13.7219163,30 15.0243989,30 C17.6223915,30 20.1865754,29.3186137 22.4968135,27.9847864 C25.9651004,25.9823463 28.4461397,22.7491452 29.4826648,18.8806711 C30.5192485,15.0121384 29.9871578,10.9716331 27.9847131,7.50323685 Z M27.974342,18.4765502 C27.0457467,21.942134 24.823165,24.8387142 21.7159333,26.6326193 C18.6088189,28.426583 14.9890083,28.9030671 11.5234166,27.9745911 C8.05776643,27.045998 5.16123825,24.8234212 3.36727047,21.7161966 C1.57336128,18.6090892 1.09681753,14.9892282 2.02547139,11.5235859 C2.95412526,8.05800212 5.17670702,5.16153911 8.28388008,3.3675168 C10.3537077,2.17249802 12.6505279,1.56212732 14.9781684,1.56212732 C16.1447719,1.56212732 17.3195199,1.71552566 18.4763382,2.02554499 C21.9419298,2.95413816 24.8385166,5.17671488 26.6324258,8.28393948 C28.4263935,11.3911055 28.9029959,15.0109079 27.974342,18.4765502 Z" id="Shape"></path>
                <path d="M22.177269,13.6247424 L12.4684291,8.21526984 C11.9532043,7.92819593 11.3380739,7.92830983 10.822849,8.2152129 C10.3076242,8.50222986 10,9.01641165 10,9.59050253 L10,20.4094476 C10,20.9835385 10.3075652,21.4976634 10.822849,21.7847373 C11.080432,21.9283027 11.3629175,22 11.6455211,22 C11.9281836,22 12.2107872,21.9281319 12.4683701,21.7846803 L22.177328,16.3752647 C22.6924938,16.0881339 23,15.574009 23,14.9999181 C23,14.4258842 22.6924348,13.9117594 22.177269,13.6247424 Z M21.3908887,15.0610801 L11.6819899,20.4704957 C11.6701286,20.4771586 11.645403,20.490883 11.6090523,20.4704957 C11.5725835,20.4501653 11.5725835,20.4227165 11.5725835,20.4095046 L11.5725835,9.59055948 C11.5725835,9.57734758 11.5725835,9.54989874 11.6090523,9.52956837 C11.6233329,9.52159568 11.6357843,9.51886218 11.6464062,9.51886218 C11.6629293,9.51886218 11.6748495,9.52552508 11.6821079,9.52956837 L21.3909477,14.9390409 C21.4028089,14.9456469 21.4274165,14.9593713 21.4274165,15.000032 C21.4274165,15.0406928 21.4026909,15.0544741 21.3908887,15.0610801 Z" id="Shape"></path>
                <path d="M24.8311585,8.67218779 C22.9121126,6.14167355 20.0272759,4.44155963 16.9162523,4.00769185 C16.475203,3.94606395 16.0678849,4.26149739 16.0075078,4.71230203 C15.9472519,5.16298304 16.2562831,5.57824502 16.6978169,5.63987291 C19.3934075,6.01575979 21.8927273,7.4886479 23.5550042,9.68054869 C23.7140315,9.89021952 23.9525723,10 24.1936567,10 C24.3661885,10 24.5400527,9.94381168 24.6869682,9.82760261 C25.0393595,9.54919536 25.1039151,9.03187957 24.8311585,8.67218779 Z" id="Path"></path>
            </g>
        </g>
    </g>
</svg>