<?xml version="1.0" encoding="UTF-8"?>
<svg width="24px" height="28px" viewBox="0 0 24 28" version="1.1" xmlns="http://www.w3.org/2000/svg" xmlns:xlink="http://www.w3.org/1999/xlink">
    <!-- Generator: Sketch 57.1 (83088) - https://sketch.com -->
    <title>safety-seat</title>
    <desc>Created with Sketch.</desc>
    <g id="Page-1" stroke="none" stroke-width="1" fill="none" fill-rule="evenodd">
        <g id="Care-Detail" transform="translate(-1271.000000, -1722.000000)" fill="#868686" fill-rule="nonzero">
            <g id="safety-seat" transform="translate(1271.000000, 1721.833333)">
                <path d="M5.12552028,17.1066316 C5.36177489,18.3013225 6.40119553,19.1615133 7.58235786,19.1615133 C7.77132833,19.1615133 7.96035417,19.1137436 8.10209587,19.1137436 C9.47228404,18.8270133 10.7951881,18.6836482 12.0236345,18.6836482 C13.252081,18.6836482 14.574985,18.8270133 15.8978891,19.1137436 C17.2680772,19.4004739 18.5909813,18.4925133 18.8744647,17.1066316 C18.9216934,16.9632664 18.9216934,16.7721316 18.9689776,16.6287664 C19.0162064,16.2464407 19.0162064,15.8163452 18.9217488,15.4340755 L17.5515606,9.46050903 C17.315306,8.50472271 16.6065975,7.78789697 15.7089186,7.54899239 C15.094723,7.35785753 13.9607895,7.16666667 12.4488596,7.16666667 C12.2598892,7.16666667 12.1181475,7.16666667 12.1181475,7.16666667 L12.0236345,7.16666667 L11.8818928,7.16666667 C11.8818928,7.16666667 11.7401512,7.16666667 11.5511807,7.16666667 C10.0392508,7.16666667 8.9526014,7.35780153 8.2911217,7.54899239 C7.34615862,7.78795297 6.68473429,8.55254843 6.44847967,9.46050903 L5.0782915,15.4340755 C4.98377858,15.864171 4.98377858,16.2464967 5.03106273,16.6287664 C5.07823613,16.8199013 5.07823613,16.9632664 5.12552028,17.1066316 Z M6.02319922,15.6729801 L7.39338739,9.6994136 C7.53512909,9.12595301 7.96035417,8.64808786 8.52732095,8.50472271 C9.09428773,8.36135756 10.1337084,8.1702227 11.5511253,8.1702227 C11.7400958,8.1702227 11.8346087,8.1702227 11.8818375,8.1702227 L12.0235792,8.1702227 L12.2125496,8.1702227 C12.2125496,8.1702227 12.3542913,8.1702227 12.496033,8.1702227 C13.91345,8.1702227 14.9056418,8.36135756 15.5671215,8.50472271 C16.1340883,8.64808786 16.5593134,9.12595301 16.7010551,9.6994136 L18.0712433,15.6729801 C18.1657562,15.9597104 18.1657562,16.198671 18.118472,16.4854013 C18.0712433,16.6287664 18.0712433,16.7721316 18.0239591,16.9154967 C17.8454532,17.7278619 17.0770582,18.2841298 16.27583,18.1824862 L16.27583,16.7721316 C16.27583,16.4854013 16.0868595,16.2942664 15.8033762,16.2942664 C15.5198928,16.2942664 15.3309223,16.4854013 15.3309223,16.7721316 L15.3309223,18.010112 C15.0134984,17.9574141 14.6985661,17.9124445 14.3859592,17.8745311 L14.3859592,16.2942664 C14.3859592,16.0075361 14.1969887,15.8164012 13.9135053,15.8164012 C13.630022,15.8164012 13.4410515,16.0075361 13.4410515,16.2942664 L13.4410515,17.7817918 C13.1235169,17.758103 12.8084738,17.7420864 12.4960884,17.7341341 L12.4960884,15.8163452 C12.4960884,15.5296149 12.3071179,15.3384801 12.0236345,15.3384801 C11.7401512,15.3384801 11.5511807,15.5296149 11.5511807,15.8163452 L11.5511807,17.7340781 C11.238297,17.7420304 10.9230878,17.758159 10.6062176,17.7819038 L10.6062176,16.2942104 C10.6062176,16.0074801 10.4172471,15.8163452 10.1337637,15.8163452 C9.85028034,15.8163452 9.66130987,16.0074801 9.66130987,16.2942104 L9.66130987,17.8756512 C9.3471527,17.9143486 9.0319989,17.9603822 8.71634679,18.0143682 L8.71634679,16.7721316 C8.71634679,16.4854013 8.52737632,16.2942664 8.24389293,16.2942664 C7.96040954,16.2942664 7.77143907,16.4854013 7.77143907,16.7721316 L7.77143907,18.1868543 C6.952161,18.2660972 6.24616555,17.7148134 6.07053873,16.9154967 C6.02330996,16.7721316 5.97602581,16.6287664 5.97602581,16.4854013 C5.9286863,16.2464407 5.97597045,15.9597104 6.02319922,15.6729801 Z" id="Shape"></path>
                <path d="M24,23.4533151 C24,22.6599635 23.7125749,21.9599635 23.18561,21.4933151 C22.5909993,20.9481354 21.7668975,20.7514245 21.2160741,20.6848698 C21.5059132,19.9762839 21.732485,19.1396198 21.8921969,18.1799635 C21.988024,17.4333151 21.988024,16.686612 21.7963698,15.9399635 L20.0718189,8.8933151 C19.5315494,7.22288542 17.6322979,6.43915885 15.8083271,6.07390104 L15.8083271,4.8333151 L17.1496257,4.8333151 C17.6765906,4.8333151 18.1556138,4.59996354 18.3472118,4.22666667 C18.634637,3.80666667 18.7304641,3.2933151 18.5388099,2.82666667 L17.9160741,1.14666667 C17.6766467,0.540018229 17.1017964,0.166666667 16.4790606,0.166666667 L7.42516841,0.166666667 C6.80243263,0.166666667 6.22758234,0.540018229 5.98804266,1.10001823 L5.36530689,2.78001823 C5.22159431,3.24666667 5.26947979,3.76001823 5.55690494,4.18001823 C5.84433009,4.60001823 6.27546781,4.83336979 6.80243263,4.83336979 L8.14373129,4.83336979 L8.14373129,6.07160417 C6.30123503,6.43910417 4.37677769,7.23365885 3.83235404,8.94001823 L2.15568862,15.9400182 C1.96409057,16.6866667 1.91614895,17.4333698 2.05986153,18.1800182 C2.22316617,19.1612214 2.45630614,20.0139089 2.75557635,20.7325026 C2.20020584,20.7999323 1.40619386,20.9974089 0.814333832,21.5400182 C0.28742515,22.0533151 0,22.7066667 0,23.5466667 C0,23.5920573 0.317571108,27.914776 5.74850299,28.1556745 L5.74850299,28.1666667 L6.2275262,28.1666667 L6.7065494,28.1666667 L17.245509,28.1666667 L17.7245322,28.1666667 L18.2035554,28.1666667 L18.2035554,28.1556745 C23.6345434,27.9147214 23.9534618,23.5894323 24,23.4533151 Z M6.32335329,3.66666667 C6.2275262,3.52666667 6.2275262,3.34001823 6.27546781,3.1533151 L6.89820359,1.4733151 C6.94608907,1.23996354 7.18562874,1.09996354 7.42516841,1.09996354 L16.5269461,1.09996354 C16.7664858,1.09996354 16.9580838,1.23996354 17.0539109,1.4733151 L17.6766467,3.1533151 C17.7724738,3.33996354 17.7245322,3.52666667 17.6287612,3.66666667 C17.5329341,3.80666667 17.3413361,3.90001823 17.149738,3.90001823 L6.80243263,3.90001823 C6.61077844,3.90001823 6.41918039,3.80666667 6.32335329,3.66666667 Z M9.10177769,4.8333151 L14.8502807,4.8333151 L14.8502807,5.91579948 C13.3410741,5.71668229 12.0771894,5.76661198 11.9760292,5.76661198 C11.8556699,5.76661198 10.6005988,5.71766667 9.10177769,5.91426823 L9.10177769,4.8333151 L9.10177769,4.8333151 Z M3.11379117,16.1733151 L4.79045659,9.1733151 C5.46113398,7.11996354 9.43714446,6.69996354 11.4970621,6.69996354 C11.6886602,6.69996354 11.8323728,6.69996354 11.9760853,6.69996354 C13.7485217,6.60661198 18.4431512,6.88661198 19.1617141,9.12661198 L20.9341504,16.1732604 C21.1257485,16.7799089 21.1257485,17.4332604 21.0299775,18.0399089 C20.9083832,18.7506276 20.7010105,19.661776 20.3426834,20.4801198 L20.3114147,20.466612 L20.071875,20.886612 C19.4780501,21.9546042 18.7533683,22.5129635 17.8566804,22.5625651 C17.3159618,22.3725807 14.9479042,21.6546979 12.1456213,21.6342448 C12.1265344,21.634026 12.1073915,21.6339167 12.0881924,21.6338073 C12.0667478,21.6336979 12.0454716,21.6333151 12.0239708,21.6333151 C12.0180763,21.6333151 12.012238,21.6334245 12.0063436,21.6334792 C11.9962388,21.6334792 11.9861901,21.6333151 11.9760853,21.6333151 C11.4473241,21.6333151 10.9334955,21.6595104 10.4436377,21.7032057 C10.4413922,21.7034245 10.4390906,21.7035885 10.4368451,21.7038073 C10.3845247,21.7085104 10.3324289,21.7133229 10.2806138,21.7184089 C8.17668413,21.9190573 6.56513847,22.4169323 6.18188623,22.5657917 C6.17481287,22.5657917 6.16768338,22.5655729 6.16061003,22.5654089 C4.06740269,22.4562526 3.30454716,19.7148776 3.01802021,18.0399635 C2.92213698,17.4333151 2.97007859,16.7800182 3.11379117,16.1733151 Z M0.958102545,23.5000182 C0.958102545,22.9400182 1.10181512,22.5200182 1.43712575,22.1933698 C2.01119012,21.6807292 2.8717253,21.6335339 3.20804641,21.6333698 C3.68212949,22.4174245 4.26910554,22.9620573 4.96133982,23.252612 C5.21261228,23.366362 5.47505614,23.4492682 5.74850299,23.5000182 L5.74850299,27.2333698 C1.24552769,27.0000182 0.958102545,23.6400182 0.958102545,23.5000182 Z M6.70660554,27.2333151 L6.70660554,23.3599635 C7.47108907,23.1272135 9.56996632,22.5696745 11.9575037,22.566776 C11.9913548,22.5668307 12.0251497,22.5669401 12.0588323,22.5672135 C12.0637725,22.5672135 12.0687126,22.5672682 12.0736527,22.5673229 C14.4527695,22.5895807 16.5103293,23.1507292 17.2455651,23.3682214 L17.2455651,27.2333151 L6.70660554,27.2333151 L6.70660554,27.2333151 Z M18.2036115,27.1866667 L18.2036115,23.4663854 C19.2463136,23.3223932 20.0995509,22.6992839 20.7440681,21.6333698 C21.0803892,21.6334792 21.9409244,21.6807292 22.5149888,22.1933698 C22.8502994,22.5200182 22.994012,22.9400182 22.994012,23.4533698 C22.994012,23.5933151 22.7544723,26.9533151 18.2036115,27.1866667 Z" id="Shape"></path>
            </g>
        </g>
    </g>
</svg>