<?xml version="1.0" encoding="UTF-8"?>
<svg width="31px" height="31px" viewBox="0 0 31 31" version="1.1" xmlns="http://www.w3.org/2000/svg" xmlns:xlink="http://www.w3.org/1999/xlink">
    <!-- Generator: Sketch 57.1 (83088) - https://sketch.com -->
    <title>sg autopass</title>
    <desc>Created with Sketch.</desc>
    <g id="Page-1" stroke="none" stroke-width="1" fill="none" fill-rule="evenodd">
        <g id="Care-Detail" transform="translate(-1241.000000, -1664.000000)" fill="#868686" fill-rule="nonzero">
            <g id="sg-autopass" transform="translate(1241.000000, 1664.000000)">
                <path d="M11.082108,25.0073888 C7.60654054,23.3291114 5.36082396,19.7610331 5.36082396,15.9173173 C5.36082396,12.5180776 7.06307365,9.36768922 9.91430067,7.48998516 C10.2740665,7.25305798 10.3728156,6.77056295 10.1348807,6.41232076 C9.89694583,6.05407857 9.41248541,5.95574774 9.05263276,6.19267492 C8.8916666,6.29878235 8.73391108,6.40817324 8.57927944,6.5211068 L7.03678107,5.23217801 C6.14595702,4.48795708 4.81301837,4.60400128 4.06554532,5.49105249 L3.18730353,6.53346296 C2.82597572,6.96212661 2.65407601,7.50648884 2.70319021,8.06631787 C2.75239119,8.6262333 3.01661866,9.13266299 3.44710552,9.49220128 L4.99229389,10.7833766 C4.62124737,11.5365839 4.33168182,12.3310071 4.1308863,13.1529076 L2.10896042,13.1529076 C0.946099219,13.1529076 0,14.0949999 0,15.2529362 L0,16.6138417 C0,17.7717779 0.946099219,18.7138702 2.10896042,18.7138702 L4.13904308,18.7138702 C4.34061957,19.5283398 4.63035866,20.3190475 5.00444228,21.0732053 L3.44736584,22.3744038 C3.01670544,22.7341149 2.75247796,23.2404582 2.70327699,23.80046 C2.65416278,24.360289 2.82606249,24.9046513 3.18721676,25.3330557 L4.06563209,26.3758118 C4.48223508,26.8700581 5.08054326,27.1247851 5.68292983,27.1247851 C6.16140283,27.1247851 6.64256583,26.9638958 7.03695462,26.6345135 L8.59975815,25.328649 C9.16405084,25.7392536 9.76643741,26.10052 10.4005833,26.4067454 C10.7887244,26.5939887 11.25583,26.4327538 11.4440432,26.046343 C11.6322565,25.6599323 11.4701623,25.1947186 11.082108,25.0073888 Z M2.10896042,17.158636 C1.80733326,17.158636 1.56193579,16.9142778 1.56193579,16.6139281 L1.56193579,15.2530226 C1.56193579,14.9526729 1.80733326,14.7083147 2.10896042,14.7083147 L3.86145238,14.7083147 C3.8199743,15.1073409 3.79888817,15.5107738 3.79888817,15.9173173 C3.79888817,16.3337976 3.82101559,16.7480313 3.86483657,17.158636 L2.10896042,17.158636 L2.10896042,17.158636 Z M4.45099636,8.30056644 C4.3401857,8.20802486 4.27206794,8.07668667 4.25922536,7.93083216 C4.24646955,7.78489123 4.29063762,7.64370268 4.38383312,7.53318851 L5.26216169,6.49069164 C5.37019558,6.36246409 5.52534787,6.29636296 5.68154145,6.29636296 C5.80571534,6.29636296 5.93049666,6.3380974 6.03280345,6.42355363 L7.36695694,7.53845932 C6.77142553,8.11081732 6.24253672,8.74046296 5.7860176,9.41616338 L4.45099636,8.30056644 Z M6.032977,25.4430514 C5.80172373,25.6361704 5.45584172,25.6060145 5.26207491,25.3761726 L4.38374635,24.3333301 C4.2907244,24.2229888 4.24646955,24.0818002 4.25931213,23.9358593 C4.27215472,23.7900048 4.34027247,23.6586666 4.45125669,23.5658658 L5.80146341,22.4375671 C6.26431704,23.1192296 6.79563554,23.7471471 7.3856134,24.3128518 L6.032977,25.4430514 Z M28.8911264,13.1529076 L26.8707624,13.1529076 C26.6704008,12.3296246 26.3811823,11.5345965 26.0103093,10.7813893 L27.5529813,9.49228768 C28.4437185,8.74806675 28.5603431,7.42077339 27.8129568,6.53354936 L26.9345415,5.49105249 C26.1870684,4.60400128 24.8541298,4.48787067 23.9633057,5.23217801 L22.4208941,6.52102039 C22.2170615,6.37231446 22.0073282,6.22931136 21.7923885,6.09252955 C21.4288913,5.86130522 20.9459929,5.96723983 20.7137851,6.32919751 C20.4815773,6.69115519 20.5879625,7.17200849 20.9514596,7.40323283 C23.8866841,9.27056808 25.6390893,12.453359 25.6390893,15.9173173 C25.6390893,19.8391447 23.3285524,23.4378111 19.7526739,25.0854141 C19.3612354,25.2657449 19.1907241,25.7280207 19.3718219,26.117715 C19.5529197,26.5074956 20.0172485,26.6773712 20.4085134,26.496954 C21.1171984,26.1704231 21.7827566,25.7775318 22.3992006,25.3276985 L23.9632189,26.6345135 C24.3453726,26.9538726 24.8191597,27.1246123 25.3141198,27.1246123 C25.376684,27.1246123 25.4395086,27.1218473 25.5025934,27.1164036 C26.0648035,27.067411 26.5733872,26.804389 26.9345415,26.3757254 L27.8129568,25.3333149 C28.5604298,24.4461773 28.4438921,23.1189703 27.5529813,22.3745766 L25.9890497,21.0676752 C26.3602697,20.3196524 26.6520914,19.530932 26.8562711,18.7139566 L28.8910396,18.7139566 C30.0539008,18.7139566 31,17.7718644 31,16.6139281 L31,15.2530226 C31,14.0949999 30.0539876,13.1529076 28.8911264,13.1529076 Z M26.5490904,23.5658658 C26.7801701,23.7589848 26.8104543,24.1033155 26.616514,24.333503 L25.7380986,25.3759134 C25.6450767,25.4862548 25.5131799,25.554084 25.3666182,25.5667858 C25.2196227,25.5794012 25.0782675,25.535593 24.9673701,25.4428786 L23.6115231,24.3100003 C24.2044512,23.7396297 24.7342078,23.1096384 25.192983,22.4325555 L26.5490904,23.5658658 Z M25.2165856,9.41434884 C24.7600665,8.73916686 24.2303967,8.10960762 23.6342579,7.53759525 L24.9673701,6.42372644 C25.1984498,6.23069387 25.5441583,6.2607634 25.7380986,6.49077805 L26.6164272,7.53318851 C26.8103676,7.76337597 26.7801701,8.10779308 26.5490904,8.30091206 L25.2165856,9.41434884 Z M29.438151,16.6138417 C29.438151,16.9141914 29.1927535,17.1585496 28.8911264,17.1585496 L27.1338618,17.1585496 C27.1782902,16.7489818 27.2009383,16.3345753 27.2009383,15.9172309 C27.2009383,15.5105145 27.1799389,15.1069952 27.1388079,14.7082283 L28.8910396,14.7082283 C29.1926667,14.7082283 29.4380642,14.9525865 29.4380642,15.2529362 L29.4380642,16.6138417 L29.438151,16.6138417 Z M20.7575193,15.9172309 C20.7575193,14.0946543 19.8280807,12.4311525 18.271091,11.4674585 C17.9048171,11.2407273 17.7924445,10.7612565 18.02014,10.3964474 C18.2478355,10.0318111 18.7293456,9.91974164 19.0957064,10.1465592 C21.1143348,11.3960002 22.3194551,13.5532299 22.3194551,15.9172309 C22.3194551,17.5245684 21.7450966,19.0837773 20.7023309,20.3078147 C20.5478728,20.4890959 20.3279001,20.5824152 20.1064524,20.5824152 C19.927871,20.5824152 19.748422,20.5217577 19.6016,20.3977641 C19.272639,20.1199665 19.232289,19.6291764 19.5112681,19.301695 C20.314884,18.3583066 20.7575193,17.1564758 20.7575193,15.9172309 Z M11.5768078,19.4022724 C11.8641172,19.7226685 11.8360891,20.2142362 11.5143303,20.5003288 C11.3654258,20.6327039 11.1795554,20.6978545 10.994466,20.6978545 C10.7796999,20.6978545 10.5658882,20.6101517 10.4116037,20.438116 C9.29551377,19.1930818 8.68080526,17.5875589 8.68080526,15.9173173 C8.68080526,13.4038327 10.0653746,11.1068833 12.2941702,9.92276588 C12.6746751,9.7206606 13.1477681,9.8638365 13.3508197,10.2428163 C13.5538714,10.6217097 13.4099997,11.092799 13.0294081,11.2949907 C11.3105845,12.2081368 10.2428278,13.9793014 10.2428278,15.9173173 C10.2427411,17.2050364 10.7165282,18.442726 11.5768078,19.4022724 Z M16.2679084,18.4221612 C16.2765858,18.3756744 16.2810981,18.3278051 16.2810981,18.2788125 L16.2810981,8.64748935 L19.1146231,7.01846378 C19.3562893,6.8795218 19.5051071,6.62280749 19.5051071,6.34500994 L19.5051071,2.63781676 C19.5051071,2.36001921 19.3562893,2.10321849 19.1146231,1.96436292 L17.5027054,1.03765103 C17.1292292,0.822930372 16.6514504,0.950293852 16.4359032,1.32227471 C16.2202693,1.69425556 16.3482613,2.16983806 16.7217375,2.38455871 L17.9431713,3.08678599 L17.9431713,5.8959543 L15.5001302,7.30049526 L13.0569155,5.89604071 L13.0569155,3.08687239 L14.2785228,2.38464512 C14.6520858,2.16992446 14.7800778,1.69434197 14.5644438,1.32236111 C14.3488099,0.950380259 13.8711179,0.822930372 13.4976417,1.03765103 L11.8854636,1.96436292 C11.6437975,2.10321849 11.4949797,2.36001921 11.4949797,2.63781676 L11.4949797,6.34500994 C11.4949797,6.62280749 11.6437975,6.87960821 11.8854636,7.01846378 L14.7191623,8.64748935 L14.7191623,18.2788125 C14.7191623,18.3278051 14.7236745,18.3756744 14.7323519,18.4221612 C13.6755288,18.7487785 12.9059284,19.7313956 12.9059284,20.8896774 L12.9059284,29.1328769 C12.9059284,30.1256899 13.7169201,30.9333333 14.7136955,30.9333333 L16.2860442,30.9333333 C17.2830799,30.9333333 18.0941584,30.1256899 18.0941584,29.1328769 L18.0941584,20.8896774 C18.0942452,19.7313956 17.3246447,18.7487785 16.2679084,18.4221612 Z M16.5323094,29.1328769 C16.5323094,29.2657704 16.4195897,29.3780127 16.286131,29.3780127 L14.7137823,29.3780127 C14.5804971,29.3780127 14.4679509,29.2657704 14.4679509,29.1328769 L14.4679509,20.8896774 C14.4679509,20.3230223 14.9309781,19.8620425 15.5002169,19.8620425 C16.0694558,19.8620425 16.5324829,20.3230223 16.5324829,20.8896774 L16.5324829,29.1328769 L16.5323094,29.1328769 Z" id="Shape"></path>
            </g>
        </g>
    </g>
</svg>