<?xml version="1.0" encoding="UTF-8"?>
<svg width="31px" height="31px" viewBox="0 0 31 31" version="1.1" xmlns="http://www.w3.org/2000/svg" xmlns:xlink="http://www.w3.org/1999/xlink">
    <!-- Generator: Sketch 57.1 (83088) - https://sketch.com -->
    <title>Snow tires or chairs</title>
    <desc>Created with Sketch.</desc>
    <g id="Page-1" stroke="none" stroke-width="1" fill="none" fill-rule="evenodd">
        <g id="Care-Detail" transform="translate(-1323.000000, -1531.000000)" fill="#868686" fill-rule="nonzero">
            <g id="Snow-tires-or-chairs" transform="translate(1322.030303, 1531.000000)">
                <path d="M15.8881762,26.8002448 C11.731014,27.2728209 7.71147737,25.7509505 4.90671435,22.9461921 C-0.342672431,17.6968746 -0.342611883,9.18632839 4.90671435,3.93701086 C10.1560406,-1.31230668 18.6666009,-1.31236723 23.9159271,3.93701086 C26.7296512,6.75073031 28.2363871,10.7540335 27.7693202,14.9180912 C32.58258,17.8142163 33.4244994,24.4741173 29.4341468,28.4644632 C25.4440365,32.4546275 18.7846088,31.6129518 15.8881762,26.8002448 L15.8881762,26.8002448 Z M22.4036208,18.2249124 L22.4036208,20.7736745 L20.1967689,19.4995054 C19.7637904,19.2506537 19.2109876,19.3999647 18.9621355,19.833003 C18.7132834,20.2660412 18.8625946,20.8187826 19.2956336,21.0676343 L21.5032727,22.3421667 L19.2956336,23.6167596 C18.8625946,23.8656113 18.7133439,24.4183527 18.9621355,24.851391 C19.2109876,25.2843687 19.7637299,25.4336797 20.1967689,25.1848886 L22.4036208,23.9107195 L22.4036208,26.459421 C22.4036208,26.9609994 22.8102609,27.3676388 23.3118401,27.3676388 C23.8134194,27.3676388 24.2200595,26.9609994 24.2200595,26.459421 L24.2200595,23.9106589 L26.4269114,25.184828 C26.8598899,25.4336797 27.4126927,25.2843687 27.6615448,24.8513304 C27.9103969,24.4182922 27.7610857,23.8655508 27.3280467,23.6166991 L25.1204682,22.3421667 L27.3281072,21.0675738 C27.7611462,20.8187221 27.9103969,20.2659807 27.6616054,19.8329424 C27.4127533,19.3999647 26.860011,19.2506537 26.426972,19.4994448 L24.2201201,20.7736139 L24.2201201,18.2249124 C24.2201201,17.723334 23.81348,17.3166946 23.3119007,17.3166946 C22.8102609,17.3166946 22.4036208,17.7232735 22.4036208,18.2249124 L22.4036208,18.2249124 Z M26.0184549,14.1154083 C26.0673171,13.2496951 26.018576,12.3583701 25.8769543,11.5109423 L24.3547182,10.6320901 C23.9216792,10.3813009 23.7740027,9.82692472 24.0247923,9.39394699 C24.2567516,8.99342292 24.7485221,8.83702781 25.1636389,9.01431193 C24.716916,7.93050529 24.1111943,6.92904374 23.3754155,6.0390508 L21.6189798,6.0390508 C21.1174005,6.0390508 20.7107605,5.63241139 20.7107605,5.13083295 C20.7107605,4.66830787 21.0564893,4.28655363 21.5035754,4.22988084 C20.5906939,3.5261331 19.5702791,2.95498517 18.4712126,2.54531837 L16.9484315,3.42447325 C16.5153925,3.67332494 15.9626502,3.52401393 15.7137981,3.09097565 C15.483837,2.69081487 15.5939132,2.1884493 15.9536286,1.91810312 C14.8003111,1.76509869 13.6238643,1.78501893 12.4805372,1.97610797 L11.6017442,3.49828109 C11.3509545,3.93125881 10.7965774,4.07899558 10.363599,3.82820636 C9.96307424,3.59618697 9.80661832,3.10447783 9.98396329,2.68930117 C8.90015486,3.13602326 7.89869165,3.74180457 7.00863668,4.47758212 L7.00863668,6.23395435 C7.00863668,6.73553279 6.6019966,7.1421722 6.10041732,7.1421722 C5.63795203,7.1421722 5.25613661,6.79644394 5.19946372,6.34935856 C4.49571482,7.2622386 3.92456594,8.28259108 3.51489846,9.38165578 L4.39411535,10.9044344 C4.64296745,11.3374121 4.49365619,11.890214 4.0606172,12.1390657 C3.66045575,12.3690265 3.15808935,12.2589505 2.88774272,11.8991751 C2.73473803,13.052854 2.75465831,14.2308125 2.9460504,15.374501 L4.46441152,16.2511129 C4.89745051,16.4999646 5.04670123,17.0527059 4.79790967,17.4857442 C4.56691922,17.8877214 4.07393775,18.0451459 3.65803383,17.8665297 C4.10487775,18.9512445 4.71090226,19.9535538 5.44722596,20.8442127 L7.2036011,20.8442127 C7.70518038,20.8442127 8.11182046,21.2508521 8.11182046,21.7524306 C8.11182046,22.2148951 7.76609162,22.5967099 7.31900551,22.6533827 C8.23188706,23.3571304 9.25224123,23.9282784 10.3513077,24.3379452 L11.8740889,23.4587297 C12.3070673,23.209878 12.8598702,23.3591891 13.1087223,23.7922273 C13.3386834,24.1923881 13.2286072,24.6947537 12.8688313,24.9650999 C13.5972837,25.0617342 14.345051,25.0900101 15.0847654,25.0478688 C14.7889281,24.147946 14.6389508,23.1926824 14.6547538,22.1990921 C9.73420297,22.3433777 5.65024326,18.3777958 5.65024326,13.4416318 C5.65024326,8.60319198 9.57290321,4.68053854 14.411351,4.68053854 C19.3217903,4.68053854 23.3297623,8.76261449 23.1682809,13.6851552 C24.1615702,13.6690495 25.1188939,13.8195715 26.0184549,14.1154083 L26.0184549,14.1154083 Z M14.8789629,20.3712129 C15.6237633,17.171743 18.1424978,14.653376 21.3420335,13.9090007 C21.6020264,9.88480847 18.4261044,6.49697424 14.411351,6.49697424 C10.575759,6.49697424 7.46668197,9.60604613 7.46668197,13.4416318 C7.46668197,17.4578922 10.862272,20.6378051 14.8789629,20.3712129 L14.8789629,20.3712129 Z M18.4738767,27.1801826 C21.145737,29.8519779 25.478125,29.8520385 28.1499247,27.1801826 C30.8217244,24.5083874 30.8217849,20.175946 28.1499247,17.5041508 C25.478125,14.8323555 21.1456764,14.8322949 18.4738767,17.5041508 C15.8020165,20.175946 15.802077,24.5083268 18.4738767,27.1801826 L18.4738767,27.1801826 Z M10.5500867,9.58037384 C10.2454699,9.88499011 10.2454699,10.3789395 10.5500867,10.6836163 C10.8547035,10.9882326 11.3486537,10.9882326 11.653331,10.6836163 C11.9580083,10.3790001 11.9579478,9.88505066 11.653331,9.58037384 C11.3486537,9.27575758 10.8547035,9.27575758 10.5500867,9.58037384 L10.5500867,9.58037384 Z M10.5500867,17.3028291 C10.8547035,17.6074454 11.3486537,17.6074454 11.653331,17.3028291 C11.9579478,16.9982129 11.9579478,16.5042635 11.653331,16.1996472 C11.3487142,15.8950309 10.854764,15.8950309 10.5500867,16.1996472 C10.2454699,16.5042635 10.2454699,16.9982129 10.5500867,17.3028291 L10.5500867,17.3028291 Z M18.2725548,9.58037384 C17.967938,9.27575758 17.4739878,9.27575758 17.169371,9.58037384 C16.8647542,9.88499011 16.8647542,10.3789395 17.169371,10.6836163 C17.4739878,10.9882932 17.967938,10.9882326 18.2725548,10.6836163 C18.5772321,10.3789395 18.5772321,9.88499011 18.2725548,9.58037384 L18.2725548,9.58037384 Z M8.9507124,13.4416318 C8.9507124,13.8724298 9.29995302,14.2217303 9.73081228,14.2217303 C10.161611,14.2217303 10.5109122,13.8724298 10.5109122,13.4416318 C10.5109122,13.0108338 10.1616715,12.6615332 9.73081228,12.6615332 C9.29995302,12.6615332 8.9507124,13.0107732 8.9507124,13.4416318 L8.9507124,13.4416318 Z M14.411351,18.9022008 C14.8421497,18.9022008 15.1914509,18.5529607 15.1914509,18.1221022 C15.1914509,17.6912436 14.8421497,17.3420036 14.411351,17.3420036 C13.9805523,17.3420036 13.6312511,17.6912436 13.6312511,18.1221022 C13.6312511,18.5529607 13.9804917,18.9022008 14.411351,18.9022008 L14.411351,18.9022008 Z M19.8719291,13.4416318 C19.8719291,13.0108338 19.5226884,12.6615332 19.0918292,12.6615332 C18.6609699,12.6615332 18.3117293,13.0108338 18.3117293,13.4416318 C18.3117293,13.8724298 18.6609699,14.2217303 19.0918292,14.2217303 C19.5226884,14.2217303 19.8719291,13.8724298 19.8719291,13.4416318 L19.8719291,13.4416318 Z M14.411351,7.98100221 C13.9805523,7.98100221 13.6312511,8.33024225 13.6312511,8.76110079 C13.6312511,9.19189879 13.9805523,9.54119938 14.411351,9.54119938 C14.8421497,9.54119938 15.1914509,9.19195934 15.1914509,8.76110079 C15.1914509,8.33024225 14.8421497,7.98100221 14.411351,7.98100221 L14.411351,7.98100221 Z M14.411351,10.9732167 C13.0482954,10.9732167 11.9429319,12.0785784 11.9429319,13.4416318 C11.9429319,14.8046851 13.0482954,15.9100468 14.411351,15.9100468 C15.7744066,15.9100468 16.8797701,14.8046851 16.8797701,13.4416318 C16.8797096,12.0785784 15.7744066,10.9732167 14.411351,10.9732167 L14.411351,10.9732167 Z M14.8724237,12.9805598 C14.4631801,12.5713169 13.7594312,12.8620071 13.7594312,13.4416318 C13.7594312,14.0212564 14.4631801,14.3119467 14.8724237,13.9027037 C15.1269068,13.6481605 15.1269068,13.2350425 14.8724237,12.9805598 Z" id="Shape"></path>
            </g>
        </g>
    </g>
</svg>