<?xml version="1.0" encoding="UTF-8"?>
<svg width="41px" height="27px" viewBox="0 0 41 27" version="1.1" xmlns="http://www.w3.org/2000/svg" xmlns:xlink="http://www.w3.org/1999/xlink">
    <!-- Generator: Sketch 57.1 (83088) - https://sketch.com -->
    <title>stereo system</title>
    <desc>Created with Sketch.</desc>
    <g id="Page-1" stroke="none" stroke-width="1" fill="none" fill-rule="evenodd">
        <g id="Care-Detail" transform="translate(-1151.000000, -1666.000000)" fill="#868686" fill-rule="nonzero">
            <g id="stereo-system" transform="translate(1151.000000, 1665.937500)">
                <path d="M12.9545455,0.0625 L2.04545455,0.0625 C0.915767045,0.0625 0,0.969109375 0,2.0875 L0,25.0375 C0,26.1558906 0.915767045,27.0625 2.04545455,27.0625 L12.9545455,27.0625 C14.084233,27.0625 15,26.1558906 15,25.0375 L15,2.0875 C15,0.969109375 14.084233,0.0625 12.9545455,0.0625 Z M13.6363636,25.0375 C13.6363636,25.4102687 13.3310795,25.7125 12.9545455,25.7125 L2.04545455,25.7125 C1.66892045,25.7125 1.36363636,25.4102687 1.36363636,25.0375 L1.36363636,2.0875 C1.36363636,1.71473125 1.66892045,1.4125 2.04545455,1.4125 L12.9545455,1.4125 C13.3310795,1.4125 13.6363636,1.71473125 13.6363636,2.0875 L13.6363636,25.0375 Z" id="Shape"></path>
                <path d="M7,15.0625 C4.23857143,15.0625 2,17.3010714 2,20.0625 C2.003125,22.8225893 4.23991071,25.059375 7,25.0625 C9.76142857,25.0625 12,22.8239286 12,20.0625 C12,17.3010714 9.76142857,15.0625 7,15.0625 Z M7,23.6339286 C5.02758929,23.6339286 3.42857143,22.0349107 3.42857143,20.0625 C3.43089286,18.0910714 5.02857143,16.4933929 7,16.4910714 C8.97241071,16.4910714 10.5714286,18.0900893 10.5714286,20.0625 C10.5714286,22.0349107 8.97241071,23.6339286 7,23.6339286 Z" id="Shape"></path>
                <path d="M7.5,3.0625 C6.11929687,3.0625 5,4.18179688 5,5.5625 C5,6.94320313 6.11929687,8.0625 7.5,8.0625 C8.88070312,8.0625 10,6.94320313 10,5.5625 C10,4.18179688 8.88070312,3.0625 7.5,3.0625 Z M7.5,6.8125 C6.80960937,6.8125 6.25,6.25289062 6.25,5.5625 C6.25,4.87210938 6.80960937,4.3125 7.5,4.3125 C8.19039062,4.3125 8.75,4.87210938 8.75,5.5625 C8.75,6.25289062 8.19039062,6.8125 7.5,6.8125 Z" id="Shape"></path>
                <path d="M38.9545455,0.0625 L28.0454545,0.0625 C26.915767,0.0625 26,0.969109375 26,2.0875 L26,25.0375 C26,26.1558906 26.915767,27.0625 28.0454545,27.0625 L38.9545455,27.0625 C40.084233,27.0625 41,26.1558906 41,25.0375 L41,2.0875 C41,0.969109375 40.084233,0.0625 38.9545455,0.0625 Z M39.6363636,25.0375 C39.6363636,25.4102687 39.3310795,25.7125 38.9545455,25.7125 L28.0454545,25.7125 C27.6689205,25.7125 27.3636364,25.4102687 27.3636364,25.0375 L27.3636364,2.0875 C27.3636364,1.71473125 27.6689205,1.4125 28.0454545,1.4125 L38.9545455,1.4125 C39.3310795,1.4125 39.6363636,1.71473125 39.6363636,2.0875 L39.6363636,25.0375 Z" id="Shape"></path>
                <path d="M33,15.0625 C30.2385714,15.0625 28,17.3010714 28,20.0625 C28,22.8239286 30.2385714,25.0625 33,25.0625 C35.7614286,25.0625 38,22.8239286 38,20.0625 C37.996875,17.3024107 35.7600893,15.065625 33,15.0625 Z M33,23.6339286 C31.0275893,23.6339286 29.4285714,22.0349107 29.4285714,20.0625 C29.4285714,18.0900893 31.0275893,16.4910714 33,16.4910714 C34.9724107,16.4910714 36.5714286,18.0900893 36.5714286,20.0625 C36.5691071,22.0339286 34.9714286,23.6316071 33,23.6339286 Z" id="Shape"></path>
                <path d="M32.5,3.0625 C31.1192969,3.0625 30,4.18179688 30,5.5625 C30,6.94320313 31.1192969,8.0625 32.5,8.0625 C33.8807031,8.0625 35,6.94320313 35,5.5625 C35,4.18179688 33.8807031,3.0625 32.5,3.0625 Z M32.5,6.8125 C31.8096094,6.8125 31.25,6.25289062 31.25,5.5625 C31.25,4.87210938 31.8096094,4.3125 32.5,4.3125 C33.1903906,4.3125 33.75,4.87210938 33.75,5.5625 C33.75,6.25289062 33.1903906,6.8125 32.5,6.8125 Z" id="Shape"></path>
                <path d="M24.25,13.0625 L16.75,13.0625 C16.3358125,13.0625 16,13.375925 16,13.7625 L16,26.3625 C16,26.749075 16.3358125,27.0625 16.75,27.0625 L24.25,27.0625 C24.6641875,27.0625 25,26.749075 25,26.3625 L25,13.7625 C25,13.375925 24.6641875,13.0625 24.25,13.0625 Z M23.5,25.6625 L17.5,25.6625 L17.5,14.4625 L23.5,14.4625 L23.5,25.6625 Z" id="Shape"></path>
                <rect id="Rectangle" x="19" y="17.0625" width="3" height="1"></rect>
                <rect id="Rectangle" x="20" y="22.0625" width="1" height="3"></rect>
                <circle id="Oval" cx="7.5" cy="19.5625" r="1"></circle>
                <circle id="Oval" cx="32.5" cy="19.5625" r="1"></circle>
                <rect id="Rectangle" x="20" y="19.0625" width="1" height="1"></rect>
            </g>
        </g>
    </g>
</svg>