<?xml version="1.0" encoding="UTF-8"?>
<svg width="29px" height="30px" viewBox="0 0 29 30" version="1.1" xmlns="http://www.w3.org/2000/svg" xmlns:xlink="http://www.w3.org/1999/xlink">
    <!-- Generator: Sketch 57.1 (83088) - https://sketch.com -->
    <title>sunroof</title>
    <desc>Created with Sketch.</desc>
    <g id="Page-1" stroke="none" stroke-width="1" fill="none" fill-rule="evenodd">
        <g id="Care-Detail" transform="translate(-1442.000000, -1596.000000)" fill="#868686" fill-rule="nonzero">
            <g id="sunroof" transform="translate(1442.000000, 1596.000000)">
                <path d="M19.4455,12.0233099 C19.4510125,11.7807839 19.3045375,11.5685414 19.09765,11.5191451 C16.3654188,10.8269516 13.5345813,10.8269516 10.80235,11.5191451 C10.673425,11.5516239 10.5635688,11.6478982 10.5022,11.7820753 C10.46935,11.8567831 10.4529813,11.9396268 10.4545,12.0233099 L10.45,12.0233099 L10.45,25.9766901 L10.45315,25.9766901 C10.4479188,26.2196035 10.5950125,26.4319106 10.80235,26.4808549 C13.5345813,27.1730484 16.3654188,27.1730484 19.09765,26.4808549 C19.3049875,26.4319106 19.4520813,26.2196035 19.44685,25.9766901 L19.45,25.9766901 L19.45,12.0233099 L19.4455,12.0233099 Z M18.3826,12.4040163 L16.89535,16.6723704 L13.00465,16.6723704 L11.51965,12.4040163 C13.7870313,11.9094725 16.1152188,11.9094725 18.3826,12.4040163 Z M16.75,17.7054949 L16.75,22.3545554 L13.15,22.3545554 L13.15,17.7054949 L16.75,17.7054949 Z M11.35,14.7058178 L12.25,17.2886292 L12.25,19.2551818 L11.35,19.2551818 L11.35,14.7058178 Z M11.35,20.2883063 L12.25,20.2883063 L12.25,22.716149 L11.35,24.2658359 L11.35,20.2883063 Z M11.6452,25.6233615 L12.9412,23.38768 L16.9588,23.38768 L18.2548,25.6233615 C16.0696563,26.0815523 13.8303438,26.0815523 11.6452,25.6233615 Z M18.55,24.2658359 L17.65,22.716149 L17.65,20.2883063 L18.55,20.2883063 L18.55,24.2658359 Z M18.55,19.2551818 L17.65,19.2551818 L17.65,17.2886292 L18.55,14.7058178 L18.55,19.2551818 Z" id="Shape"></path>
                <path d="M28.3036082,16.6465 L21.6570563,10 L23.3035692,8.3535 L22.5965636,7.6465 L21.4500547,8.793 L21.4500547,5.6215 C21.4500547,2.5168125 18.9332225,0 15.8285108,0 L13.0714892,0 C9.96677747,0 7.44994531,2.5168125 7.44994531,5.6215 L7.44994531,8.793 L6.30343635,7.6465 L5.59643083,8.3535 L7.24294369,10 L0.596391769,16.6465 C0.401202744,16.84175 0.401202744,17.15825 0.596391769,17.3535 L2.09640349,18.8535 C2.29165501,19.0486875 2.60815749,19.0486875 2.80340901,18.8535 L7.44994531,14.207 L7.44994531,18.293 L2.09640349,23.6465 C1.90121446,23.84175 1.90121446,24.15825 2.09640349,24.3535 L3.59641521,25.8535 C3.79166673,26.0486875 4.1081692,26.0486875 4.30342073,25.8535 L7.44994531,22.707 L7.44994531,26.14 C7.45244533,28.2708125 9.17914632,29.9975 11.3099755,30 L17.5900245,30 C19.7208537,29.9975 21.4475547,28.2708125 21.4500547,26.14 L21.4500547,22.707 L24.0965754,25.3535 C24.2918269,25.5486875 24.6083294,25.5486875 24.8035809,25.3535 L26.3035926,23.8535 C26.4987816,23.65825 26.4987816,23.34175 26.3035926,23.1465 L21.4500547,18.293 L21.4500547,14.207 L26.096591,18.8535 C26.2918425,19.0486875 26.608345,19.0486875 26.8035965,18.8535 L28.3036082,17.3535 C28.4987973,17.15825 28.4987973,16.84175 28.3036082,16.6465 Z M7.44994531,21.293 L3.94991797,24.793 L3.15691177,24 L7.44994531,19.707 L7.44994531,21.293 Z M7.44994531,12.793 L2.44990625,17.793 L1.65690005,17 L7.44994531,11.207 L7.44994531,12.793 Z M20.1160443,3.8955 C18.8532219,3.58275 17.8672767,2.5968125 17.5545243,1.334 C18.7211584,1.804 19.6460406,2.728875 20.1160443,3.8955 Z M9.8034637,2.3535 C10.2488422,1.907875 10.7807838,1.5581875 11.3664759,1.326 C11.2317249,1.9438125 10.9244725,2.51075 10.480469,2.961 C10.0174029,3.4345625 9.42683576,3.7635 8.78045571,3.908 C9.01220752,3.3256875 9.36033524,2.7966875 9.8034637,2.3535 Z M8.44995312,5.6215 C8.45145314,5.402625 8.46814077,5.1840625 8.49995352,4.9675 C8.99945742,4.9108125 9.48589872,4.77075 9.93896476,4.553 L8.44995312,7.7465 L8.44995312,5.6215 Z M20.4500469,26.14 C20.4481094,27.71875 19.1687869,28.9980625 17.5900245,29 L11.3099755,29 C9.73121313,28.9980625 8.45189064,27.71875 8.44995312,26.14 L8.44995312,10.111 L11.9029801,2.711 C12.1871073,2.1983125 12.3639837,1.6331875 12.4229842,1.05 C12.6382358,1.018125 12.855425,1.0014375 13.0729892,1 L15.8285108,1 C16.049075,1.001 16.2693267,1.01775 16.4875159,1.05 C16.558829,1.6329375 16.7445804,2.196 17.0340202,2.707 L20.4500469,10.11 L20.4500469,26.14 Z M20.4500469,7.725 L18.9785354,4.539 C19.4247264,4.758375 19.9045426,4.9015625 20.3980465,4.9625 C20.4309842,5.180625 20.4483594,5.400875 20.4500469,5.6215 L20.4500469,7.725 Z M25.2430843,23.5 L24.4500781,24.293 L21.4500547,21.293 L21.4500547,19.707 L25.2430843,23.5 Z M26.4500938,17.793 L21.4500547,12.793 L21.4500547,11.207 L27.2430999,17 L26.4500938,17.793 Z" id="Shape"></path>
            </g>
        </g>
    </g>
</svg>