<?xml version="1.0" encoding="UTF-8"?>
<svg width="35px" height="26px" viewBox="0 0 35 26" version="1.1" xmlns="http://www.w3.org/2000/svg" xmlns:xlink="http://www.w3.org/1999/xlink">
    <!-- Generator: Sketch 57.1 (83088) - https://sketch.com -->
    <title>touch and go</title>
    <desc>Created with Sketch.</desc>
    <g id="Page-1" stroke="none" stroke-width="1" fill="none" fill-rule="evenodd">
        <g id="Care-Detail" transform="translate(-1500.000000, -1597.000000)" fill="#868686" fill-rule="nonzero">
            <g id="touch-and-go" transform="translate(1500.000000, 1597.000000)">
                <path d="M32.1653797,9.97921594 L26.355366,3.82986847 C25.2057202,2.72262456 23.3329102,2.72115959 22.172472,3.83879786 C21.8047331,4.19297359 21.554407,4.61711944 21.4246083,5.06958819 C20.2688058,4.2168318 18.6014862,4.30166097 17.5368035,5.32707542 C17.1705857,5.68125116 16.9202596,6.10539701 16.7873463,6.55633102 C15.6315438,5.70657434 13.9642242,5.78986877 12.9011351,6.81528322 C12.541074,7.16206431 12.2938625,7.57574604 12.1594281,8.01628568 L9.42126916,5.379117 C8.27162339,4.27187309 6.39881333,4.27040812 5.23837514,5.38804639 C4.08720829,6.49529029 4.08720829,8.29902633 5.23837514,9.40773521 L15.7582279,19.539589 L9.5186182,20.4831042 C7.83275596,20.7152683 6.56106173,22.1261113 6.56106173,23.7676534 C6.56106173,24.9984438 7.60097254,26 8.87889595,26 L23.4488019,26 C25.7187584,26 27.8526869,25.1487086 29.4581493,23.6024598 L31.8887606,21.2614956 C33.4927019,19.7181767 34.375,17.6644179 34.375,15.4811829 C34.375,13.4422831 33.590051,11.4882822 32.1653797,9.97921594 Z M30.796264,20.209293 L28.3656526,22.5502572 C27.0522374,23.8152303 25.3061114,24.5117224 23.4487295,24.5117224 L8.87882352,24.5117224 C8.45234202,24.5117224 8.10618797,24.1783354 8.10618797,23.7675837 C8.10618797,22.8627159 8.80769498,22.0843943 9.74873568,21.9549182 L17.4980522,20.7821689 C17.7854637,20.7389869 18.0218828,20.5440752 18.1130751,20.2776586 C18.2026739,20.0127767 18.1300967,19.7195719 17.9245337,19.5216605 L6.33079938,8.3555326 C5.78226943,7.82723383 5.78226943,6.96701303 6.33854964,6.42978487 C6.61357516,6.16636797 6.97363622,6.03389216 7.33369728,6.03389216 C7.69375834,6.03389216 8.05374697,6.16636797 8.32884492,6.43124985 L16.0596188,13.8768931 C16.3609373,14.1670981 16.850797,14.1670981 17.1521155,13.8768931 C17.301978,13.7310232 17.3777422,13.5405761 17.3777422,13.3500593 C17.3777422,13.1595425 17.3020504,12.9690954 17.1505944,12.8232255 L13.9937042,9.78276944 C13.4451742,9.25447067 13.4451742,8.39571484 14.0029755,7.85848668 C14.5499844,7.33165289 15.4446684,7.33165289 15.9916773,7.85848668 L19.1500886,10.9004077 C19.451407,11.1906128 19.9412668,11.1906128 20.2425853,10.9004077 C20.3924477,10.7545378 20.4682119,10.5640907 20.4682119,10.3735739 C20.4682119,10.1830571 20.3925202,9.99261002 20.2410642,9.84674012 L18.6293726,8.29449188 C18.0808427,7.76619311 18.0808427,6.90743728 18.638644,6.37020912 C19.1856529,5.84337533 20.0803369,5.84337533 20.6273458,6.37020912 L22.2467151,7.92985201 C22.2498297,7.93131699 22.2482362,7.93131699 22.2482362,7.93131699 L22.2497573,7.93278197 C22.2512784,7.93424695 22.2512784,7.93424695 22.2512784,7.93424695 C22.2527994,7.93571192 22.2527994,7.93571192 22.2527994,7.93571192 L22.2543205,7.93571192 C22.2558416,7.93571192 22.2558416,7.9371769 22.2558416,7.9371769 C22.5586811,8.21398788 23.0377485,8.20805821 23.3328378,7.92231784 C23.6341562,7.63211279 23.6341562,7.16032029 23.3328378,6.87011523 L23.2664173,6.80614455 C23.0006631,6.55019206 22.8538428,6.20934065 22.8538428,5.8477005 C22.8538428,5.48606035 22.9990696,5.14674367 23.2741676,4.8818618 C23.824291,4.355028 24.7143394,4.35649298 25.2381699,4.85653862 L31.0234841,10.9806327 C32.1869645,12.2144925 32.8298013,13.8128526 32.8298013,15.4811829 C32.8298013,17.2670602 32.1081581,18.9457848 30.796264,20.209293 Z" id="Shape"></path>
                <path d="M14.3027013,4.29838018 C13.1232051,1.68827505 10.5178323,0 7.66615519,0 C3.64629829,0 0.375,3.27113734 0.375,7.29079645 C0.375,10.1423333 2.06328217,12.7475779 4.67351573,13.9286869 C4.78204761,13.9772922 4.89551622,14 5.00731393,14 C5.31513739,14 5.61004942,13.8217552 5.74615099,13.523668 C5.92926531,13.1153834 5.74774593,12.6357857 5.34111213,12.4510855 C3.30931022,11.5324451 1.99530734,9.50719858 1.99530734,7.29079645 C1.99530734,4.16388018 4.53908506,1.62015167 7.66623114,1.62015167 C9.88274231,1.62015167 11.9080885,2.9340899 12.8267741,4.96579184 C13.0098884,5.37407644 13.4911046,5.55718176 13.8977384,5.37081078 C14.3059672,5.18618654 14.4874106,4.70666479 14.3027013,4.29838018 Z" id="Path"></path>
            </g>
        </g>
    </g>
</svg>