<?xml version="1.0" encoding="UTF-8"?>
<svg width="26px" height="31px" viewBox="0 0 26 31" version="1.1" xmlns="http://www.w3.org/2000/svg" xmlns:xlink="http://www.w3.org/1999/xlink">
    <!-- Generator: Sketch 57.1 (83088) - https://sketch.com -->
    <title>usb</title>
    <desc>Created with Sketch.</desc>
    <g id="Page-1" stroke="none" stroke-width="1" fill="none" fill-rule="evenodd">
        <g id="Care-Detail" transform="translate(-973.000000, -1601.000000)" fill="#868686" fill-rule="nonzero">
            <g id="usb" transform="translate(973.000000, 1601.000000)">
                <polygon id="Path" points="3 2.97619048 5 2.97619048 5 3.97619048 3 3.97619048"></polygon>
                <path d="M23.5,20.9761905 L23.5,12.4761905 C23.5,9.43859285 21.0375976,6.97619048 18,6.97619048 C14.9624024,6.97619048 12.5,9.43859285 12.5,12.4761905 L12.5,26.4761905 C12.4978028,28.4083194 10.9321289,29.9739932 9,29.9761905 L8,29.9761905 C6.06787113,29.9739932 4.50219725,28.4083194 4.5,26.4761905 L4.5,14.9761905 L5.5,14.9761905 C6.88012694,14.9744815 7.998291,13.8563174 8,12.4761905 L8,4.47619048 C8,4.20006741 7.77612306,3.97619048 7.5,3.97619048 L6.5,3.97619048 L6.5,1.47619048 C6.5,1.20006741 6.27612306,0.976190476 6,0.976190476 L2,0.976190476 C1.72387694,0.976190476 1.5,1.20006741 1.5,1.47619048 L1.5,3.97619048 L0.5,3.97619048 C0.223876938,3.97619048 0,4.20006741 0,4.47619048 L0,12.4761905 C0.001709,13.8563174 1.11987306,14.9744815 2.5,14.9761905 L3.5,14.9761905 L3.5,26.4761905 C3.50268556,28.9603214 5.51586913,30.9735049 8,30.9761905 L9,30.9761905 C11.4841309,30.9735049 13.4973144,28.9603214 13.5,26.4761905 L13.5,12.4761905 C13.5,9.99083891 15.5146484,7.97619048 18,7.97619048 C20.4853516,7.97619048 22.5,9.99083891 22.5,12.4761905 L22.5,20.9761905 C21.1198731,20.9778995 20.001709,22.0960635 20,23.4761905 L20,28.4761905 C20,28.7523135 20.2238769,28.9761905 20.5,28.9761905 L21,28.9761905 L21,30.4761905 C21,30.7523135 21.2238769,30.9761905 21.5,30.9761905 L24.5,30.9761905 C24.7761231,30.9761905 25,30.7523135 25,30.4761905 L25,28.9761905 L25.5,28.9761905 C25.7761231,28.9761905 26,28.7523135 26,28.4761905 L26,23.4761905 C25.998291,22.0960635 24.8801269,20.9778995 23.5,20.9761905 Z M2.5,1.97619048 L5.5,1.97619048 L5.5,3.97619048 L2.5,3.97619048 L2.5,1.97619048 Z M1,12.4761905 L1,4.97619048 L7,4.97619048 L7,12.4761905 C7,13.3045596 6.32836912,13.9761905 5.5,13.9761905 L2.5,13.9761905 C1.67163087,13.9761905 1,13.3045596 1,12.4761905 Z M24,29.9761905 L22,29.9761905 L22,28.9761905 L24,28.9761905 L24,29.9761905 Z M25,27.9761905 L21,27.9761905 L21,23.4761905 C21,22.6478214 21.6716309,21.9761905 22.5,21.9761905 L23.5,21.9761905 C24.3283691,21.9761905 25,22.6478214 25,23.4761905 L25,27.9761905 Z" id="Shape"></path>
            </g>
        </g>
    </g>
</svg>